<svg width="348" height="171" fill="none" xmlns="http://www.w3.org/2000/svg"><g clip-path="url(#clip0)" fill="#000"><path d="M87.547 35.813l-.335.128s.13.026.335-.128zM74.625 40.5l.025-.025.052-.077-.077.103z"/><path d="M87.418 29.914c-3.217 2.937-4.505 3.22-7.722 6.362-1.725 1.288-3.372 2.911-5.148 4.199-.515 1.005-2.214 1.674-2.935 2.704h-.54a1.957 1.957 0 01-1.03.825c-.386.54-1.03.824-1.21 1.082l-.592.463v-.18a9.55 9.55 0 01-2.574 1.854l.257.258c-1.956.824-2.214 1.855-4.067 2.576-1.545 2.06-3.527 1.468-5.148 3.477.205-.258-.206 0-.232-.18-.927.67-1.93 1.34-1.596 1.932-.72.412-.695.154-.927 0 .155.257-.412.72-.952 1.081l.206-.257-1.545 1.03.592.31c-.926.36-.566-.464-1.313 0l.232.411a17.63 17.63 0 01-3.604.722c-4.865 2.575-9.447 6.439-14.338 8.216l-.334-.438c-.335-.412-.876 1.314-1.287 1.005l-.412.49c-.18 0-.54 0-.335-.155-.489.232-.463.309-.746.644h-.67c-2.033.798-3.372 2.189-5.431 3.168a39.767 39.767 0 00-9.447 5.357 21.488 21.488 0 01-5.947 2.885 11.223 11.223 0 00-6.203 4.302c-.155 0-.335.54-.283.566-.522.64-.963 1.34-1.313 2.087a8.71 8.71 0 00-.747 2.576v1.056c.017.873.156 1.74.412 2.575a10.303 10.303 0 003.372 4.791c1.313 1.03 2.394 1.391 2.574.773a3.17 3.17 0 00-.386-1.726 19.097 19.097 0 01-1.132-3.657h.128c-.592-1.675-.566-2.396-.978-3.555.36 0 .463-.309.49-.644.025-.335.154-.721.36-.824 0-1.185 1.596-1.39 2.059-2.395v.386c.515-.567 1.364-1.314 1.647-1.005a29.135 29.135 0 005.406-3.58v.155c.515-.773.901-.541 1.596-1.16h.129c.566-.798 2.24-1.262 2.78-1.751l.154.206 1.339-.85-.592.258c-.155-.747 1.39-.207 2.265-1.237 1.081-.463 1.416-2.576 2.574-2.73.36-.567-.18.721.464 0 .206.335-.258.412 0 .567.669-.567 1.441-.31 2.24-1.03l.18.231c.952-1.133 2.573-.876 3.063-1.777 1.132-.876 1.26.335 2.316-.876h.695c.592-.232.155-.644.876-.798 0 .231.875-.232.643.154 1.622-.386 2.574-2.06 4.71-2.576.155-.644 1.21-.901 1.34-1.39.154.154 1.878-1.005 1.055 0 0 0-.232.154-.258 0v.334c1.313 0 1.75-1.313 2.832-1.829-.36 0-.747.335-.566 0l.978-.515v.335l1.493-.67-.335-.154c.772-.258 1.287 0 1.853-.773.232-.412-.875 0-.18-.49a32.62 32.62 0 003.836-1.467c-.283-.232 0-.412.334-.644l.18.232c1.056-1.082.799.309 1.88-.696v-.129c.824-1.159.927.18 1.776-1.262-.463.335-.566-.438 0-.67v.335c.309-.257.36-.412.618-.489.257-.077 0 .412.566 0l-.154.515.669-1.004c.875-.18 1.828-1.185 2.317-1.03 0 0 1.647-.773 1.776-1.366-.155.412.746 0 .67.412a3.144 3.144 0 011.93-1.494c1.93-.798 2.728-2.266 4.479-2.936-.258-.232.669-.618.206-.85 1.364-1.391 3.397-1.21 3.192-2.73.669-.567 1.03-.335 1.441-.515v.18a83.034 83.034 0 012.574-2.01c.412-.463 0-1.03 1.056-1.57 0 .412.206 0 .514-.13-.18.181-.18.31.335 0a.773.773 0 01.129-.308c.489-.464.335-.464 0-.31-.335.155 0 0-.18 0 .772-.154 1.518-1.236 1.853-.927a45.02 45.02 0 003.552-3.838c.284 0 0 .464-.206.85l.85-.85c.206.258-.412.593-.644.876 1.416-.567 1.905-2.318 3.45-3.09v-.439s0-.49.206-.695c.206-.206.437.49 1.03 0 .591-.49 1.26-1.391 1.775-2.112-.36.283-.36 0-.308-.129.051-.129.643-.283.772-.593l.309.232c-.36-.128.463-1.056.463-1.287 0-.232-.257.643-.18.85l1.673-1.88c.412-.85-.386 0-.335-.645a8.445 8.445 0 011.52-1.906h-.438a6.078 6.078 0 012.213-2.576c2.189-5.151 1.622-6.156.721-5.847a8.059 8.059 0 00-2.342 1.778c-2.472 2.988-3.115 5.177-6.333 8.963zm5.947 7.316l-.258.231s.155-.231.258-.231z"/><path d="M91.022 31.898a58.058 58.058 0 00-4.453 8.628c-.875 1.88-1.596 3.993-2.291 5.925 0 1.082-1.004 2.575-1.004 3.709l-.438.309c.017.428-.12.848-.386 1.185a12.451 12.451 0 01-.36 1.52l-.283.54v-.154a9.588 9.588 0 01-.927 2.859h.36c-1.055 1.726-.617 2.576-1.673 4.198 0 2.447-1.802 3.169-1.724 5.667 0-.309-.207 0-.284 0-.257 1.056-.566 2.164 0 2.396-.257.746-.412.54-.695.54.283 0 .18.773 0 1.366v-.31l-.463 1.7.644-.154c-.438.824-.721 0-.876.901l.438.13c-.49 1.184-1.39 1.7-2.085 2.781-1.776 4.894-2.111 10.587-3.939 15.146l-.386.128c-.515 0 .438 1.468 0 1.546v.592c0 .129-.283.438-.334.155a1.494 1.494 0 000 .953l-.412.49a44.979 44.979 0 00-.695 6.001 25.385 25.385 0 00-.36 10.457c.205 1.035.308 2.088.308 3.143v3.322c.011 1.12.089 2.238.232 3.349.223 1.09.586 2.146 1.081 3.142 0 .155.232.464.283.438.052-.026 1.21 3.658 1.21 3.658l.309.721c.313.585.656 1.152 1.03 1.7.437.67.9 1.391 1.415 2.086a17.24 17.24 0 001.777 1.726c1.132.979 2.033 1.468 2.29.876.258-.593-.231-2.215-1.184-5.358h.13a10.308 10.308 0 00-2.292-3.683c.54-.464-.54-1.442-.489-1.958-1.004-.875-.257-2.395-1.055-3.322 0 0 .257 0 .334.257-.309-.747-.746-1.777-.334-1.932l-.592-3.142a8.892 8.892 0 00-.695-2.576c-.49-.695 0-.927-.386-1.726-.464-.772 0-2.318-.232-2.962h.257v-1.571.593c-.746-.232.49-1.185.129-2.344.18-1.056-1.364-2.344-.875-3.426-.258-.567.489.541.334-.283.386 0 .18.412.515.231 0-.798.567-1.236.438-2.24h.309c-.386-1.34.746-2.293.386-3.22 0-1.34 1.03-.696.695-2.138l.489-.438c.18-.567-.386-.515 0-1.108.232 0 .386-.746.54-.334.721-1.34 0-3.04 1.236-4.74-.386-.515.154-1.39 0-1.803.206 0 .515-1.88.695-.695v.231l.258.207c.798-.928.257-2.01.617-3.04-.18.284-.283.696-.386.387l.31-.98.18.284.54-1.417h-.36c.36-.67.926-.772.772-1.7 0-.437-.592.541-.464-.231a34.918 34.918 0 001.7-3.4c-.361 0-.258-.31-.207-.67h.31c0-1.417.772-.258.875-1.649l.154.18-.49-.54c-.18-1.34.799-.438.439-1.958 0 .515-.696 0-.36-.54l.23.257v-.721c0 .257.361.231.49-.284l.231.464-.18-1.133c.54-.644.567-1.932 1.056-2.087 0 0 .72-1.52.437-2.009.155.412.54-.438.773 0a2.577 2.577 0 01.514-2.163c.953-1.649.644-3.194 1.648-4.637-.36 0 .129-.824-.36-.773.205-1.803 1.982-2.575.926-3.76.232-.773.644-.773.85-1.133v.154c.273-.977.617-1.932 1.03-2.859 0-.567-.464-.876 0-1.752 0 .387.231 0 .36-.334 0 .232 0 .335.334 0a.722.722 0 010-.31c.155-.618 0-.54 0-.283 0 .258 0 0-.18 0 .54-.463.67-1.674 1.107-1.571.618-1.752.747-3.168 1.21-4.662.283 0 .309.335.206.798l.36-1.03c.283.129 0 .644-.154.979 1.004-1.005.592-2.576 1.673-3.89v-.386s-.154-.438 0-.67c.154-.231.592.284.875-.412.283-.695.592-1.597.798-2.395-.231.36-.309.18-.309 0s.49-.438.515-.747h.36c-.386 0 0-1.056 0-1.262.335 0 0 .644 0 .824l.927-2.086c0-.85-.386 0-.515-.515a5.515 5.515 0 01.875-2.087h-.411a5.153 5.153 0 011.467-2.704c1.055-5.152.515-6.028-.36-5.667a7.544 7.544 0 00-2.008 2.06c-2.471 3.426-2.523 5.719-4.325 10.175zM52.95 93.407l-.051-.026.051.026zm-2.033-7.624a20.748 20.748 0 001.03 4.713c.31.997.67 1.977 1.08 2.937.618.309.387 1.262.927 1.7l-.231.283c.18.154.334.335.231.567.283.231.232.566.386.695v.335h-.128c.313.396.485.886.489 1.39h.334c-.128 1.031.644 1.237.387 2.19 1.158.902-.258 1.855.823 2.808h-.257c.18.489.334 1.056 1.004.953 0 .386-.155.335-.412.438.283 0 .463.257.54.566h-.128l.231.85.541-.257c0 .489-.67.206-.463.618h.463c0 .644-.644 1.108-.952 1.726 0 2.575 1.364 5.151.334 7.418h-.36c-.515 0 .695.695.206.721l.206.283s-.206.206-.31 0c-.102-.206 0 .258.181.438l-.36.206c-.412.85 0 1.778-.36 2.576-.927.902-1.16 2.962-1.674 4.096a2.577 2.577 0 01-2.008 1.622 4.484 4.484 0 00-2.342 1.056s-.155.155 0 .206c-.646.213-1.31.368-1.982.464h-.31l-.797.129c-.618.154-1.442.309-2.085.541-1.21.489-2.111 1.545 1.647 3.58 1.133 0 1.905.18 2.574-.618.283.644.927-.155 1.262 0 .514-.67 1.544 0 2.033-.799v.309c.463-.231.978-.798 1.21-.437 1.055-.67 2.574-1.7 2.574-2.756 0-.619.335-.464.515-.979 0-.644.746-1.159.824-1.571h.231c.153-.276.29-.56.412-.85l-.206.283c-.592-.464.721-.412.618-1.236.335-.567-.978-1.726-.412-2.138-.231-.387.464.412.335 0 .36 0 .18.283.489.257 0-.463.566-.592.463-1.185h.284c-.31-.798.669-1.236.257-1.803-.412-.566.978-.335.489-1.185l.438-.231c0-.309-.464-.284-.232-.619.232-.334.257-.437.463-.206.49-.798-.463-1.674.258-2.73-.49-.232-.206-.773-.567-.927.206 0 0-1.056.49-.464v.129h.283c.566-.618-.31-1.108-.258-1.7 0 .18 0 .412-.257.258v-.541h.257v-.825l-.309.129c.13-.412.644-.592.155-1.004-.49-.412-.386.412-.515 0 .223-.667.361-1.36.412-2.061-.335 0-.335 0-.438-.258h.283c-.514-.669.618-.334.206-1.004h.206-.643c-.67-.541.566-.438-.335-1.03 0 .257-.618.231-.566 0h.309c0-.181-.232-.232-.18-.361.051-.129.411 0 .334-.283h.386l-.618-.438c.232-.464-.257-1.03 0-1.262.258-.232 0-.902-.437-1.005.309 0 .309-.386.67-.309-.336-.154-.747-.773-.464-1.108 0-1.056-.824-1.57-.644-2.575-.334 0-.257-.387-.67-.155-.643-.773.464-1.854-.952-1.829-.18-.386.18-.566.206-.798a7.22 7.22 0 01-.514-1.494c-.206-.232-.824 0-.824-.644.283 0 .18 0 .129-.283-.052-.284.18 0 .257-.18a.437.437 0 01-.206 0c-.18-.284-.232-.207-.232 0a.23.23 0 00-.128 0c.206-.413-.284-.876 0-1.057a16.53 16.53 0 00-1.442-2.138c.18-.154.438 0 .592.155l-.257-.515c.309 0 .283.257.386.412.283-.824-.927-1.16-.747-2.086h-.283a.514.514 0 01.283.283c.232-.206.618-.206.464-.567-.155-.36-.438-.798-.695-1.133 0 .232-.129.206-.258.155-.128-.052.155-.387 0-.49l.36-.154c-.308.206-.54-.361-.72-.361.232-.206.335.206.54.18l-.463-1.082c-.412-.283-.309.207-.695 0-.386-.206-.566-.566-.515-1.03l-.257.258a1.494 1.494 0 01-.463-1.52c-2.24-1.88-3.218-1.726-3.604-1.16a2.578 2.578 0 00-.386 1.752c.154 2.035 1.415 2.576 2.574 4.766zm12.871 15.248l-.747 1.005s.309-.258.747-1.005zm96.865-9.711l-.18.258.18-.258z"/><path d="M71.793 86.35c-7.002 5.795-11.378 10.302-14.106 16.252a18.891 18.891 0 005.869 22.203 33.987 33.987 0 0013.102 6.594 73.837 73.837 0 0013.746 2.215c4.248 0 11.635.464 16.501 0l1.905.232a25.316 25.316 0 015.148-.154c2.574-.206 5.328 0 6.615-.206l3.115-.129-.54.154c2.239-.206 4.556-.463 6.821-.875a27.386 27.386 0 006.796-1.752h-.541a7.206 7.206 0 003.347-2.576 5.15 5.15 0 00.772-4.172 6.196 6.196 0 00-.772-1.803 8.453 8.453 0 00-.876-1.185 16.085 16.085 0 00-1.776-1.726c-1.184-1.005-2.342-1.829-3.604-2.705l-1.904-1.39a12.4 12.4 0 01-1.725-1.469 26.062 26.062 0 01-6.693-9.659c-1.596-3.348-2.883-6.825-4.814-11.307.49 1.107 0-.541 0-.49-1.467-4.224-2.574-8.912-3.243-8.835-.695-3.22-.335-2.575-.18-3.116a13.746 13.746 0 01-1.236-5.152l.258 1.134s-.284-1.803-.438-3.607a73.535 73.535 0 01-.206-3.631l-.438 1.52c0-3.89.618-1.005.567-4.689h-.567a37.14 37.14 0 013.527-12.878 33.824 33.824 0 018.212-13.085 40.97 40.97 0 0113.694-8.114 70.261 70.261 0 0131.199-3.58l.798.438c.283.463 5.406 0 5.972.901 0 0 .566 0 1.107.206l1.081.258c.566.258 1.699.927.669.567 1.854.824 1.879.798 3.244 1.365l.798.721.772.721a14.197 14.197 0 015.303 8.835 18.434 18.434 0 01-1.982 11.153 107.943 107.943 0 01-11.97 16.923c-5.149 5.95-10.966 11.72-14.982 16.176-2.806 3.245-5.714 6.336-8.803 9.71a40.083 40.083 0 00-8.006 11.849 9.929 9.929 0 00.463 8.603 7.339 7.339 0 003.964 2.859c1.302.401 2.654.618 4.016.644a36.47 36.47 0 007.079-.644 48.26 48.26 0 006.59-1.597 7.231 7.231 0 001.931-.67s.952-.206 2.574-.747c.695-.232 1.493-.515 2.265-.721.372-.108.75-.194 1.133-.258h.514c0 .206.129-.541.155-.669.412-1.134.695-.361-1.056-.515v.18l-.231.798a5.95 5.95 0 00-.309 1.803c-.052.597 0 1.199.154 1.778a6.324 6.324 0 001.699 3.194l.953.747c.854.536 1.782.944 2.754 1.21 3.102.827 6.398.488 9.267-.953.462-.267.909-.559 1.339-.876.389-.321.758-.665 1.106-1.03a9.035 9.035 0 001.777-2.73 8.213 8.213 0 00.581-3.363 8.178 8.178 0 00-.839-3.308 8.985 8.985 0 00-4.633-4.379 16.729 16.729 0 00-5.149-1.211 29.51 29.51 0 00-4.247 0l-1.802.155c-.31.057-.613.153-.901.283l-.695.335a6.631 6.631 0 00-1.081.695l-.283.284-.206.257a1.396 1.396 0 00-.206.902 1.264 1.264 0 00.669.875h.283a.73.73 0 00.335 0c.515 0 .463-.257.258-.386l-.335-.129h-.155a.621.621 0 01-.283-.231.491.491 0 010-.516c0-.154 0 0 .18-.18.382-.189.79-.32 1.21-.386a5.14 5.14 0 011.674-.181l2.265.284c2.087.228 4.137.722 6.101 1.468a7.73 7.73 0 012.986 2.086 5.158 5.158 0 011.106 3.555v-.258a4.557 4.557 0 01-1.75 3.555 6.818 6.818 0 01-3.449 1.442 7.435 7.435 0 01-6.307-1.416c-.01-.866.076-1.73.257-2.576a5.373 5.373 0 00.284-2.421 3.882 3.882 0 00-.387-1.005 3.952 3.952 0 00-1.184-.901 3.545 3.545 0 00-1.467-.49 10.874 10.874 0 00-2.832.258h.206c-1.415.489-2.702 1.03-3.887 1.391-1.184.36-2.574.644-3.784.901-2.574.541-5.019.876-7.49 1.443a2.745 2.745 0 011.39-.464 35.207 35.207 0 01-5.432.67c-1.596 0-2.574-.258-2.574-.49a3.602 3.602 0 01-1.853-.798.745.745 0 01-.232-.284.918.918 0 01-.18-.437 2.867 2.867 0 01-.258-1.134 10.826 10.826 0 011.365-5.718 89.144 89.144 0 016.615-9.582l-.18.36c1.802-2.575 2.78-3.064 5.148-5.846.181 0 .361-.283.361-.232 2.033-2.833 7.053-7.315 8.932-9.453h.309l2.445-2.576 2.42-2.575-1.853 1.854c0-1.16 4.067-3.451 7.053-7.727 3.192-3.684 4.736-8.603 7.568-12.622.901-2.215-.566 2.087.978-1.133.386 0-.618 1.571 0 .927a31.164 31.164 0 003.964-9.324h.335c.419-2.792.419-5.63 0-8.422a11.826 11.826 0 00-2.909-6.491c-2.033-2.396-2.831-3.066-3.526-3.941a10.916 10.916 0 00-4.634-2.73l-1.055-.696a19.76 19.76 0 00-1.081-.618 6.178 6.178 0 00-2.317-.541 11.824 11.824 0 01-2.574-.541c.231-.258-3.656-.876-1.905-.824a38.586 38.586 0 00-10.297-.619c-3.578.155-7.388.413-11.738.696a23.72 23.72 0 01-3.887.979 19.522 19.522 0 00-3.501 1.004c-1.27.2-2.526.484-3.758.85-1.493.438-2.394.644 0-.335.386-.18 1.133-.36 1.081-.257l.489-.438a40.092 40.092 0 00-12.871 5.46c1.339-.67 3.089-1.57 2.008-.798l-2.033 1.108c-.688.358-1.35.762-1.982 1.21l.669-.747s-1.493.902-2.935 1.906l-1.93 1.494c-.301.219-.585.46-.85.721l.927-.412a18.02 18.02 0 00-5.869 6.285c-.772 1.597 2.136-2.575.206.593a40.165 40.165 0 00-6.796 15.66c.438-.463 0 1.056 0 2.576l-.335.155c.061 1.4-.104 2.8-.489 4.147a8.67 8.67 0 00-.283 4.12l-.206-.54.309.798.335.799c.926 5.357-.541 3.014 1.081 8.86-.412-2.318.463-1.184.824 1.675l-.412-.67c.36 1.571.592 2.06.746 3.117-.36-.902-.515-.387 0 1.88l-.695-1.443.747 2.087.798 2.086c.514 3.4 2.574 8.449 2.728 9.917 0 0 .592 1.751 1.416 3.683a20.93 20.93 0 002.574 4.611c-.952-1.211.901 2.576 0 1.623.618.772 1.725 2.395 2.909 3.992 1.184 1.597 2.574 3.22 3.166 4.198l-.334-.309a19.59 19.59 0 002.368 2.576 38.827 38.827 0 002.394 1.752c1.493 1.004 2.857 1.906 4.041 2.859.551.422 1.067.887 1.545 1.391.182.199.346.414.489.644.06.066.104.145.128.231 0 .335 0 .541-1.261 1.082.18 0-.36.412-1.004.644-.643.232-1.261.438-.798.567-7.001 2.06-13.205.335-15.934 1.777a55.07 55.07 0 01-5.895-.386h.824c-6.512.257-8.314.335-13.05.257a26.16 26.16 0 01-6.951.309c1.39-.154-.335-.206-1.905-.386 1.004 0 1.313 0-.72-.386a6.403 6.403 0 01-1.16 0c-2.573-.258-2.161 0-.977 0l.386.206a38.607 38.607 0 01-7.723-1.855 40.536 40.536 0 01-9.627-3.451 18.022 18.022 0 01-6.796-5.899c-.154-.721.67.464 1.905 1.752l-.437-.515a8.26 8.26 0 01-.901-1.185 12.895 12.895 0 01-1.081-1.855c.128 0 .411.49.849 1.134l.643 1.03.721.876a22.552 22.552 0 01-3.5-7.187 11.262 11.262 0 011.235-8.165s.309-1.262.335-1.262l.231-.309a5.46 5.46 0 01.927-2.164c.747-.566.438.387 2.368-2.06 1.725-1.752 4.762-5.152 7.26-7.522-1.416 1.134-1.056.644-.541 0 1.235-1.056 2.136-1.442 3.037-2.318l.36.206c-.746 0 3.064-2.962 3.45-3.451.901-.36-1.828 1.751-2.034 2.19 5.149-4.045 2.575-2.061 7.723-5.977 2.574-2.266-.72 0 .438-1.159a67.705 67.705 0 017.902-5.512l-1.133.335A63.479 63.479 0 01104.1 67.83c9.112-5.873 14.415-8.81 16.835-10.458 2.42-1.648 2.085-1.88.54-1.52a55.655 55.655 0 00-6.718 2.422c-2.368 1.004-4.325 1.931-4.325 1.931a123.07 123.07 0 00-19.306 10.999 237.555 237.555 0 00-19.332 15.145zm158.465 5.383l-1.519-1.03s.386.334 1.519 1.03zm90.945 27.483l.386-.181-.386.181zM172.057 51.911l.308.31-.308-.31z"/><path d="M251.572 100.645a106.96 106.96 0 00-13.205-9.325c-3.81-2.575-7.234-4.584-10.709-6.594-6.95-4.018-14.209-7.727-25.741-13.342-5.38-2.782-10.966-5.744-16.32-8.81a47.88 47.88 0 01-13.592-10.637 14.634 14.634 0 01-3.861-8.345 23.425 23.425 0 011.39-9.994l.618-.98.412-.669.231-.283a16.136 16.136 0 013.99-5.152v.155a32.237 32.237 0 016.564-5.152v.155c.549-.364 1.116-.7 1.699-1.005l1.725-1.107-.541.438a68.66 68.66 0 0115.986-6.26l-.515-.205c5.586-1.417 9.396-2.396 13.102-3.246a93.673 93.673 0 0112.511-2.138h-.129c12.871-2.704 20.825-1.7 34.442-3.04-1.699.155.747.155.592.258 6.307-.309 12.871-.283 13.103-.953 4.582 0 3.707.31 4.299.593a27.651 27.651 0 017.516 0h-1.647s2.574.154 5.148.412c2.574.257 5.148.618 5.148.618l-1.905-.85c5.329.979 1.262.824 6.359 1.623v-.49a55.245 55.245 0 019.164 2.834 17.785 17.785 0 017.001 4.533 3.625 3.625 0 01.927 3.246 9.662 9.662 0 01-2.291 3.889 105.465 105.465 0 01-8.34 7.727c-5.869 4.971-12.15 9.608-18.431 14.167-12.588 9.066-25.201 18.03-35.369 28.333l-1.133.696c-.798 0-4.685 6.542-5.611 7.289l-.876 1.494-.823 1.545c-.567.799-1.648 2.576-.901.98a19.493 19.493 0 00-2.137 5.28s-.36.798-.669 1.648c-.309.85-.566 1.726-.566 1.726a21.08 21.08 0 000 9.788 22.277 22.277 0 004.273 8.397 41.448 41.448 0 0015.084 10.947 61.782 61.782 0 0013.154 4.713 85.319 85.319 0 0016.449 2.19c5.598.209 11.203-.049 16.758-.773 4.811-.674 9.568-1.69 14.235-3.04a92.556 92.556 0 0016.989-6.851l4.119-2.576a24.385 24.385 0 003.938-3.22 15.46 15.46 0 004.763-9.556 10.908 10.908 0 00-1.159-5.692 12.869 12.869 0 00-3.552-4.456 10.293 10.293 0 00-5.509-2.241 15.822 15.822 0 00-5.483.335 30.493 30.493 0 00-9.241 3.915 37.532 37.532 0 00-3.964 2.885 27.048 27.048 0 00-3.424 3.348 14.47 14.47 0 00-1.827 2.138l-2.394 2.576-4.969 5.718-4.659 5.976-2.008 2.808a127.814 127.814 0 00-8.211 13.084 138.01 138.01 0 00-10.94 25.578c-2.42 7.933-3.244 13.6-2.394 12.389a56.515 56.515 0 003.114-7.367 178.993 178.993 0 019.139-19.884l-.129.515c5.328-10.484 9.37-16.665 13.592-23.594a27.286 27.286 0 003.655-4.328 47.38 47.38 0 014.247-5.151v.232a61.14 61.14 0 017.362-8.062 48.155 48.155 0 018.16-5.976 4.917 4.917 0 01-1.544 1.159 26.838 26.838 0 016.718-3.065 6.382 6.382 0 013.81-.284 6.588 6.588 0 016.049 3.53 7.314 7.314 0 010 7.495 17.785 17.785 0 01-5.56 6.104l-3.243 2.138-2.755 1.674.412-.334a48.182 48.182 0 01-9.498 4.327h-.567c-1.107.438-2.574.927-3.99 1.416-1.415.49-3.192.825-4.813 1.211l-4.737.85c-1.467.206-2.728.386-3.681.567l-.283-.232-1.467.154-3.244.31-4.736.257h3.552c-1.21.773-7.182 0-14.029-.18-6.332-.644-13.231-.335-19.589-2.859-3.141-.747 2.831.438-1.751-.953 0-.412 2.163.541 1.133-.155a54.348 54.348 0 01-11.841-6.182v-.386a20.6 20.6 0 01-7.105-7.058 24.44 24.44 0 01-2.806-7.47 10.668 10.668 0 01.567-6c.463-1.186.772-2.396 2.136-6.002 0 0 .412-.644.875-1.237.464-.592.927-1.21.927-1.21 1.854-2.756.85-2.319 3.295-5.152 0 .335 3.295-3.529 2.034-1.674a117.596 117.596 0 0121.52-19.395c1.673-1.932 6.564-5.152 7.877-6.491.36 0 9.575-6.749 4.479-2.576-.438.36-1.262.927-1.262.824l-.463.695c5.715-3.374 9.679-7.186 15.033-11.05-1.648 1.082-3.733 2.576-2.445 1.443l2.574-1.803 2.574-1.855-.875.98 3.681-2.757 3.629-2.833-1.184.567 4.144-3.194a27.677 27.677 0 004.325-3.993c1.545-1.854-3.501 2.808 0-.721a19.687 19.687 0 003.527-4.276 9.796 9.796 0 001.261-3.348 8.46 8.46 0 00-.36-4.07 11.537 11.537 0 00-4.994-5.667 28.016 28.016 0 00-5.895-2.575c.592.54-1.442 0-3.527-.619l-.154-.36a22.744 22.744 0 01-5.483-1.417 15.435 15.435 0 00-5.483-1.185h.746l-2.239.284c-7.362-.284-3.887-1.16-12.073-.928 3.218.155 1.467.721-2.574.412l1.004-.257h-4.35c1.312 0 .695-.412-2.575-.412l2.163-.335-3.038.232-3.037.257c-4.685-.309-12.022.335-13.952 0 0 0-2.574 0-5.303.206a47.483 47.483 0 00-7.002.747c1.982-.438-3.526 0-1.982-.54-2.574.489-10.296 1.57-13.282 1.674h.566a201.25 201.25 0 00-28.856 5.795c.54.18-4.711 1.597-3.295 1.649a139.413 139.413 0 00-13.283 5.28 18.407 18.407 0 00-7.491 5.538 45.975 45.975 0 00-6.229 5.95l.695-1.005a27.167 27.167 0 00-4.556 9.66 24.906 24.906 0 00-.515 8.963c.29 1.408.793 2.763 1.493 4.018.356.75.751 1.48 1.184 2.19l.824 1.468 1.158 1.751c-1.364-1.545 0 .618 1.647 2.37-.978-1.133-1.415-1.365.541 1.004.36.258.875.696 1.339 1.108 2.96 2.576 2.574 1.958 1.184.773l-.361-.515c2.703 3.013 8.855 6.516 9.061 7.057 9.756 5.641 17.093 8.784 25.433 12.879.824.67-1.184 0-3.63-1.262l5.895 2.885a30.859 30.859 0 01-5.302-2.396c6.744 3.993 14.672 6.723 22.395 11.591l1.776.696.437.309a14.2 14.2 0 013.089 1.39c.953.928-.386.49 3.424 2.834 2.935 2.24 8.855 5.151 12.407 7.882-1.904-1.546-1.184-1.185-.283-.618a37.09 37.09 0 013.604 3.554l-.154.386c-.129-.437.901.516 1.673 1.752.567.886.878 1.911.901 2.962 0 .206-.155.155-.155 0a5.518 5.518 0 010-.927 7.987 7.987 0 00-.437-1.211 4.102 4.102 0 00-.489-.721 3.721 3.721 0 01.592 3.194 4.12 4.12 0 01-.67 1.365 8.986 8.986 0 01-4.762 3.22c-4.247 1.623.927 0-1.081 1.082a53.135 53.135 0 01-13.025 2.009l1.57.206a89.4 89.4 0 01-18.251.644c-14.981.438-23.321 0-27.363 0-4.041 0-3.784.489-1.647 1.004 2.136.515 6.178 1.108 9.678 1.494 3.501.387 6.487.644 6.487.644a154.294 154.294 0 0030.736 0c2.445-.283 4.813-.541 7.413-.979a33.411 33.411 0 008.289-2.318 15.018 15.018 0 004.299-2.91 10.12 10.12 0 001.776-2.344c.295-.472.52-.984.669-1.52a5.288 5.288 0 00.361-1.752 9.276 9.276 0 00-1.931-6.13 22.534 22.534 0 00-3.887-4.198z"/><path d="M309.336 81.43c-3.681.437-6.255 3.322-4.788 4.198 2.368 1.39 9.061 0 9.241-2.267.129-1.288-.978-2.344-4.453-1.932z"/></g><defs><clipPath id="clip0"><path fill="#fff" transform="translate(0 .113)" d="M0 0h348v170H0z"/></clipPath></defs></svg>