<svg width="43" height="40" fill="none" xmlns="http://www.w3.org/2000/svg"><path fill-rule="evenodd" clip-rule="evenodd" d="M40 5.505l2.946.344-1.325 2.656a5509.54 5509.54 0 01-1.94 3.884c-.076.274-.211.515-.41.828-.084.13-.37.547-.382.567a3.674 3.674 0 00-.171.273v4.976c0 12.733-12.323 20.825-23.96 20.825-2.382 0-4.191-.115-6.263-.567-3.41-.744-5.946-2.223-7.108-4.807L.192 31.823l2.905-.268c2.628-.241 4.907-.742 6.656-1.412-4.803-.773-7.495-2.883-7.495-6.845v-2.083H4.34c.458 0 .87-.037 1.24-.106C1.974 18.954.168 15.496.168 10.7l-.001-.423C.154 7.86.284 6.567.946 4.918a9.548 9.548 0 011.862-2.93L4.38.28l1.53 1.746c5.037 5.757 10.016 9.25 15.1 9.672.021-5.312 4.036-9.332 9.375-9.332 2.49 0 4.747.945 6.521 2.648.971.2 2.003.364 3.094.491zM35.392 8.95l-.639-.144-.44-.484c-1.067-1.17-2.406-1.79-3.93-1.79-3.048 0-5.209 2.172-5.209 5.209 0 .496-.013.808-.074 1.218-.247 1.636-1.164 2.949-3.05 2.949-6.247 0-11.881-3.346-17.376-9.061-.283.86-.35 1.746-.34 3.406v.446c0 4.267 1.73 6.6 5.822 7.902l1.453.461v1.524c0 1.848-1.751 3.588-4.313 4.367 1.174.89 3.576 1.371 7.461 1.371h2.083v2.084c0 2.985-3.43 5.322-8.61 6.542 1.69.518 3.94.74 6.526.74 9.614 0 19.794-6.684 19.794-16.657v-5.209c0-.612.177-1.143.472-1.695.115-.216.242-.422.399-.657l.226-.332.165-.33.802-1.606a35.188 35.188 0 01-1.222-.254z" fill="#fff"/></svg>