<?xml version="1.0" encoding="utf-8"?>
<!-- Generator: Adobe Illustrator 25.1.0, SVG Export Plug-In . SVG Version: 6.00 Build 0)  -->
<svg version="1.1" id="Layer_1" xmlns="http://www.w3.org/2000/svg" xmlns:xlink="http://www.w3.org/1999/xlink" x="0px" y="0px"
	 viewBox="0 0 262.8 43.8" style="enable-background:new 0 0 262.8 43.8;" xml:space="preserve">
<style type="text/css">
	.st0{fill:#FFFFFF;}
</style>
<g>
	<path class="st0" d="M92.8,0.8c-3.8,0-7.5,0-11.3,0c-0.3,0-0.5,0.1-0.6,0.3c-0.2,0.4-0.4,0.7-0.6,1.1l-8.8,14.2
		c-0.4,0.7-0.4,0.7-0.8,0c-3.1-5-6.2-10-9.2-15c-0.1-0.3-0.5-0.5-0.8-0.5c-3.7,0-7.5,0-11.2,0c-0.5,0-0.6,0.1-0.6,0.6
		c0,13.6,0,27.2,0,40.8c0,0.5,0.2,0.6,0.7,0.6c3.4,0,6.7,0,10.1,0c0.6,0,0.7-0.1,0.7-0.7c0-2.2,0-4.5,0-6.7c0-4.9,0-9.8,0-14.6
		c-0.1-0.6-0.1-1.2,0.1-1.8c0.2,0.3,0.3,0.5,0.4,0.6c2.9,4.5,5.8,9,8.8,13.4c0.9,1.3,2,1.3,2.9,0L79,23l2.6-4l0.1,0
		c0,0.3,0,0.5,0,0.8c0,7.4,0,14.8,0,22.2c0,0.6,0.2,0.8,0.8,0.8c3.3,0,6.6,0,9.9,0c0.9,0,0.9,0,0.9-0.9c0-10.8,0-21.7,0-32.5
		c0-2.6,0-5.3,0-7.9C93.3,1.2,93.4,0.8,92.8,0.8z"/>
	<path class="st0" d="M182.2,26c-1.1-1.7-2.6-3.1-4.4-4c-0.8-0.4-1.7-0.8-2.7-1.2l0.7-0.4c3.1-1.7,5.1-4,5.5-7.6
		c0.6-4.2-1.6-8.3-5.4-10.2c-2.4-1.2-5.1-1.8-7.8-1.8c-7.2,0-14.5,0-21.7,0c-0.5,0-0.6,0.1-0.6,0.7c0,2.3,0,4.6,0,6.9
		c0,11.2,0,22.4,0,33.7c0,0.6,0.2,0.7,0.7,0.7c7.3,0,14.7,0,22,0c2.3,0,4.5-0.4,6.7-1.1c5.5-1.9,8.5-5.7,8.1-11.8
		C183.3,28.6,182.9,27.2,182.2,26z M157.2,10.7c0-0.3,0-0.6,0.5-0.6c2.9,0.1,5.7-0.1,8.6,0.1c0.7,0.1,1.5,0.3,2.1,0.6
		c1.4,0.8,1.8,2,1.7,3.5c-0.2,1.3-1.1,2.4-2.4,2.7c-0.8,0.3-1.7,0.4-2.6,0.4c-1.1,0-2.2,0-3.4,0h0c-1.3,0-2.6,0-3.9,0
		c-0.5,0-0.6-0.1-0.6-0.6C157.2,14.9,157.2,12.8,157.2,10.7z M169.6,32.9c-0.9,0.4-1.9,0.6-2.9,0.6c-2.9,0-5.9,0-8.8,0
		c-0.5,0-0.6-0.1-0.6-0.6c0-2.2,0-4.4,0-6.6c0-0.4,0.1-0.6,0.6-0.6c1.6,0,3.2,0,5.2,0c1.5,0,3.5-0.1,5.5,0.3c1.6,0.3,2.9,1,3.3,2.8
		C172.2,30.5,171.2,32.3,169.6,32.9z"/>
	<path class="st0" d="M102.4,36.5c4.3,4.7,10.4,7.3,16.8,7.2c1.2-0.1,2.2-0.1,3.2-0.2c5.1-0.5,9.9-2.9,13.4-6.5
		c5.1-5.2,7.1-11.6,5.9-18.8c-1.5-8.5-6.5-14.1-14.6-16.9c-5.4-1.9-11.4-1.7-16.7,0.5c-3.9,1.5-7.2,4.1-9.6,7.5
		c-3.2,4.3-4.6,9.7-3.9,15C97.3,28.8,99.3,33.1,102.4,36.5z M112.3,13.2c4.1-4,11.3-3.5,15,0.8c2,2.3,2.9,4.9,2.9,8.6l0,0
		c0,3.6-1.8,6.9-4.8,8.8c-1,0.7-2,1.1-3.2,1.5c-5.6,1.6-11.5-1.8-13-7.4C107.9,20.9,108.7,16.6,112.3,13.2z"/>
	<path class="st0" d="M261.9,33c-7,0-13.9,0-20.9,0c-0.6,0-0.8-0.1-0.8-0.7c0-1.7,0-3.4,0-5.1c0-0.7,0.1-0.9,0.8-0.9
		c6.2,0,12.4,0,18.6,0c0.7,0,0.8-0.2,0.8-0.8c0-2.5,0-5.1,0-7.6c0-0.6-0.2-0.7-0.8-0.7c-5.2,0-10.4,0-15.7,0c-1.1,0-2.2,0-3.2,0
		c-0.3,0-0.6,0-0.6-0.5c0-1.8,0-3.6,0-5.5c0-0.4,0.2-0.5,0.5-0.5c0.6,0,1.2,0,1.9,0c3.3-0.1,6.6,0,9.8,0c3.1,0,6.2,0,9.4,0
		c0.4,0,0.6,0,0.6-0.6c0-2.9,0-5.8,0-8.7c0-0.5-0.1-0.6-0.6-0.6c-10.8,0-21.7,0-32.5,0c-0.5,0-0.7,0.2-0.7,0.7c0,6.8,0,13.5,0,20.3
		l0,0.1c0,6.8,0,13.5,0,20.3c0,0.5,0.1,0.7,0.6,0.7c10.9,0,21.8,0,32.7,0c0.6,0,0.7-0.2,0.7-0.7v-8.3C262.8,33,262.8,33,261.9,33z"
		/>
	<path class="st0" d="M221.9,33h-20c-0.4,0-0.8,0-1.2,0c-0.3,0-0.4-0.1-0.4-0.4c0-2,0-4,0-5.9c0-0.2,0.1-0.4,0.4-0.4
		c0.6,0,1.2,0,1.9,0l17.2,0c0.5,0,0.7-0.1,0.7-0.7c0-2.5,0-5.1,0-7.6c0-0.9,0-0.9-0.9-0.9c-6.2,0-12.3,0-18.5,0
		c-0.6,0-0.8-0.2-0.8-0.8c0-1.6,0-3.2,0-4.9c0-0.6,0.1-0.8,0.8-0.8c6.2,0,12.5,0,18.7,0c0.8,0,1.5,0,2.3,0c0.4,0,0.5-0.1,0.5-0.5
		c0-1.6,0-3.2,0-4.8c0-1.2,0-2.4,0-3.6c0-0.5-0.1-0.9-0.8-0.9c-10.7,0-21.5,0-32.2,0c-0.6,0-0.8,0.1-0.8,0.7c0,6.8,0,13.5,0,20.2
		l0,0c0,6.8,0,13.5,0,20.3c0,0.5,0.1,0.7,0.6,0.7c10.9,0,21.8,0,32.7,0c0.5,0,0.7-0.1,0.7-0.7c0-2.8,0-5.5,0-8.3
		C222.8,33,222.8,33,221.9,33z"/>
	<path class="st0" d="M41.2,29.4c-4-9.4-7.9-18.8-11.9-28.2c-0.1-0.5-0.6-0.8-1-0.7c-3,0-6,0.1-9,0c-1,0-1.8,0.1-2.1,1.3
		c-0.1,0.3-0.2,0.5-0.3,0.7L9,21.3c-2.9,7-5.9,13.9-8.9,20.9c-0.2,0.5-0.1,0.6,0.4,0.6c3.7,0,7.4,0,11.1,0c0.3,0.1,0.7-0.2,0.7-0.5
		c0.9-2.2,1.8-4.3,2.6-6.4c0.1-0.3,0.4-0.6,0.7-0.5c5.1,0,10.1,0,15.2,0c0.3,0,0.7,0.2,0.7,0.5c0.8,2.1,1.7,4.3,2.6,6.4
		c0.1,0.4,0.4,0.6,0.8,0.5c1.8,0,3.7,0,5.5,0l5.6,0c0.7,0,0.8-0.1,0.5-0.7C44.8,37.9,43,33.6,41.2,29.4z M27.4,26.3
		c-2.8,0-5.5,0-8.3,0c-0.3,0-0.6,0-0.4-0.5c1.5-3.7,3-7.4,4.4-11.1c0.1-0.1,0.1-0.2,0.2-0.3l3.3,8.4c0.4,0.9,0.7,1.9,1.1,2.9
		C28,26.2,27.9,26.3,27.4,26.3z"/>
</g>
</svg>
