<?xml version="1.0" encoding="utf-8"?>
<!-- Generator: Adobe Illustrator 25.1.0, SVG Export Plug-In . SVG Version: 6.00 Build 0)  -->
<svg version="1.1" id="Layer_1" xmlns="http://www.w3.org/2000/svg" xmlns:xlink="http://www.w3.org/1999/xlink" x="0px" y="0px"
	 viewBox="0 0 1368 747" style="enable-background:new 0 0 1368 747;" xml:space="preserve">
<style type="text/css">
	.st0{fill:#FFFFFF;}
</style>
<g>
	<path class="st0" d="M849.8,301.3c2.1,0,4,0,6.7,0c16.9,36.9,33.8,73.9,51,111.5c-6.8,0-12.8,0-19.5,0c-3.8-8.4-7.7-17.2-11.7-26.2
		c-15.8,0-31.6,0-48,0c-4,8.5-8.3,17.3-12.6,26.3c-5.1,0-19.1,0-19.1,0s2.9-6.4,4.3-9.4c15.9-33.5,31.9-67,47.8-100.5
		C848.9,302.6,849.3,302.2,849.8,301.3z M868.9,369.6c-5.6-12.1-10.4-23.8-16.3-35.9c-5.8,12.5-11.1,24-16.6,35.9
		C847.2,369.6,857.7,369.6,868.9,369.6z"/>
	<path class="st0" d="M923.9,414.9c-2-1.5-3.4-2.4-4.7-3.4c-0.5-0.4-0.9-0.9-1.7-1.8c7.9-11.3,15.8-22.6,24.2-34.6
		c-1.9,0.3-3,0.4-4.2,0.7c-25.9,6.2-50.8-13.6-50.7-40.1c0.1-18.8,13.7-35.1,32.8-39.5c21.2-4.8,42.9,8,48.7,28.9
		c3.7,13.1,1,25.1-6.6,36c-10.3,14.7-20.8,29.4-31.1,44C928.5,408.4,926.3,411.5,923.9,414.9z M928.7,369
		c15.5,0.8,33.2-12.3,33-32.9c-0.1-18.5-14.6-32.9-33.3-32.8c-18.8,0.1-33.2,14.5-33,33.1C895.6,357.9,913.7,369.8,928.7,369z"/>
	<path class="st0" d="M800.6,418.5c6.3,2.9,12.2,5.9,18.3,8.5c26.1,11.1,53.4,15,81.5,12.8c16.7-1.3,32.8-5.4,48.3-11.6
		c1.1-0.4,2.2-0.9,3.3-1.1c0,0,0,0,0.1,0c2.5-0.4,3.9,2.8,2,4.5c-0.6,0.6-1.3,1.1-2,1.6c-13.3,9.1-28.1,14.5-43.7,17.5
		c-22.8,4.4-45.4,2.9-67.4-4.8c-14.1-4.9-27.1-11.9-38.5-21.6C800.8,422.8,799.2,421.4,800.6,418.5z"/>
	<path class="st0" d="M957,445.7c0.6-1.9,1-3.3,1.5-4.8c1.3-4.3,2.9-8.5,4-12.8c1.3-5-0.2-7-5.3-7.1c-5-0.1-9.9,0.3-14.9,0.5
		c-0.9,0-1.9,0.1-4.1,0.2c1.3-1.7,4.8-3.9,5.8-4.4c3.4-1.7,4-2.1,7.7-2.7c5.3-0.9,10.8-1.2,15.9,0.3c1.6,0.5,2.8,1.8,3,3.4
		C972,428.4,965,443.7,957,445.7z"/>
</g>
</svg>
