<?xml version="1.0" encoding="utf-8"?>
<!-- Generator: Adobe Illustrator 25.1.0, SVG Export Plug-In . SVG Version: 6.00 Build 0)  -->
<svg version="1.1" id="Layer_5" xmlns="http://www.w3.org/2000/svg" xmlns:xlink="http://www.w3.org/1999/xlink" x="0px" y="0px"
	 viewBox="0 0 850.4 141.7" style="enable-background:new 0 0 850.4 141.7;" xml:space="preserve">
<style type="text/css">
	.st0{fill:#FFFFFF;}
</style>
<g>
	<path class="st0" d="M18.7,29.2c0-0.2,0-0.4,0-0.6c0.4-0.3,0.3-0.6,0-0.9c-0.8-8.1,4-13.4,8.5-15.3c4.5-1.8,8.9-1.4,13.1,1
		c16.4,9.4,32.9,18.8,49.3,28.3c7.5,4.3,15.1,8.7,22.6,13c-0.6,0.1-1.1-0.1-1.7-0.3c-3.6-0.7-7.2-0.7-10.4,1.1
		C95,58.3,90,61.3,84.9,64c-2.3,1.2-4.4,2.8-6.9,3.7C68,62,58.1,56.3,48.1,50.6c-0.4-0.2-0.8-0.7-1.4-0.4c-0.2-0.6-0.8-0.8-1.3-1.1
		c-5.8-3.4-11.7-6.8-17.6-10c-3.9-2.2-7.2-4.8-8.6-9.3C19.2,29.4,19.1,29.2,18.7,29.2z"/>
	<path class="st0" d="M78,67.7c2.5-0.9,4.6-2.4,6.9-3.7c5.1-2.8,10.2-5.7,15.3-8.5c3.3-1.8,6.9-1.8,10.4-1.1
		c0.5,0.1,1.1,0.3,1.7,0.3l0,0c0.2,0.1,0.3,0.2,0.5,0.3c4.6,2,7.2,5.5,8.1,10.3c1,5.4-0.8,10.1-5.2,13.4c-3.9,2.9-8.3,4.9-12.6,7.4
		C84.2,97,65.2,107.9,46.3,118.8c-1,0.6-1.9,1.3-3.1,1.6c3.2-4,4.1-8.6,3.5-13.6c0-0.7,0.1-1.4,0.1-2.1c0-6.5,0.1-13,0.1-19.5
		c0.3-0.1,0.7-0.2,1-0.4c5.3-3,10.6-5.9,15.9-8.9C68.4,73.2,73.3,70.7,78,67.7z"/>
	<path class="st0" d="M46.7,85.1c0,6.5,0,13-0.1,19.5c0,0.7-0.1,1.4-0.1,2.1c-1.2-1.3-1.5-3-2.5-4.5c-4.7-6.7-15.1-7.7-20.9-2.1
		c-2.2,2.1-3.4,4.7-4.4,7.4c0-0.4-0.1-0.7-0.1-1.1c0-25.5,0-51.1,0-76.6c0-0.3,0-0.5,0-0.8c0.4,0,0.5,0.2,0.6,0.6
		c1.3,4.5,4.6,7.1,8.6,9.3c5.9,3.2,11.7,6.7,17.6,10c0.5,0.3,1,0.5,1.3,1.1C46.7,61.8,46.7,73.5,46.7,85.1z"/>
	<path class="st0" d="M169.1,70c0-9,0-18,0-27.1c0-1.3,0.3-1.6,1.6-1.6c6.5,0.2,13-0.2,19.5,0.2c14.4,0.9,25.1,12.1,25.5,26.6
		c0.2,6.1-0.5,12-3.7,17.3c-4.5,7.7-11.4,12-20.1,13c-7.2,0.9-14.5,0.2-21.8,0.4c-1.2,0-0.9-0.8-0.9-1.4
		C169.1,88.2,169.1,79.1,169.1,70z M176.5,70.1c0,6.8,0,13.5,0,20.3c0,0.7-0.1,1.3,1,1.3c4.4-0.1,8.7,0.2,13.1-0.3
		c6.5-0.8,11.7-3.8,15-9.7c2.3-4.1,2.7-8.6,2.6-13.3c-0.4-10.8-6.6-18-17.3-19.6c-4.2-0.7-8.5-0.2-12.7-0.4c-1.2,0-1.6,0.3-1.5,1.5
		C176.5,56.7,176.5,63.4,176.5,70.1z"/>
	<path class="st0" d="M425.2,79.8c0.2-6.8,3.2-12.2,8.7-16.1c1.1-0.8,1.1-1.2,0.3-2.2c-3.3-4.4-4.5-9.2-1.6-14.3
		c2.9-5.2,7.6-7.5,13.5-7.1c5.5,0.4,9.1,3.5,11.3,8.5c0.4,0.9,0.4,1.4-0.6,1.9c-1.6,0.7-3.1,1.6-4.6,2.4c-0.5,0.3-0.8,0.2-1-0.3
		c-0.3-0.7-0.7-1.5-1.1-2.2c-1.9-3.1-5-4-8.1-2.5c-2.8,1.3-4,4.4-3,7.7c0.3,1.1,0.9,2.1,1.6,3c6,7.8,12,15.6,17.9,23.5
		c0.8,1.1,1.2,1,1.8-0.1c1.2-2.1,2.5-4.1,3.7-6.2c0.5-0.8,0.8-1,1.6-0.4c1.2,0.8,2.5,1.6,3.8,2.3c0.9,0.5,1,0.9,0.4,1.8
		c-1.8,2.7-3.5,5.6-5.3,8.3c-0.6,0.9-0.6,1.5,0.1,2.4c1.4,1.7,2.6,3.4,3.9,5.1c0.5,0.6,0.5,1-0.2,1.5c-1.4,1-2.7,2-4.1,3.1
		c-0.7,0.6-1,0.3-1.4-0.3c-0.7-1-1.6-2-2.3-3.1c-0.6-1-1.1-1.2-2.2-0.3C447.2,105,430,99.5,426,85.9
		C425.5,83.7,425.2,81.8,425.2,79.8z M446.1,93.2c3.5,0,6.1-1,8.4-2.9c0.7-0.6,0.8-1.1,0.2-1.9c-4.9-6.5-9.9-13-14.8-19.5
		c-0.5-0.6-0.8-0.7-1.5-0.3c-2.6,1.7-4.5,4-5.6,6.9C429.8,84.3,436.5,93.2,446.1,93.2z"/>
	<path class="st0" d="M831.8,71.3c0,7.1-1.5,13.8-5.5,19.8c-7.9,11.9-25.1,12-33.1,0.1c-3.5-5.2-5.2-11-5.5-17.2
		c-0.4-7.6,0.7-14.8,4.8-21.4c6-9.7,15.9-12,24.6-8.6c6.5,2.5,10.2,7.9,12.6,14.2C831.2,62.4,831.8,66.8,831.8,71.3z M824.1,74.1
		c0-8.5-1-13.9-4.3-18.7c-3.1-4.6-7.8-6.5-13-5.3c-4.1,1-6.7,3.8-8.5,7.4c-3.2,6.2-3.5,12.7-2.6,19.5c0.6,4.2,2,8,4.6,11.4
		c5,6.2,13.8,6.2,18.8,0C823,83.4,824.1,77.5,824.1,74.1z"/>
	<path class="st0" d="M586.6,64.4c-0.4-7.1-0.1-14.2-0.3-21.4c0-1.4,0.4-1.9,1.8-1.8c1.5,0.1,3.1,0.1,4.6,0c0.8,0,1.2,0.2,1.1,1.1
		c0,0.2,0,0.4,0,0.6c0,18,0,36.1,0,54.1c0,1.4-0.4,1.8-1.7,1.7c-1.4-0.1-2.9-0.1-4.3,0c-1,0.1-1.2-0.3-1.2-1.2c0.1-1.3,0-2.6,0-3.9
		c-0.2,0.1-0.4,0.1-0.5,0.1c-5.3,7.6-17.8,8.5-25.1,1.7c-9.8-9-9-26.2,1.7-34.1c7.1-5.2,18.2-4,23.1,2.8c0.1,0.2,0.1,0.4,0.2,0.6
		C586.3,64.6,586.4,64.5,586.6,64.4z M586.5,79.2c0.1-1.9-0.2-3.9-1-5.9c-1.9-4.5-5-7.6-10-8.2c-5.3-0.6-9.4,1.6-11.9,6.2
		c-2.8,5.1-2.8,10.5,0,15.6c4.7,8.3,15.8,8.5,20.8,0.4C586,84.9,586.6,82.2,586.5,79.2z"/>
	<path class="st0" d="M279.6,93.5c0.4,7.1,0.2,13.9,0.3,20.8c0,1.4-0.4,1.9-1.8,1.8s-2.8-0.1-4.1,0c-1.4,0.1-1.7-0.4-1.6-1.7
		c0.1-0.8,0-1.5,0-2.3c0-17,0-33.9,0-50.9c0-1.5,0.4-2,1.9-1.8c1.3,0.1,2.7,0.1,4,0c1-0.1,1.4,0.2,1.3,1.3c-0.1,1.3,0,2.7,0,4
		c0.2,0,0.3,0,0.4,0c7.8-9.3,20.8-8.6,28,1.5c6.6,9.3,4.9,22.6-3.7,30c-6.9,5.9-19,5.1-24.1-2.4C280,93.8,279.9,93.7,279.6,93.5z
		 M304.4,79.2c0-1.5-0.1-3-0.5-4.4c-1.5-5.7-6.1-9.6-11.5-9.7c-6-0.1-10.6,3.4-12.3,9.3c-1,3.4-0.9,6.9,0.2,10.3
		c1.6,4.9,5.8,8.2,10.4,8.5c5.4,0.3,9.8-2.2,12.1-7C304,84,304.5,81.6,304.4,79.2z"/>
	<path class="st0" d="M512.6,87.8c1.5-4.1,2.9-8.2,4.3-12.3c3.8-10.9,7.7-21.8,11.4-32.7c0.4-1.1,1-1.5,2.1-1.4c1.6,0.1,3.2,0,4.8,0
		c1.9,0,1.9,0,1.3,1.8c-5.1,14.1-10.3,28.3-15.4,42.4c-1.5,4-3,8.1-4.4,12.1c-0.3,0.9-0.7,1.2-1.6,1.1c-1.7-0.1-3.4-0.1-5.1,0
		c-1.2,0.1-1.7-0.4-2-1.5c-5.9-17-11.9-33.9-17.8-50.8c-0.5-1.4-0.9-2.7-1.5-4c-0.3-0.8-0.2-1.2,0.8-1.2c1.9,0.1,3.9,0.1,5.8,0
		c1,0,1.4,0.3,1.7,1.3c2.6,7.8,5.2,15.6,7.9,23.4c2.3,6.7,4.5,13.5,6.8,20.2C511.9,86.7,511.9,87.4,512.6,87.8z"/>
	<path class="st0" d="M731.4,69.8c3.1,1.4,5.6,3.3,7.3,6c3.9,6.3,2.3,14.6-3.7,19.8c-8.7,7.5-25.1,6.1-30.4-7.8
		c-0.4-1.1-0.4-1.7,0.9-2.1c1.3-0.4,2.5-0.9,3.7-1.5c1.3-0.7,1.9-0.6,2.5,1c1.4,4,4.2,6.8,8.5,7.6c3.8,0.6,7.2-0.2,10.1-2.9
		c4.9-4.5,3.4-12-2.9-15.1c-2.7-1.3-5.6-1.3-8.4-1.2c-1.5,0.1-2-0.3-1.8-1.8c0.2-1.7-0.7-3.9,0.4-4.8c0.9-0.8,3.1-0.3,4.7-0.4
		c4.9-0.2,8.7-3.4,9.1-7.6c0.4-5.2-3-8.9-8.3-9.1c-5.2-0.2-8.1,1.5-10.2,6.1c-0.3,0.7-0.6,0.9-1.3,0.6c-1.7-0.8-3.5-1.5-5.2-2.2
		c-0.7-0.3-0.8-0.6-0.5-1.3c2.8-6.1,7.5-9.7,14.3-10.3c5.5-0.5,10.5,0.9,14.7,4.8c5.7,5.2,6.3,16.7-2,21.5
		C732.3,69.2,732,69.4,731.4,69.8z"/>
	<path class="st0" d="M760.2,65c8.9-3.3,16.5,1.3,20.6,8.1c4.1,6.8,2.6,16-3.4,21.7c-10.4,9.8-27.2,5.6-31.2-7.8
		c-1.5-5-0.6-9.8,1.5-14.5c1-2.3,2.2-4.5,3.6-6.6c4.9-7.3,9.8-14.6,14.6-22c0.7-1,1.1-1.1,2.1-0.4c1.2,1,2.5,1.8,3.8,2.6
		c0.9,0.6,0.8,1,0.3,1.8c-4,5.4-7.9,10.9-11.8,16.3c-0.1,0.2-0.3,0.4-0.4,0.7c0,0.1,0,0.3-0.1,0.4C759.9,65.1,760.1,65,760.2,65z
		 M764.3,92.9c6.3,0,11.1-4.8,11.1-11c0-6.3-4.9-11.2-11.2-11.2s-11.3,4.9-11.3,11.1C753,88.2,757.8,92.9,764.3,92.9z"/>
	<path class="st0" d="M622.2,80.5c-4.7,0-9.4,0-14.1,0c-1.1,0-1.3,0.3-1.2,1.3c0.5,5.2,4.1,9.5,9,10.9c5.2,1.5,10.2-0.2,13.3-4.8
		c1-1.5,1.8-1.7,3.2-0.8c1.1,0.7,2.4,1.2,3.6,1.7c1,0.4,1,0.8,0.5,1.7c-3.3,5.3-8.1,8.4-14.3,9.3c-11.1,1.6-20.6-5-22.6-16
		c-1.6-8.6,0.3-16.4,7.5-22.1c11.4-8.9,28-2.1,30.2,12.3c0.2,1.6,0.3,3.2,0.4,4.7c0.1,1.3-0.2,1.8-1.7,1.7
		C631.4,80.5,626.8,80.5,622.2,80.5z M618.4,74.4c2.7,0,5.4,0,8.1,0c3.7,0,4-0.4,2.2-3.9c-2.1-4.1-6.6-6.1-12.1-5.4
		c-4.2,0.5-8.1,4.2-9.1,8.4c-0.2,0.9,0.2,0.9,0.8,0.9C611.7,74.4,615,74.4,618.4,74.4z"/>
	<path class="st0" d="M357.3,93.7c-2.7,3.1-5.5,5.5-9.5,6.1c-6.2,1-11.8-0.4-15.8-5.6c-5.6-7.3-1.8-17.4,7.5-20
		c5.6-1.5,11.3-1.4,16.7,0.9c0.9,0.4,1.1,0.2,1.1-0.8c0.2-7-7.8-11.8-15.2-8.4c-1.7,0.8-3,1.9-4.1,3.4c-0.5,0.7-0.9,0.7-1.5,0.2
		c-1.5-1-3.1-2-4.7-3c-0.9-0.5-0.9-0.9-0.3-1.6c3.6-4.5,8.3-6.5,13.9-6.7c2.5-0.1,5,0.1,7.5,0.7c7.1,1.9,11.5,7.5,11.5,14.8
		c0.1,7.9,0,15.8,0,23.7c0,1.2-0.4,1.5-1.5,1.4c-1.4-0.1-2.9-0.1-4.3,0c-1,0.1-1.5-0.2-1.4-1.3C357.4,96.2,357.3,94.9,357.3,93.7z
		 M347.6,79.3c-2.9,0-5,0.5-7,1.9c-2.2,1.5-3.6,3.4-3.3,6.2c0.3,2.7,2,4.3,4.3,5.3c6.4,2.8,15.2-2.5,15.7-9.5c0.1-1-0.3-1.5-1.1-2
		C353.7,79.8,350.9,79.3,347.6,79.3z"/>
	<path class="st0" d="M661.3,100c-11.8,0-20.2-8.6-20.3-20.8c0-12.5,8.4-21,20.7-21.1c11.1,0,20.1,9.1,19.8,21.3
		C681.3,91.4,672.9,100,661.3,100z M674,79.2c0-1.4-0.1-2.7-0.4-4c-2.1-9.7-13.5-13.5-20.8-6.9c-4,3.7-4.8,8.4-4.2,13.5
		c1.1,8.6,9.7,13.8,17.5,10.4C671.7,89.8,673.9,85.1,674,79.2z"/>
	<path class="st0" d="M251.6,100.1c-7.2-0.1-12.6-3.2-16.2-9.5c-0.7-1.3-0.6-2,0.9-2.4c1.3-0.4,2.5-0.9,3.7-1.6
		c1-0.5,1.5-0.4,2.1,0.7c2.8,5.5,8.5,7.6,14,5.4c1.1-0.4,2-1,2.8-1.9c1.4-1.6,1.2-4-0.5-5.6c-1.3-1.3-3-1.9-4.8-2.4
		c-3.4-0.9-6.8-1.5-10-2.8c-3.4-1.4-6.2-3.4-7.3-7.2c-1.4-5.1,0.7-10,5.9-12.5c7.1-3.4,14.1-3.1,20.6,1.6c1.5,1.1,2.6,2.6,3.5,4.2
		c0.5,0.8,0.6,1.3-0.5,1.7c-1.5,0.5-3.1,1.2-4.5,1.8c-0.8,0.3-1.1,0.2-1.6-0.5c-3-4.4-9.4-5.7-13.8-2.9c-3.2,2-3.1,5.2,0.2,7
		c2.5,1.4,5.3,1.7,8.1,2.4c2.7,0.7,5.3,1.4,7.8,2.8c7,3.9,7.4,13.5,1.1,18.1C259.6,99.1,255.8,100.2,251.6,100.1z"/>
	<path class="st0" d="M372.5,116c-0.1-0.8,0.3-1.3,0.6-1.8c2.6-5.6,5.1-11.2,7.7-16.7c0.4-0.9,0.4-1.7,0-2.6
		c-5-11.2-9.9-22.5-14.9-33.7c-0.2-0.5-0.5-1.1-0.7-1.8c2.5,0,4.9,0,7.2,0c1,0,1.1,0.7,1.4,1.4c3.4,8.2,6.8,16.3,10.2,24.5
		c0.3,0.7,0.6,1.4,1,2.4c1.4-3.5,2.8-6.8,4.1-10.1c2.3-5.6,4.6-11.3,6.8-17c0.3-0.8,0.7-1.2,1.7-1.2c2.2,0.1,4.5,0,6.9,0
		c-1.1,2.5-2.1,4.9-3.1,7.2c-7,16-13.9,32-20.9,48c-0.4,1-1,1.5-2.1,1.4C376.5,116,374.5,116,372.5,116z"/>
	<path class="st0" d="M18.7,107.7c1-2.7,2.2-5.3,4.4-7.4c5.9-5.6,16.3-4.6,20.9,2.1c1,1.4,1.3,3.2,2.5,4.5c0.7,5-0.2,9.6-3.5,13.6
		c-3.3,2.9-7.1,4.6-11.6,4.3c-6.8-0.5-12.7-6.6-12.8-13.4C18.7,110,18.7,108.9,18.7,107.7z"/>
	<path class="st0" d="M317,70c0-9,0-18,0-27.1c0-1.3,0.3-1.7,1.6-1.6c1.6,0.1,3.2,0.1,4.8,0c0.9,0,1.2,0.3,1.1,1.2
		c0,0.2,0,0.4,0,0.6c0,18,0,36,0,54c0,1.4-0.3,1.9-1.8,1.8c-1.4-0.1-2.9-0.1-4.3,0c-1.2,0.1-1.5-0.3-1.5-1.4c0-8.3,0-16.6,0-24.9
		C317,71.6,317,70.8,317,70z"/>
	<path class="st0" d="M229.8,79.2c0,6,0,12,0,18c0,1.3-0.4,1.7-1.6,1.6c-1.6-0.1-3.2-0.1-4.8,0c-0.8,0-1-0.2-1-1
		c0-12.4,0-24.8,0-37.2c0-0.9,0.3-1.2,1.1-1.1c1.6,0.1,3.3,0.1,4.9,0c1.1-0.1,1.4,0.3,1.4,1.4C229.7,66.9,229.8,73.1,229.8,79.2z"/>
	<path class="st0" d="M541.5,79c0-6.1,0-12.2,0-18.3c0-1.1,0.3-1.4,1.4-1.4c1.6,0.1,3.2,0.1,4.8,0c1-0.1,1.3,0.3,1.3,1.3
		c0,5,0,10,0,15.1c0,7.2,0,14.4,0,21.5c0,1.3-0.4,1.6-1.6,1.5c-1.5-0.1-3.1-0.1-4.6,0c-1,0.1-1.3-0.3-1.3-1.3
		C541.5,91.3,541.5,85.2,541.5,79z"/>
	<path class="st0" d="M545.1,51.1c-3.1,0-5.1-2.2-5.1-5.3c0-2.9,2.2-5.1,5.1-5.1c3,0,5.2,2.3,5.2,5.2
		C550.4,48.9,548.2,51.1,545.1,51.1z"/>
	<path class="st0" d="M226,51.1c-3.1,0-5.2-2.1-5.1-5.2c0-3,2.2-5.1,5.1-5.2c3,0,5.3,2.2,5.3,5.2C231.2,48.9,229,51.1,226,51.1z"/>
	<path class="st0" d="M18.7,27.7c0.3,0.3,0.4,0.6,0,0.9C18.7,28.3,18.7,28,18.7,27.7z"/>
	<path class="st0" d="M112.7,55c-0.2-0.1-0.3-0.2-0.5-0.3C112.4,54.8,112.6,54.9,112.7,55z"/>
	<path class="st0" d="M760.2,65c-0.1,0-0.3,0.1-0.4,0.1c0-0.1,0-0.3,0.1-0.4C760,64.8,760.1,64.9,760.2,65z"/>
</g>
</svg>
