<?xml version="1.0" encoding="utf-8"?>
<!-- Generator: Adobe Illustrator 25.1.0, SVG Export Plug-In . SVG Version: 6.00 Build 0)  -->
<svg version="1.1" id="layer" xmlns="http://www.w3.org/2000/svg" xmlns:xlink="http://www.w3.org/1999/xlink" x="0px" y="0px"
	 viewBox="0 0 652 652" style="enable-background:new 0 0 652 652;" xml:space="preserve">
<style type="text/css">
	.st0{fill:#FFFFFF;}
</style>
<g id="Symbols">
	<g id="top_navigation_00" transform="translate(-66.000000, -11.000000)">
		<g id="logo_essence">
			<path class="st0" d="M563.6,394.2c-32,0-49.4-20.1-49.4-63.6c0-43.7,21-59.7,49-59.7c33.1,0,40.3,22.6,41.5,38.1h-16.1
				c-1.3-10.9-6.8-24-25.1-24c-19.5,0-33,12-33,45.4c0,35,13.1,49.9,33.1,49.9c18.4,0,23.7-11.7,25.1-25.6h15.9
				C603.4,374.3,594.1,394.2,563.6,394.2 M495,391.3l-54.3-95.2v95.2h-15.1V273.2h20.2l48.9,85.7v-85.7h14.8v118.1 M343.8,391.3
				V273.2h76.3v13.9h-60.7v35h58.2v14.3h-58.2v40.9h60.7v13.9 M209.8,394.2c-34.2,0-44.1-18.4-44.6-37.8h16.3
				c0.5,16,8.2,24.2,28.9,24.2c14,0,23.9-7.4,23.9-21c0-13.9-13.1-17.4-27.8-20.8c-18.9-4.4-40.9-9.5-40.9-36
				c0-22.4,19.8-31.8,39.8-31.8c34.1,0,39.6,19,40.3,30.3h-16.1c-0.6-6-5.6-16.6-24.4-16.6c-11.8,0-23.2,5.7-23.2,17
				c0,16,15.3,18.3,31.5,22.3c18,4.4,37,10,37,35.1C250.7,382.9,232,394.2,209.8,394.2 M86.1,391.3V273.2h76.4v13.9h-60.7v35H160
				v14.3h-58.2v40.9h60.7v13.9 M609.7,391.3V273.2H686v13.9h-60.7v35h58.2v14.3h-58.2v40.9H686v13.9 M298.4,394.2
				c-34.2,0-44.1-18.4-44.6-37.8h16.3c0.5,16,8.2,24.2,28.9,24.2c14,0,23.9-7.4,23.9-21c0-13.9-13.1-17.4-27.8-20.8
				c-18.9-4.4-40.9-9.5-40.9-36c0-22.4,19.8-31.8,39.8-31.8c34.1,0,39.6,19,40.3,30.3h-16.1c-0.6-6-5.6-16.6-24.4-16.6
				c-11.8,0-23.2,5.7-23.2,17c0,16,15.3,18.3,31.5,22.3c18,4.4,37,10,37,35.1C339.3,382.9,320.6,394.2,298.4,394.2"/>
		</g>
	</g>
</g>
</svg>
