<?xml version="1.0" encoding="utf-8"?>
<!-- Generator: Adobe Illustrator 25.1.0, SVG Export Plug-In . SVG Version: 6.00 Build 0)  -->
<svg version="1.1" id="Layer_1" xmlns="http://www.w3.org/2000/svg" xmlns:xlink="http://www.w3.org/1999/xlink" x="0px" y="0px"
	 viewBox="0 0 1368 747" style="enable-background:new 0 0 1368 747;" xml:space="preserve">
<style type="text/css">
	.st0{fill:#FFFFFF;}
</style>
<g>
	<path class="st0" d="M363.2,497.4c0-8.9,0-17.7,0-26.6C363.2,479.7,363.2,488.6,363.2,497.4c0,6.6,0,13.1,0,19.7
		C363.1,510.5,363.2,504,363.2,497.4z"/>
	<path class="st0" d="M171.2,471.6c0,9.5,0,19,0,28.5c0,9.6,0,19.2,0,28.9c0-9.6,0-19.2,0-28.9C171.2,490.6,171.2,481.1,171.2,471.6
		z"/>
	<path class="st0" d="M372.6,345.9c9-15.4,14-32.1,15.6-50c1.1-12.3,0.4-24.4-2.3-36.4c-4.1-18.7-12.2-35.5-24.3-50.5
		c-16.9-20.9-38.5-34.5-64.4-41.4c-12.5-3.4-25.3-4.1-36.3-3.7c-7.2,0-12.4,0-17.7,0c-3.8,0-7.2,1.2-10.2,3.3
		c-6.6,4.7-9.4,13.3-6.8,21c2.3,7,9.4,12.8,17.7,12.6c8.6-0.2,17.2-0.1,25.9,0c8.7,0.1,17.1,1.8,25.3,4.7
		c10.5,3.7,19.9,9.2,28.2,16.6c17.7,15.9,27.1,35.9,28.5,59.5c0.8,12.7-1.6,24.9-6.6,36.5c-8.1,18.9-21.6,33.1-39.9,42.6
		c-12.2,6.3-25.4,8.9-39,9.2c-8,0.2-16,0-24,0c-10.1,0-18.6,10.8-16.8,21.1c1.8,10.2,9.6,15.7,19,15.7c10.7,0,21.5-0.2,32.2-0.6
		c13.9-0.5,27.1-4.4,39.7-9.9c10.5-4.5,20-10.7,28.8-18C356.4,369.3,365.4,358.3,372.6,345.9z"/>
	<path class="st0" d="M529.3,405.5c9-4,13.2-13.7,9.9-23.1c-0.6-1.8-1.4-3.5-2.2-5.2c-7.4-16-14.9-31.9-22.4-47.9
		c-11.7-25-23.3-50-35-75.1c-6-12.8-11.8-25.6-17.8-38.4c-6.6-14-13.1-28.1-19.8-42c-3.7-7.6-12.3-11.2-20.6-9.2
		c-8.3,2-14,9.3-14.5,17.8c0.7,2.5,1.1,5.1,2.1,7.5c7.2,15.8,14.5,31.5,21.8,47.3c6.2,13.2,12.4,26.4,18.6,39.7
		c10.3,22,20.5,43.9,30.7,65.9c5.4,11.7,10.8,23.4,16.2,35c3.1,6.6,6,13.2,9.4,19.6C510.5,406.1,520.6,409.4,529.3,405.5z"/>
	<path class="st0" d="M208.1,387.7c0-34,0-68,0-102c0-14.9,0-29.7,0-44.6c0,14.9,0,29.7,0,44.6C208.1,319.8,208.1,353.7,208.1,387.7
		z"/>
	<path class="st0" d="M172.9,395.9c2.9,7.7,12.1,12.4,20.2,10.6c9.4-2.1,15-9,15-18.8c0-34,0-68,0-102c0-14.9,0-29.7,0-44.6
		c0-19.6,0-39.2,0-58.9c0-10.5-8.9-18.8-19.2-18.3c-10.1,0.5-17.6,8.6-17.6,19.2c0,68.2,0,136.5,0.1,204.7
		C171.3,390.6,172,393.4,172.9,395.9z"/>
	<path class="st0" d="M627.3,195.4c1.9-4.1,4.2-8,3.8-12.5c0-9.3-5.5-16.4-14.2-18.4c-8.3-1.9-16.9,2.2-20.6,9.9
		c-5.6,11.7-11.1,23.5-16.5,35.3c-9.8,20.9-19.5,41.9-29.3,62.8c-5.7,12.2-11.5,24.4-17.1,36.7c-1.4,3.1-2.7,6.7-2.6,10
		c0.1,7.2,3.5,13,10.2,16.3c6.5,3.2,12.8,2.6,18.8-1.3c3.1-2,4.9-4.8,6.4-8.1c12.3-26.4,24.6-52.7,36.9-79.1
		C611.2,229.8,619.3,212.6,627.3,195.4z"/>
	<path class="st0" d="M193.2,466.2c-5.5-0.1-11,0-16.5,0c-4.7,0-5.5,0.7-5.5,5.4c0,9.5,0,19,0,28.5c0,9.6,0,19.2,0,28.9
		c0,5,0.7,5.7,5.5,5.7c5.5,0,11,0.1,16.5,0c14.8-0.3,22.4-8.5,23.7-22.3c0.8-7.9,0.8-16,0-23.9C215.7,475.2,208.5,466.5,193.2,466.2
		z M210.2,513.2c0,0.2-0.1,0.5-0.1,0.7c-2.1,9.8-7.5,14.3-17.6,14.4c-3.7,0.1-7.5,0.1-11.2,0c-2.9-0.1-3.2-0.3-3.2-3.2
		c-0.1-8.2,0-16.5,0-24.7c0-8.1,0-16.2,0-24.3c0-3.5,0.2-3.7,3.6-3.7c5.5,0.1,11,0.1,16.4,0.8c5.3,0.6,8.9,4,10.5,9
		c1.2,3.8,2.2,7.7,2.3,11.7C211,500.3,210.4,506.8,210.2,513.2z"/>
	<path class="st0" d="M338.3,484.9c-5.6-0.3-10.6,1.1-15.3,5.6c0-4.3,0-7.9,0-11.5c0-3.5,0-7-0.1-10.5c0-1.7-0.8-2.9-2.6-3
		c-1.9-0.1-3.1,0.9-3.4,2.8c-0.2,0.8-0.1,1.7-0.1,2.6c0,19.5,0,38.9,0,58.4c0,1-0.1,2.2,0.3,2.9c0.6,0.9,1.8,2.2,2.6,2.1
		c1.1-0.1,2.2-1.2,3.1-2.1c0.5-0.5,0.4-1.4,0.6-2.4c8.3,8.9,27.2,7.4,30.8-8.4c1.7-7.6,1.7-15.4,0-23
		C352.3,490.6,346,485.4,338.3,484.9z M348,519.6c-1.3,6.3-6.5,10-13.3,9.6c-6-0.4-10.2-4.5-11.2-10.7c-0.8-5.6-0.8-11.2,0-16.8
		c1-6.3,5.1-10.3,11.2-10.5c7.3-0.3,11.8,2.9,13.2,9.5c0.7,3.2,0.8,6.4,1.2,9.7C348.8,513.4,348.7,516.6,348,519.6z"/>
	<path class="st0" d="M469,468.6c-0.2-1.1-1-2.6-1.8-2.8c-1.1-0.2-2.7,0.4-3.5,1.2c-0.8,0.8-1.1,2.2-1.5,3.4
		c-5.5,16.2-11,32.4-16.5,48.6c-0.3,1-0.8,2-1.5,3.7c-0.7-1.8-1.2-2.9-1.6-4c-5.6-16.2-11.1-32.3-16.7-48.5
		c-0.3-0.8-0.5-1.7-0.9-2.4c-1-2-2.6-2.7-4.2-1.9c-1.7,0.8-2.3,2.2-1.8,4c0.4,1.2,0.7,2.4,1.1,3.6c6.5,18.7,13,37.5,19.5,56.2
		c0.8,2.2,1.1,5,4.2,5c3.2,0,3.9-2.6,4.7-5c6.6-19.2,13.3-38.5,19.9-57.7C468.8,470.8,469.2,469.6,469,468.6z"/>
	<path class="st0" d="M500.1,489.7c-5.9-5.4-13.1-6.1-20.4-3.5c-6.8,2.4-10.3,7.8-11.4,14.6c-0.7,4-0.9,8.2-0.7,12.3
		c0.3,5.6,1.2,11.2,5,15.8c6.1,7.2,18.4,8.7,27.1,3.2c1.9-1.2,3.5-2.8,5-4.4c1.2-1.3,1.1-2.8-0.2-4c-1.2-1.2-2.5-1-3.7-0.1
		c-0.6,0.4-1.2,0.9-1.7,1.5c-2.3,2.3-5.2,3.4-8.3,4c-9.3,1.6-16.7-4.5-16.6-13.6c0.1-2.9,0.3-3.2,3.2-3.3c4.1-0.1,8.2,0,12.4,0
		c0,0,0,0,0,0c4.1,0,8.2,0,12.4,0c2,0,4-0.5,4.2-2.8C506.9,502,505.8,494.9,500.1,489.7z M497.6,506c-6.6,0-13.3,0.1-19.9,0
		c-3.1,0-3.4-0.5-3.4-3.5c0.2-5.5,5.1-11.3,11.6-11.6c8.8-0.3,14.4,4.9,14,14.7C499,505.8,498.3,506,497.6,506z"/>
	<path class="st0" d="M401.1,484.9c-9.3,0.1-16,5.3-17.8,14.5c-1,4.7-1.3,9.7-1.2,14.5c0.2,5.4,1.2,10.7,4.9,15
		c7.4,8.5,23,8.6,30.9,0.2c2.1-2.2,2.5-3.8,1.3-5.2c-1.3-1.5-3-1.3-5.4,1c-2.4,2.2-5.1,3.5-8.3,4.1c-9.4,1.7-17-4.4-16.8-13.6
		c0.1-2.8,0.3-3.2,3.3-3.2c4-0.1,8,0,12,0c0,0,0,0,0,0c4.2,0,8.5,0.1,12.7,0c3.2-0.1,4.4-1.1,4.2-4.3c-0.1-3-0.4-6-1.1-8.9
		C417.7,489.9,410.7,484.8,401.1,484.9z M414.4,505.7c-0.9,0.1-1.9,0.4-2.8,0.4c-6.4,0-12.7,0.1-19.1,0c-3.4,0-3.9-0.6-3.6-4
		c0.4-4.9,4.7-11.2,12.8-11.1C408.4,491,414.9,495.3,414.4,505.7z"/>
	<path class="st0" d="M263.6,503.8c-0.6-10-6.5-16.9-15.8-18.6c-9.7-1.8-18.9,3.2-21.6,11.9c-2.6,8.3-2.6,16.7-0.2,25.1
		c2.3,8,8.4,12.7,17.2,13.1c6.9,0.3,14.5-2.3,18.3-10.5c2.2-4.8,2.4-9.9,2.2-15C263.6,507.8,263.7,505.8,263.6,503.8z M256.1,520.9
		c-1.6,5.3-5.9,8.2-11.6,8.3c-5.6,0.1-10.3-2.6-12-7.7c-2.6-7.7-2.7-15.5,0.2-23.1c2-5.2,6.1-7.4,12.3-7.2c5.3,0.2,9.4,3.1,11.1,8
		c0.5,1.4,1,2.9,1.1,4.3c0.3,2.2,0.3,4.5,0.4,6.7c0.1,0,0.3,0.1,0.4,0.1C257.3,513.8,257.1,517.5,256.1,520.9z"/>
	<path class="st0" d="M629.2,486c-0.8-0.3-2.2,0.1-3,0.7c-0.8,0.7-1.2,1.9-1.6,2.9c-1.1,2.7-2,5.4-3,8.1c-3.2,8.5-6.4,17-9.6,25.5
		c-0.2,0-0.5-0.1-0.7-0.1c-4.1-10.6-8.1-21.2-12.2-31.8c-0.5-1.4-1.1-2.8-1.8-4.1c-0.8-1.5-2.3-2-3.8-1.3c-1.6,0.7-2.1,2-1.7,3.7
		c0.2,0.7,0.5,1.4,0.8,2.1c4.4,11.3,8.8,22.6,13.2,33.8c3,7.5,3,7.5-0.1,14.4c-1.5,3.2-3.3,5.9-7.4,5.9c-0.5,0-1,0.2-1.4,0.4
		c-1.4,0.6-2.4,1.4-2.1,3.1c0.3,1.5,1.3,2.3,2.9,2.5c3.7,0.4,7.1-0.2,9.4-3.3c1.6-2.2,3.3-4.5,4.3-7c6.4-16.4,12.7-32.8,19-49.2
		c0.5-1.3,0.9-2.7,0.8-4C630.9,487.5,630,486.3,629.2,486z"/>
	<path class="st0" d="M307,488.1c-0.4-2.1-2.6-3.1-4.3-1.9c-0.9,0.7-1.5,2-1.7,3.1c-0.3,2.2-0.1,4.5-0.1,6.7c0,7,0.1,14-0.1,21
		c-0.2,7.5-5.5,12.3-12.9,12.1c-6.7-0.1-10.7-4.5-10.9-12.1c0-0.9,0-1.7,0-2.6c0-7.5,0-15,0-22.5c0-1,0-2-0.1-3
		c-0.3-2.1-1.6-3.3-3.4-3.2c-2.1,0.2-2.7,1.6-2.7,3.4c0,10.4-0.2,20.8,0.1,31.1c0.3,7.9,5.4,13.1,13,14.7c6.1,1.2,11.3-0.5,16.6-4.5
		c0.6,2.4,1.3,4.5,3.9,4c2.6-0.5,2.6-2.7,2.6-4.7c0-0.2,0-0.5,0-0.7c0-12.6,0-25.2,0-37.9C307.1,490.1,307.2,489,307,488.1z"/>
	<path class="st0" d="M566.4,491.8c0,4,0,8,0,12c0,5.5,0,11,0,16.5c0-5.5,0-11,0-16.5C566.4,499.8,566.4,495.8,566.4,491.8z"/>
	<path class="st0" d="M581.2,471.7c1.8-0.1,3.3-0.6,3.4-2.7c0.1-2.2-1.5-3.2-3.3-3.3c-3.5-0.1-7.2-0.1-10.1,2.1
		c-1.6,1.2-2.9,3.1-3.6,5c-0.8,2.2-1,4.6-1.1,7c-0.1,4-0.1,8-0.1,12c0,4,0,8,0,12c0,5.5,0,11,0,16.5c0,2.9,0,5.7,0,8.6
		c0,0.7,0,1.5,0.1,2.2c0.3,2.2,1.6,3.6,3.2,3.4c1.9-0.2,2.8-1.5,2.8-3.4c0.1-2.1,0-4.2,0-6.4c0-9,0-18,0-27c0-6.3-0.6-6,5.8-6
		c1,0,2,0,3-0.1c1.8-0.2,3.1-1.1,3.1-3c0-2.1-1.5-2.7-3.3-2.8c-2-0.1-4-0.1-6-0.1c-1.9,0-2.7-0.9-2.6-2.7c0-0.6,0-1.2,0-1.9
		C572.7,472.1,574.6,472.1,581.2,471.7z"/>
	<path class="st0" d="M375.3,528.8c-0.4-0.4-1.2-0.3-1.8-0.3c-2.6-0.2-3.7-1.8-4-4.1c-0.2-1.2-0.1-2.5-0.1-3.7c0-16.6,0-33.2,0-49.8
		c0-3.5-0.9-5.1-2.9-5.2c-2.2-0.1-3.3,1.5-3.3,5.2c0,8.9,0,17.7,0,26.6c0,6.6,0,13.1,0,19.7c0,2.2,0,4.4,0,6.5c0,2,0.3,4,1,5.9
		c1.3,3.9,7.6,6.5,11.2,4.8c0.9-0.4,1.9-1.8,1.9-2.8C377.3,530.6,376.2,529.6,375.3,528.8z"/>
	<path class="st0" d="M541.5,487.2c-2.2-0.9-4.4-1.9-6.7-2.1c-5.4-0.6-10,1.5-13.6,6c-0.1-0.6-0.3-1-0.3-1.3c0-2-0.3-3.9-2.9-3.9
		c-2-0.1-3.1,1.3-3.3,4.1c0,0.4,0,0.7,0,1.1c0,12.7,0,25.5,0,38.2c0,0.9,0,1.8,0.2,2.6c0.3,1.7,1.4,2.7,3.1,2.7
		c1.7-0.1,2.7-1.1,2.9-2.8c0.1-0.9,0-1.7,0-2.6c0-6.9-0.2-13.7,0.1-20.6c0.1-3.3,0.5-6.8,1.5-9.9c2-6.3,6.9-8.7,13.3-6.9
		c1.2,0.3,2.4,0.8,3.6,1c1.6,0.3,3.1,0.1,3.7-1.7C543.7,489.2,543,487.8,541.5,487.2z"/>
	<path class="st0" d="M556.2,510.3c0,6.2,0,12.5,0,18.7C556.2,522.7,556.2,516.5,556.2,510.3c0-2.1,0-4.2,0-6.4
		C556.2,506,556.2,508.1,556.2,510.3z"/>
	<path class="st0" d="M556.2,503.9c0-5,0-10,0-15c0-1.7-0.6-3-2.5-3.1c-1.9-0.2-3.1,0.8-3.5,2.7c-0.2,1-0.2,2-0.2,3
		c0,12.5,0,25,0,37.5c0,1.1-0.2,2.5,0.3,3.3c0.6,1,1.9,2,3,2.2c1.4,0.2,2.6-0.8,2.8-2.4c0.1-1,0.1-2,0.1-3c0-6.2,0-12.5,0-18.7
		C556.2,508.1,556.2,506,556.2,503.9z"/>
	<path class="st0" d="M553.2,465.5c-2.6,0-4.7,2.2-4.6,4.8c0.1,2.4,2.3,4.3,4.7,4.3c2.4-0.1,4.3-2.1,4.3-4.7
		C557.6,467.3,555.8,465.5,553.2,465.5z"/>
	<path class="st0" d="M178,500.5c0-8.1,0-16.2,0-24.3C178,484.2,178,492.4,178,500.5c0,8.2,0,16.5,0,24.7
		C178,516.9,178,508.7,178,500.5z"/>
</g>
</svg>
