<?xml version="1.0" encoding="utf-8"?>
<!-- Generator: Adobe Illustrator 25.1.0, SVG Export Plug-In . SVG Version: 6.00 Build 0)  -->
<svg version="1.1" id="Layer_1" xmlns="http://www.w3.org/2000/svg" xmlns:xlink="http://www.w3.org/1999/xlink" x="0px" y="0px"
	 viewBox="0 0 93 36" style="enable-background:new 0 0 93 36;" xml:space="preserve">
<style type="text/css">
	.st0{fill-rule:evenodd;clip-rule:evenodd;fill:#FFFFFF;}
</style>
<desc>Created with Sketch.</desc>
<g id="Exports">
	<g id="Moat.com-Exports" transform="translate(-301.000000, -196.000000)">
		<g id="Logos-_x2F_-Moat" transform="translate(301.000000, 196.000000)">
			<path id="Combined-Shape" class="st0" d="M41.5,0.3c-3.1,0-5.6,1-7.8,3.2C31.5,5.6,30.5,8,30.5,11c0,3.4,1.2,6,3.5,8.1
				c2.1,1.9,4.6,2.8,7.3,2.8c3.1,0,5.7-1,7.8-3.1c2.2-2.1,3.2-4.6,3.2-7.6c0-3-1.1-5.5-3.2-7.6C47,1.4,44.5,0.3,41.5,0.3 M47.8,17.5
				c-1.7,1.7-3.9,2.6-6.4,2.6c-2.3,0-4.4-0.9-6.2-2.6c-1.8-1.7-2.7-3.9-2.7-6.5c0-2.5,0.9-4.7,2.6-6.4C36.8,2.9,38.9,2,41.4,2
				c2.5,0,4.7,0.9,6.4,2.6c1.7,1.7,2.6,3.9,2.6,6.4C50.4,13.6,49.5,15.8,47.8,17.5 M2.3,21.8h-2L3.6,0.3l0,0l9.1,17l9.1-17l0,0
				L25,21.8h-2L20.7,6.4l-8,15.1l-8-15.1L2.3,21.8z M92.8,2.3h-5.1v19.6h-2V2.3h-5.1V0.3h12.2V2.3z M58.9,21.8l3.4-7.2h9.1l3.4,7.2
				H77L67.8,2.5l-1-2.1L66,2.2l-9.2,19.7H58.9z M66.8,4.9L66.8,4.9l3.7,7.8h-7.3L66.8,4.9z"/>
		</g>
	</g>
</g>
</svg>
