<?xml version="1.0" encoding="utf-8"?>
<!-- Generator: Adobe Illustrator 25.1.0, SVG Export Plug-In . SVG Version: 6.00 Build 0)  -->
<svg version="1.1" id="layer" xmlns="http://www.w3.org/2000/svg" xmlns:xlink="http://www.w3.org/1999/xlink" x="0px" y="0px"
	 viewBox="0 0 652 652" style="enable-background:new 0 0 652 652;" xml:space="preserve">
<style type="text/css">
	.st0{fill:#FFFFFF;}
</style>
<g>
	<path class="st0" d="M725.5,246.7h-12.6h-25.5h-0.2h-216v-0.2h216h0.1v-87.4h-0.1H496.7h-25.5V76H471H348.4v58h-0.1h-25.7h-68.7
		v77.4h-0.1h-27.9h-0.2V101v-0.1H83.4v76.8H57.9H-56.3V221v25.5v0.2h-37.9v165.2v0.2H83.4v44.6H141v-0.2v-44.4h0.1v44.4v0.2v25.5
		v24.2h181.8h25.5V576h0.2h122.6v-63.6v-25.7h25.7h190.3h0.1v-74.6h0.1h25.5h12.6h0.2V246.7H725.5z M598.2,278.4h0.1H611h0.1
		l0.4,31.5c1.1,0,12.2,0,22,0c0,0,0.1,0,0.1,0c13.2,0,24.4,7.7,24.5,25.6v43.3h-12.8v-0.1h-0.1v-39.8c0-6.3-1.8-10.6-4.6-13.3
		c-2.8-2.7-6.7-3.9-10.7-3.9c-10.7,0-18.8,6.7-18.8,22.3v34.7h-12.8v-0.1h-0.1V278.4z M539.7,311.3h14.8v-18.8h12.8v0.2h0.1v18.6
		h18.1v0.2h0.1v11.1h-18.1v30.2c0,7.5,0,15.4,9.6,15.4c3,0,6.6-0.4,9-2.1v0.7c0,0,0.1,0,0.1-0.1v11.6c-3,1.7-8.8,2.3-11.4,2.3
		c-6.8,0-11.3-1.5-14.3-3.8c-5.8-4.4-6-12.1-6-19.3v-34.9h-14.6v-0.2h-0.2V311.3z M507.5,320.7c-1.6-0.4-3.3-0.7-5.3-0.7
		c-9.7,0-14.4,4.1-19.1,7.7l-0.2-0.2c0,0-0.1,0.1-0.1,0.1l-7.7-7.9c7.1-6.8,17.3-9.9,26.6-9.9c5.6,0,10.4,0.9,14.2,2.4
		c9.8,3.7,14.1,11.7,14.3,20.1v34.3c0,4.7,0,12.2,0,12.2h-10.7h-0.8c0,0-13.5,0-23.6,0c-4.3,0-8.4-0.6-11.9-2
		c-6.9-2.6-11.7-7.9-11.7-16.5c0-17.3,16.5-23.3,36.9-23.3h9.4v-2.8C517.8,328.6,514.4,322.7,507.5,320.7z M461.7,378.7L461.7,378.7
		H448h0v-82.5h-0.2l0,0.1l-33.9,82.4h-0.1h-8.9h-0.1l-33.9-82.5h-0.4v82.5H357h-0.2V278.4h0.2h20.1h0.2l31.8,75.9h0.5l31.7-75.9h0.1
		h20.2h0.1V378.7z M167.8,345.1c0-13.2,5.8-24.3,15.6-30.3c1.4-0.9,2.9-1.6,4.4-2.3c1-0.4,2.1-0.8,3.2-1.2c2.2-0.7,4.6-1.1,7-1.4
		c1.2-0.1,2.5-0.2,3.8-0.2h0c0.6,0,1.2,0,1.8,0.1c0.1,0,0.2,0,0.2,0c8.9,0.6,17.2,4.7,21.3,11.2h0.4h0v-42.7v-0.1h12.8v0.1v100.3
		h-12.8h0h-0.4c0,0-14.3,0-23.4,0h0c-1.3,0-2.6-0.1-3.8-0.2c-1.9-0.2-3.7-0.4-5.4-0.8c-0.6-0.1-1.1-0.3-1.7-0.4
		c-1.1-0.3-2.2-0.7-3.2-1.1c-0.5-0.2-1-0.4-1.5-0.6c-1.5-0.7-2.9-1.4-4.3-2.3C173,367.6,167.8,357.5,167.8,345.1z M255.2,311.6h12.7
		h0.1v67.1h-0.1h-12.7h-0.1L255.2,311.6L255.2,311.6z M255.1,300.7v-12.8h0.1v0H268v12.8h-0.1v0H255.1z M339.8,366.4h-0.1v0.1
		c0,4.7,0,12.2,0,12.2h-0.1c0,0.1,0,0.1,0,0.1h-10.7h-0.8c0,0-13.3,0-23.4,0c-12.6,0-23.3-5.5-23.3-18.4c0-6,2-10.6,5.4-14.1
		c6.5-6.7,18.2-9.3,31.6-9.3h9.3v-2.7c0-7-5-14.3-15.9-14.3c-9.7,0-14.4,4.1-19.1,7.7l-7.7-7.9c0,0,0.1-0.1,0.1-0.1l0,0
		c7.1-6.8,17.3-9.9,26.6-9.9c19.9,0,28.1,10.7,28.1,22.3V366.4z M64.1,296.2l-34,82.5h-9l-33.9-82.5H-13v82.5h-13.7V278.4h20.2
		l31.9,75.9H26l31.7-75.9h20.2v100.3H64.4h-0.2L64.1,296.2L64.1,296.2z M126.5,380.5c-17.3,0-29.3-10.1-33.2-24.8
		c-0.9-3.4-1.4-7-1.4-10.8c0-20.1,14.6-35.3,34.7-35.3c23.6,0,32.8,18.2,32.8,35.4l0,0.3c0,0.1,0,0.2,0,0.3v4.5h-53.8
		c0,2.5,0.5,4.9,1.4,7c3.4,7.6,12,12.2,21.2,12.2c7.9,0,13.5-3.9,18.4-10.1l9.6,7.3c0,0-0.1,0.1-0.1,0.1l0.2,0.2
		C149.2,376,139.4,380.5,126.5,380.5z"/>
	<path class="st0" d="M126.3,320c-0.4,0-0.8,0-1.2,0c-0.1,0-0.1,0-0.2,0c-11.7,0.7-19.3,10.6-19.5,19.3c0,0.1,0,0.1,0,0.2h40.3
		C145.4,328.4,139.2,320,126.3,320z"/>
	<path class="st0" d="M321,346.3c-0.1,0-0.1,0-0.2,0c-11.2,0-24.8,2-26.4,11c0,0,0,0,0,0c0,0.2-0.1,0.5-0.1,0.8c0,0.1,0,0.1,0,0.2
		c0,0.3,0,0.6,0,1c0,1,0.1,1.9,0.3,2.7c0.2,0.8,0.4,1.6,0.8,2.3c0.8,1.7,2.1,3,3.9,4c0.7,0.4,1.5,0.7,2.3,1c2.1,0.7,4.5,1,7.2,1
		c14.2,0,19.1-10.5,19.1-19.5l0.1-4.3h-0.1H321z"/>
	<path class="st0" d="M203.6,368.4c13.7,0,22.1-9.8,22.1-23.4c0,0,0,0,0,0c0-2.3-0.3-4.6-0.8-6.7c0-0.2-0.1-0.4-0.1-0.5
		c0,0,0,0,0-0.1c-1.3-4.8-3.8-8.8-7.3-11.6c-3.6-2.9-8.3-4.5-13.9-4.5c-13.7,0-22.1,9.7-22.1,23.4c0,0,0,0,0,0
		C181.5,358.6,189.9,368.4,203.6,368.4z"/>
	<path class="st0" d="M511,346.3c-4.8,0-10.1,0.4-14.6,1.5c-6.7,1.7-11.8,5-11.8,11.3c0,7.7,5.6,10.9,14.4,10.9c0,0,0,0,0,0
		c14.2,0,19.1-10.5,19.1-19.5h0.1v-4.3H518h-6.6C511.3,346.3,511.1,346.3,511,346.3z"/>
</g>
</svg>
