<?xml version="1.0" encoding="utf-8"?>
<!-- Generator: Adobe Illustrator 25.1.0, SVG Export Plug-In . SVG Version: 6.00 Build 0)  -->
<svg version="1.1" id="Layer_1" xmlns="http://www.w3.org/2000/svg" xmlns:xlink="http://www.w3.org/1999/xlink" x="0px" y="0px"
	 viewBox="0 0 1368 747" style="enable-background:new 0 0 1368 747;" xml:space="preserve">
<style type="text/css">
	.st0{fill:#FFFFFF;}
</style>
<g>
	<path class="st0" d="M668.7,326.1c0-0.8-0.6-1.4-1.4-1.4c-0.8,0-1.4,0.6-1.4,1.4c0,0.8,0.6,1.4,1.4,1.4
		C668.1,327.5,668.7,326.9,668.7,326.1z"/>
	<path class="st0" d="M679.6,353.5c-0.6,0-1,0.1-1,0.1c0.2,0.5,0.5,2,0.5,2c0.9,0.1,2.3,0.6,5.1,0.6c2.1,0,3.5-0.3,4.6-0.7
		c1.1-0.4,2-0.9,2.6-1.4c0.6-0.5,1-1,1.6-1.3c0.6-0.3,1.3-0.4,2.2-0.4c1.3,0,2.7,0.4,3.7,1l0.1-1.9c-0.7-0.3-3.1-1.2-5.3-1.2
		c-2.4,0-3.3,0.7-4.2,1.5c-1,0.9-2.4,2.1-5.9,2.1C682.8,353.8,680.5,353.5,679.6,353.5z"/>
	<path class="st0" d="M665,352.6c0.4,0,1.7,0.4,1.7,0.4c1.9-1.6,4.7-2.5,6.6-2.5c0.7,0,2.8,0.3,5.2,0.6c1.4,0.1,2.8,0.2,4.2,0.2
		c2.7,0,5.7-1.3,8.3-2.6l-0.5-1.9c-1.2,0.7-3.6,1.4-5.5,1.7c-0.5,0.1-1.9,0.1-2.3,0c-0.7-0.1-1.4-0.3-2.3-0.5
		c-1.2-0.2-2.5-0.3-3.3-0.3c-0.8,0-2.4,0.1-3.1,0.2c-2.7,0.2-4.6,0.8-6.3,2C666.9,350.4,665.8,351.4,665,352.6z"/>
	<path class="st0" d="M644.1,355.2c-0.3,0.3-0.6,0.6-1.5,1.1c-0.4,0.3-1.1,0.7-1.6,0.9c-0.8,0.3-1.2,0.4-1.5,0.4
		c-0.3,0-0.8,0-1.1-0.3l-2.1,1.3c0.6,0.5,1.4,0.7,2.6,0.7c1.4,0,2.5-0.3,3.9-0.8c1.8-0.7,3.8-2.1,4.4-2.5c1.4-0.8,2.7-1.3,4.2-1.3
		c1.3,0,2.7,0.8,4.4,1.5c1.9,0.9,4.3,1.8,6.4,1.8c1.3,0,2.7-0.2,4.3-0.5c2.7-0.5,5.6-1.5,8.4-2.4l-0.9-1.7c-0.7,0.3-3.1,0.9-5.6,1.5
		c-2.1,0.5-4.2,0.9-5.4,0.9c-0.9,0-2-0.1-2.9-0.4c-1.6-0.5-3.1-1-3.1-2.3c0-0.9,0.4-1.5,1.5-2c1.8-0.7,4.5-0.7,6-0.7
		c0.3-0.3,1.4-1.6,1.4-1.6c-0.7-0.2-2.1-0.4-3.5-0.4c-1.8,0-3.5,0.2-4.9,0.8c-1.3,0.5-2.3,1.3-3,2.4c-0.3,0.4-0.6,0.8-1,0.8
		c-0.7,0-2-0.6-3.3-0.6c-0.6,0-1.1,0.1-1.6,0.1c-1.3,0-3.1-1-4.7-1.8c-1-0.5-2-1-3.2-1c-0.5,0-1.2,0.1-1.8,0.4
		c-1.1,0.5-2.3,1.3-2.9,1.7l1,0.7c0.6-0.3,1.7-0.8,3.3-0.8c1.3,0,1.9,0.4,2.6,0.9c0.5,0.3,0.9,0.7,1.3,1
		C644.9,354,644.7,354.7,644.1,355.2z"/>
	<path class="st0" d="M728.2,360.5c-2.5-2.4-4.9-4.7-6.8-6.8c-5.9-6.6-14-19.1-16.8-26.1c-1-2.6-3.1-1.7-2,0.9
		c2.6,6.4,8.6,15.8,14.9,23.5c-1.5-0.6-3.3-1.5-4.3-2c-0.3,0.5-1.2,1.6-2,2.5c-1,1-2,1.9-2.3,2.1c-0.7,0.6-1.2,0.7-1.7,0
		c-0.2-0.3-0.7-0.9-0.9-2l-1.3-1.7c-0.7-0.9-4.1-5.5-5.1-7c-1-1.5-2.4-3.2-4.5-3.2c-2.7,0-3.6,2.9-3.8,5.6l1.8-0.8
		c0.4-1.7,1.2-2.5,2-2.5c0.6,0,1.3,0.8,1.3,1.4c-0.3,0.7-0.7,2.2-0.9,3.4l1.7,0.6c0-0.8,0.4-2.4,0.8-3.2c0,0,0.5,0.4,0.7,0.7
		c0.1,0.2,1,1.5,2,3.3c0.9,1.6,1.9,3.5,2.8,5c0.4,0.7,0.9,1.4,1.3,1.9c0.4,0.7,0.9,1.2,1.3,1.4c0.4,0.2,0.8,0.2,1.2,0.2
		c1.1,0,1.6-0.4,2.4-1c1.4-1.2,2.7-2.9,3.9-4.5l3,1.4c1.1,0.5,2.4,1.1,3.5,1.6c1.5,1.7,3.2,3.4,4.9,5.1c0.1,0,0.2,0,0.2,0
		L728.2,360.5z"/>
	<path class="st0" d="M732.1,366.7c0.1,0.1,0.3,0.2,0.4,0.4l2.3-0.7c-0.9-0.8-1.8-1.5-2.7-2.3V366.7z"/>
	<path class="st0" d="M740.8,362.4c-6.2-4-15-12.9-18.9-19.9l-2.1-0.2c3.7,6.9,10.6,14.7,18.2,20.5c0.2-0.1,0.4-0.2,0.7-0.2
		C738.8,362.6,739.6,362.5,740.8,362.4z"/>
	<path class="st0" d="M709.4,346.4c-1.5-1.4-6.1-7.5-8-10.9c-4.3-7.8-2.6-11.8-5.2-15.3c-2.4-3.3-9.4-1.7-9.4-1.7l2.6-3.6l-4.4,0.5
		l2-2.5c0.4-0.6,0.5-1,0.7-1.6c0.9-3.2,3.1-6.3,7.5-6.3c5.3,0,6.8,4,10.4,7.2c3.7,3.3,11.4,9.5,18.5,17.6
		c5.5,6.3,12.5,20.6,18.1,32.3c0.7-0.1,1.4-0.1,2.3-0.2c-4.9-10.5-10.9-22.5-16.1-30.1L727,330c-1.9-2.6-4-4.8-6.1-6.9l-1.6-1.6
		c-4-3.9-8.5-7.8-12-10.6c-3-2.4-5.2-8.1-12.1-8.1c-6.3,0-8.4,4.3-9.1,6.7c-0.5,1.6-0.7,2.2-1.1,2.8l-4,4.7l4.7-0.4l-2.4,3.9
		c1.4-0.3,9.6-1.9,11.3,0.7c2.1,3.2,0.7,6.7,4.5,14l1.7,2.9c1.9,3.1,4.2,6.1,6.2,8.5l-1.9,4.1l1.3,1.7L709.4,346.4z"/>
	<path class="st0" d="M727.5,316.5c1.5-2.4,2.8-5.2,3.3-8.6l2.9,0.3c-1.2,2.2-2.5,5.6-2.6,7.8c0.1,1.5,0.4,1.8,1.1,2.4
		c1.4,1.1,3.2,0.4,4.9-1.1c1.9-1.6,3.7-4.3,5.6-6.7l2.4,2c-3.1,1.9-3.9,3.9-3,5.3c0.4,0.5,1.2,0.9,2.1,0.9c1,0,2.1-0.3,3.4-0.6
		c0.9-0.2,1.8-0.5,2.7-0.8v3.2c-7,0.5-18.9,3.3-23.4,9.3l1.4,1.9c0.4-0.6,0.9-1.2,1.4-1.8c6.3,0.1,10.2,1.4,15.4,3.5l1-6.6
		c-2-0.3-5.3-0.9-6.4-2.4c4.7-1.4,9.6-2,12.5-1.9v-8.1c-1.3,0.8-2.9,1.5-4.4,1.9c-1.9,0.6-3.6,0.8-4,0c-0.5-0.9,2.1-2.5,4.7-3.9
		l-6-5c-0.9,1.2-3,4.6-5.1,6.9c-1.5,1.6-3,2.7-3.9,2c-0.5-0.3-0.5-1.4-0.1-2.6c0.7-2.4,2.6-5.8,3.8-7.3l-8.3-0.8
		c0,3.4-1.6,7.1-3.5,10.1c-1.7,2.6-4.1,4.5-6.1,5.6l1.6,1.6C723.3,321.5,725.7,319.4,727.5,316.5z M744,328.6l-0.4,2.5
		c-2.6-1.3-7.2-2.7-11.8-2.8c1.6-1.2,3.6-2.1,5.6-2.9C738.7,326.9,741.7,328.3,744,328.6z"/>
	<path class="st0" d="M648.5,304.1l-0.8-0.6c-1.6,1.4-5.3,6.1-7,8.9l0.9,0.7C644,311.2,646.8,307.6,648.5,304.1z"/>
	<path class="st0" d="M618.1,333.1c3.6,1.4,7.4-0.8,7.5-4.8c4,0.4,5.5-2.8,5.2-6.1l-1.3-0.1c-0.5,3.1-2,4.4-5.4,4.4
		c-0.1,3-3.3,5.5-6.9,4.8c-1,2.4-4,3.1-6,1.2c-2-2-1.3-5.7,2.2-6.4c-0.1-3.6,3.4-5.9,8.4-5.6c1.4-1.8,2.6-2.5,4.7-2.3l0-1
		c-2-0.3-4.3-2.2-4.5-4.2c-4.3,0.3-7.2-2.1-7.1-6c-2.8-1.3-2.3-4.1-1.4-5.2c1.5-1.9,3.7-1.7,5.4-0.2c4.9-1.9,8.9,2,8.9,6.2
		c0,0,2.3,0,3.6,1.3c1.7,1.8,1.7,3.3,2.1,5.1c0.4,1.6,1.2,3.8,3.2,5.4c3.5,2.8,9,2,9.6-3.8c4.7,0.4,7.8-3.3,6.3-7.8
		c3.3-2.4,2.6-7.2-0.5-9.1c-3.9-2.4-7.5,0.1-8.5,2.4c-4.8-1.1-8.8,3.7-6.5,8.4c-1.3,0.3-1.9,0.9-2.5,2.3c0.4-3.2-1.7-6.2-5.2-5.9
		c0.3-5.6-5.2-9-10.2-6.2c-2.9-2.5-6.2-2-8.1,0.3c-1.9,2.2-1.8,6,2,8c-1,3.9,2.6,7.8,6.8,6.9c0.2,1.2,1.1,1.8,2.3,2.3
		c-1.7,0.1-2.5,1.8-2.5,1.8c-5.6-1.4-8.4,2.3-8.5,6.1c-4.1,1.2-5.2,6.3-2.1,9.3C612.6,337.5,616.5,336.2,618.1,333.1z M639.1,310.3
		c-1.4-4.9,2.2-7.8,5.8-7.5c1.4-2.7,3.5-3.2,5.9-1.8c2.1,1.3,2,4.6,0.2,6.1c0.6,2.9-2,7.1-6,6.9c0.5,4-4.5,6.3-7.5,3.7
		C635.1,315.5,635.6,311.8,639.1,310.3z"/>
	<path class="st0" d="M659.3,337.8c0.4-1.7-1.8-2-2.1-0.4c-0.3,1.7-2.4,4.5-4.3,6.3l0.7,0.7C656.1,342.6,658.7,340,659.3,337.8z"/>
	<path class="st0" d="M671.9,308.3c0-0.8-0.6-1.4-1.4-1.4c-0.8,0-1.4,0.6-1.4,1.4c0,0.8,0.6,1.4,1.4,1.4
		C671.3,309.7,671.9,309.1,671.9,308.3z"/>
	<path class="st0" d="M691.5,311c0,0.9,0.8,1.7,1.7,1.7c0.9,0,1.7-0.8,1.7-1.7c0-0.9-0.8-1.7-1.7-1.7
		C692.2,309.3,691.5,310.1,691.5,311z"/>
	<path class="st0" d="M688.8,341.4l0.2-2.2c0,0-10.8-0.8-21.3,0l-0.8,2C666.9,341.2,677.8,340.5,688.8,341.4z"/>
	<path class="st0" d="M676.9,334.2c-3.3,0-6.7,0.1-10,0.2c2.2-2.3,5.3-4.2,10-5.7l-3.4-1.9l3.8-2.1l-5.1-1.9c-0.9-0.8-2-1.5-3.4-1.9
		c1.6-5.1,7.2-8,12.6-10l-3.8-1.5l3.8-2.1l-5.8-1.9c-1.5-1.8-3-2.6-5.2-2.6c-5.4,0-7.7,4.7-9.8,8.9c-1.1,2.2-1.8,3.1-3.8,4.4
		c-4.2,2.7-9.5,6.9-14.5,12.2c-2.6-1.9-8.1-7.5-9.5-10.6c-0.6,0.7-1.2,2.3-1.2,2.3c0.6,0.6,6.9,7,9.3,9.8c-0.2,0.2-0.4,0.4-0.5,0.6
		c-2.5,0.5-9.1,1.1-11.3,0.8l-1.3,2.2c1.7-0.2,8.2-0.9,10.9-1.1c-0.8,1-1.6,2-2.4,3.1c-8.4,1-14,2.7-14,5.8c0,0.5,0.2,1.1,0.2,1.6
		c0,1.3-0.5,1.8-1.4,2.4c-0.6,0.4-0.6,0.6-0.4,1c1.4,2.2-2.9,3.4,0.1,7.4l2.6,0.2c0,0-2.5-1.4-0.8-4.7c0,0,0.6,0.8,1.6,1.9
		c0.3,0.5,0.7,0.8,1.1,1.2c2,2,5,3.4,8,4c0.9,0.2,1.6,0.3,2.5,0.3c1.3,0,2.5-0.7,3.3-1.4l-1.2-1.4c-0.4,0.1-1.2,0.1-1.7,0.1
		c-4.4,0-10.1-2.9-11.4-6.3c-0.1-0.3-0.3-0.5-0.2-0.8c0.1-0.3,0.3-1,0.4-1.6c0.3,0.3,0.8,0.7,1.5,1.2c1.7,1.1,4.8,2.5,5.4,2.9
		c1.6-0.5,2.8-1,3.7-1.5c0.9-0.5,2.2-0.9,3.6-0.9c3.2,0,7,1.8,10.5,3.6l2.4-0.9c-3.1-2.2-9.9-5.2-13.6-5.2c-2.2,0-4.3,1.6-5.8,1.6
		c-1.8,0-7-2.5-7-4.7c0-1.6,3.4-2.6,8.8-3.2c-0.9,1.4-1.8,2.8-2.7,4.3l1.4,0.8c8.5-12.3,17.3-20.3,24.8-25.2
		c2.7-1.8,3.3-2.8,4.3-4.7c2.3-4.7,4.5-8.3,8.3-8.3c1.8,0,3.2,1,4.2,2.2l2.7,0.8l-2.8,1.9l2.8,1.1c-3.7,1-8.7,4.6-10.8,9.9
		c-3.9,0.2-5.8,3.4-7.1,6.1c-0.9,1.8-2.2,2.5-4.3,3.9l-16.1,11.2l2.2,0.3l14.9-10c2.9-2,4.3-3.4,5-4.8c1.4-2.8,2.9-4.8,5.8-4.8
		c1.4,0,3,0.6,4.2,1.8l2.6,0.8L671,327l2.4,1.5c-6.8,2.1-11.1,7-13.5,16.4l1.8,0.4c0.9-3.1,1.8-5.9,3.4-8.5c4,0,8-0.2,11.9-0.2
		c10.5,0,19.2,0.4,23.9,1.8l-1.7-2.9C694.1,334.7,686.8,334.2,676.9,334.2z"/>
	<path class="st0" d="M619.1,304.4l-0.8,0.9c1.2,1.7,6.5,6.4,9.2,8.2l1-1.2C626.6,310.2,621.6,305.7,619.1,304.4z"/>
	<path class="st0" d="M615.4,328.3l0.8,0.9c2-1,5.8-3.8,7.8-5.9l-0.6-0.8C621.1,323.4,617.4,326.2,615.4,328.3z"/>
	<path class="st0" d="M728.8,363.9c-1.2-1.1-2.4-2.2-3.5-3.3c-1.4,0.1-2.4,1.3-2.4,2.6l0,41.2c0,1.5,1.2,2.7,2.7,2.7l3.9,0
		c1.5,0,2.7-1.2,2.7-2.7v-37.7c-0.4-0.3-0.8-0.7-1.2-1.1L728.8,363.9z"/>
	<path class="st0" d="M732.1,363.2c0-1.5-1.2-2.7-2.7-2.7l-1.2,0c1.3,1.2,2.6,2.4,3.9,3.5V363.2z"/>
	<path class="st0" d="M728.2,360.5l-2.7,0c-0.1,0-0.2,0-0.2,0c1.2,1.1,2.3,2.2,3.5,3.3l2,1.8c0.4,0.4,0.8,0.7,1.2,1.1v-2.7
		C730.8,362.9,729.5,361.7,728.2,360.5z"/>
	<path class="st0" d="M744.5,367.1c-2.2-1.2-4.4-2.7-6.5-4.4c-0.6,0.3-0.9,0.9-0.9,1.5l0,2c0,0.8,0.7,1.5,1.5,1.5h27.2
		c1.2,0,2.2-1,2.2-2.2l0-3.3c0-1.2-1-2.4-2.2-2.2c0,0-13.3,1.3-21.3,2.1c0.6,1.2,1.1,2.4,1.6,3.5L744.5,367.1z"/>
	<path class="st0" d="M742.2,362.2c-0.5,0.1-1,0.1-1.4,0.1c0.7,0.5,1.4,0.9,2,1.2C742.6,363.1,742.4,362.7,742.2,362.2z"/>
	<path class="st0" d="M742.8,363.5c-0.6-0.3-1.3-0.7-2-1.2c-1.2,0.1-2,0.2-2.1,0.2c-0.3,0-0.5,0.1-0.7,0.2c2.1,1.6,4.3,3.1,6.5,4.4
		l1.6-1.6c-0.5-1.1-1.1-2.3-1.6-3.5c-0.8,0.1-1.6,0.2-2.3,0.2C742.4,362.7,742.6,363.1,742.8,363.5z"/>
	<path class="st0" d="M719.1,373.3l-6,0l0-10.1c0-1.4-1.2-2.6-2.6-2.6h-3.8c-1.4,0-2.6,1.2-2.6,2.6l0,10.1l-1.9,0
		c-1,0-1.9,0.8-1.9,1.9v2.8c0,1,0.8,1.9,1.9,1.9h1.9l0,16.5c0,5.7,4.3,10.8,11,10.8h3.6c1.1,0,2-0.9,2-2v-3c0-1.1-0.9-2-2-2l-0.5,0
		c-3.2,0-5.1-2-5.1-5l0-15.2l6,0c1,0,1.9-0.8,1.9-1.9v-2.8C721,374.1,720.1,373.3,719.1,373.3z"/>
	<path class="st0" d="M651.8,372.1c-10.9,0-17.1,8.6-17.1,17.6c0,9.6,6.6,18.1,17.1,18.1c7.2,0,14.4-3.8,15.7-10.1
		c0.2-0.8-0.4-2-1.6-2h-5.2c-0.9,0-1.7,0.4-2.2,1.1c-1.5,2.2-3.6,3.3-6.8,3.3c-4.5,0-7.7-3.6-7.9-7.5h22c2,0,2.9-1.1,2.9-3
		C668.8,380.8,663.6,372.1,651.8,372.1z M644,385.9c0.4-3.9,3.8-6.8,7.8-6.8c4,0,7.5,2.9,7.9,6.8L644,385.9z"/>
	<path class="st0" d="M769,389.6c0-8.8-5.2-17.6-17-17.6c-10.9,0-17.1,8.6-17.1,17.6c0,9.6,6.6,18.1,17.1,18.1
		c7.2,0,14.4-3.8,15.7-10.1c0.2-0.8-0.4-2-1.6-2H761c-0.9,0-1.7,0.4-2.2,1.1c-1.5,2.2-3.6,3.3-6.8,3.3c-4.5,0-7.7-3.6-7.9-7.5h22
		C768.1,392.6,769,391.5,769,389.6z M744.1,385.9c0.4-3.9,3.8-6.8,7.8-6.8c4,0,7.5,2.9,7.9,6.8L744.1,385.9z"/>
	<path class="st0" d="M696.7,367.9c1.1,0,2-0.9,2-2v-3c0-1.1-0.9-2-2-2h-71.2c-1.6,0-2.9,1.3-2.9,2.9l0.2,28
		c0,0-15.3-27.7-16.1-29.1c-0.8-1.3-2.4-2.6-4.6-2.6h-5.9c-1.6,0-2.9,1.3-2.9,2.9l0,41c0,1.6,1.3,2.9,2.9,2.9h3.8
		c1.6,0,2.9-1.3,2.9-2.9l-0.2-28.7c0,0,15.5,28,16.2,29.1c0.9,1.5,2.4,2.6,4.6,2.6l5.4,0c1.6,0,2.9-1.3,2.9-2.9l0-36.2L696.7,367.9z
		"/>
	<path class="st0" d="M691.9,387c-2.1-0.5-7.1-1.8-8.2-2.1c-1.9-0.5-3.7-1.1-3.7-2.8c0-2.5,2.3-3.4,5.2-3.4c3.1,0,5.4,1.1,6.2,3.1
		c0.4,0.9,1.2,1.1,2.2,1.1h4.3c0.7,0,1.5-0.6,1.5-1.5c0-4.9-5.9-9.4-14.3-9.4c-8.6,0-14.3,4.1-14.3,10.7c0,5,4,8,8.8,9.3
		c2.2,0.6,6,1.5,7.9,2c2,0.5,3.8,1.1,3.8,2.8c0,2.7-2.8,3.6-5.9,3.6c-2.9,0-5.9-1.3-6.7-3.4c-0.5-1.2-1.3-1.4-2.6-1.4h-4.3
		c-0.8,0-1.6,0.6-1.6,1.6v0.6c0,4.8,6.4,9.8,15.3,9.8c6.3,0,15-2.6,15-11C700.4,391.8,697.2,388.4,691.9,387z"/>
	<path class="st0" d="M772.7,398.9c-2.2,0-4.2,1.5-4.2,4.2c0,2.7,2,4.2,4.2,4.2c2.2,0,4.2-1.5,4.2-4.2
		C776.9,400.4,774.9,398.9,772.7,398.9z M772.7,406.3L772.7,406.3c-1.7,0-3-1.3-3-3.2c0-1.9,1.3-3.2,3-3.2c1.6,0,3,1.3,3,3.2
		C775.7,405,774.3,406.3,772.7,406.3z"/>
	<path class="st0" d="M774.6,402.2c0-1-0.7-1.4-1.9-1.4h-1.7v4.5h1v-1.9h0.5l1,1.9h1.1l-1.2-2C774.1,403.3,774.6,403,774.6,402.2z
		 M772.9,402.7H772v-1.1h0.7c0.4,0,0.9,0,0.9,0.5C773.6,402.6,773.3,402.7,772.9,402.7z"/>
</g>
</svg>
