<?xml version="1.0" encoding="utf-8"?>
<!-- Generator: Adobe Illustrator 25.1.0, SVG Export Plug-In . SVG Version: 6.00 Build 0)  -->
<svg version="1.1" id="Layer_1" xmlns="http://www.w3.org/2000/svg" xmlns:xlink="http://www.w3.org/1999/xlink" x="0px" y="0px"
	 viewBox="0 0 651.8 243.4" style="enable-background:new 0 0 651.8 243.4;" xml:space="preserve">
<style type="text/css">
	.st0{fill:#FFFFFF;}
</style>
<g id="colon">
	<path class="st0" d="M651.8,164.9c0,17.4-14.1,31.4-31.4,31.4S589,182.3,589,164.9s14.1-31.4,31.4-31.4l0,0
		C637.8,133.5,651.8,147.6,651.8,164.9"/>
	<path class="st0" d="M651.8,84.9c0,17.4-14.1,31.4-31.4,31.4c-17.4,0-31.4-14.1-31.4-31.4s14.1-31.4,31.4-31.4l0,0
		C637.8,53.5,651.8,67.5,651.8,84.9"/>
</g>
<g id="lettering">
	<path class="st0" d="M98,154.7c-29.6,0-53.6-21.9-53.6-56.3s24-56.3,53.6-56.3s53.6,21.9,53.6,56.3S127.6,154.7,98,154.7 M98,0
		C43.9,0,0,43.9,0,98s43.9,98,98,98s98-43.9,98-98S152.1,0,98,0 M574.2,78.7c-2-6.9-5.6-13.3-10.4-18.8c-4-4.4-8.9-7.9-14.3-10.4
		c-6.9-3.3-14.5-4.9-22.1-4.8c-10.1,0-18.4,1.9-24.9,5.6c-6.8,4.3-12.7,10-17.4,16.5h-0.8V6.3h-43.7v186h43.7v-79.8
		c0-9.2,2.3-16.6,7-22.4c4.9-5.8,11.3-8.7,19.2-8.7c8.3,0,14.4,2.9,18.3,8.7c1.9,2.8,3.3,5.9,3.9,9.2c0.6,3.6,0.9,7.3,0.8,10.9v82.1
		h43.7V98.9C577.4,92,576.3,85.2,574.2,78.7 M405.4,156.6c-1.5-1.4-2.5-3.3-2.8-5.3c-0.6-2.3-0.9-4.6-0.8-7V76.7h25.8V49h-25.8V6.3
		h-42.6V49h-19.3v27.7h19.3v76.7c0,2.6,0.1,5.1,0.3,7.6c0.1,3.8,0.9,7.6,2.2,11.2c1.8,4.9,4.9,9.3,9,12.6c4,3.1,8.6,5.4,13.4,6.7
		c6.2,1.6,12.6,2.3,19,2.2c6.3,0,11.7-0.2,16-0.6c2.9-0.2,5.8-0.6,8.7-1.4v-31.7h-10.4C412.2,160.2,408.2,159,405.4,156.6
		 M291.9,141.1c0,7.8-2.7,14.2-8.1,19c-5.6,4.9-13,7.3-22.1,7.3c-6,0-10.9-1.2-14.6-3.6c-3.7-2.6-5.6-6.9-5.6-12.9
		c0-5.6,2.1-9.9,6.2-12.9c3.9-2.6,10.5-5,19.9-7.3c2.4-0.6,4.8-1.1,7.1-1.7c2.2-0.5,4.4-1.2,6.6-2c3.7-1.1,7.2-2.5,10.6-4.2
		L291.9,141.1z M334.8,183.7c-0.6-3.1-1-6.3-1.1-9.5V97.7c0.2-8.2-1.4-16.3-4.5-23.8c-2.7-6.8-7.3-12.7-13.2-17.1
		c-5.9-4.4-12.7-7.4-19.9-9c-8.5-2-17.3-2.9-26-2.8c-11,0-20.6,1.4-28.9,4.2c-6.9,2.2-13.4,5.7-19,10.4c-5.3,4.3-9.5,9.8-12.3,16
		c-2.6,5.7-4,11.9-4.2,18.2h40c0.7-6.4,3.3-11.3,7.6-14.5c3.7-3,9.3-4.5,16.8-4.6c7.1,0,12.3,1.4,15.7,4.2s5,6.6,5,11.5
		c0,5.1-3,8.7-9,11c-4.3,1.5-11.4,3-21.3,4.5c-2.4,0.4-4.9,0.8-7.6,1.1c-7,0.8-13.9,2.3-20.7,4.2c-6.2,1.8-12,4.5-17.4,8.1
		c-4.8,3.5-8.7,8-11.5,13.2c-2.8,5.4-4.2,11.9-4.2,19.4c-0.1,6.5,1.1,13,3.6,19.1c2.3,5.3,5.8,9.9,10.2,13.7
		c4.6,3.9,9.9,6.8,15.7,8.4c6.4,1.9,13.1,2.8,19.9,2.8c10.3,0,18.7-1.6,25.2-4.8c7-3.4,12.9-8.5,17.4-14.8h0.6c0.3,3,0.9,6.1,1.7,9
		c0.5,2.5,1.5,4.9,3.1,7h42.3v-2C336.6,189.3,335.3,187,334.8,183.7"/>
</g>
<g id="text">
	<path class="st0" d="M243.7,236.6l10.2-28.6h7l10.3,28.6H264l-1.7-5.4h-10l-1.7,5.4H243.7z M256.1,219.1l-2.3,7.2h6.9l-2.2-7.2
		c0-0.1-0.1-0.3-0.2-0.4s-0.2-0.5-0.2-0.8c-0.1-0.5-0.3-1-0.4-1.6s-0.2-1-0.3-1.4h-0.1l-0.2,0.6c-0.1,0.2-0.1,0.5-0.2,0.7
		c-0.1,0.5-0.3,1-0.4,1.6C256.3,218.3,256.2,218.7,256.1,219.1L256.1,219.1z"/>
	<path class="st0" d="M284.4,236.6l-9.5-28.6h7l4.4,14.8c0.2,0.6,0.4,1.2,0.5,1.8c0.1,0.5,0.2,0.9,0.3,1.2c0.1,0.4,0.2,0.8,0.4,1.4
		l0.3,1h0.1l0.3-1c0.1-0.5,0.2-0.9,0.4-1.4c0.1-0.5,0.2-0.9,0.3-1.2l0.2-0.6c0.1-0.4,0.2-0.8,0.4-1.2l4.4-14.8h6.8l-9.4,28.6H284.4z
		"/>
	<path class="st0" d="M308.7,237.2c-1.6,0-3.2-0.3-4.6-0.9c-1.3-0.5-2.5-1.3-3.5-2.4c-0.9-0.9-1.5-2-2-3.2c-1-2.8-1-5.9,0-8.7
		c0.5-1.3,1.3-2.5,2.2-3.5c0.9-0.9,1.9-1.6,3.1-2.1c1.4-0.6,2.8-0.9,4.3-0.9c1.4,0,2.7,0.2,4,0.7c1.1,0.4,2,1,2.9,1.8
		c1.3,1.2,2.2,2.7,2.8,4.4c0.6,1.8,0.8,3.6,0.8,5.5H304c0.1,1.3,0.7,2.4,1.5,3.4c0.9,0.9,2.1,1.3,3.3,1.2c0.8,0,1.6-0.2,2.2-0.6
		c0.6-0.4,1.1-0.9,1.3-1.6h6.1c-0.2,0.9-0.6,1.8-1.2,2.6c-0.6,0.8-1.3,1.6-2.2,2.2c-0.9,0.6-1.8,1.1-2.8,1.4
		C311.1,237.1,309.9,237.2,308.7,237.2z M308.4,220.1c-1.1-0.1-2.2,0.3-3,1.1c-0.7,0.8-1.2,1.9-1.4,3h8.3c-0.1-1.1-0.5-2.2-1.2-3
		C310.4,220.5,309.4,220.1,308.4,220.1L308.4,220.1z"/>
	<path class="st0" d="M327,216.2v3.2h0.1c0.6-1.1,1.4-2,2.4-2.7c0.9-0.5,1.9-0.8,3-0.8c0.4,0,0.9,0,1.3,0.2v5.4h-0.2
		c-1.6-0.4-3.3,0-4.7,1c-1.2,1-1.8,2.6-1.8,4.8v9.4H321v-20.4H327z"/>
	<path class="st0" d="M336,213.2v-5.1h6.2v5.1H336z M336,236.6v-20.4h6.2v20.4L336,236.6z"/>
	<path class="st0" d="M344.4,236.6V232l8.3-9l0.4-0.4c0.2-0.2,0.3-0.3,0.4-0.5l1-1V221c-0.5,0-0.9,0-1.4,0h-7.7v-4.8H362v4.7
		l-7.5,8.3l-1.4,1.4l-1,1.1v0.1h2.3c0.2,0,0.4,0,0.6,0h7.6v4.9L344.4,236.6z"/>
	<path class="st0" d="M373.9,237.3c-1.6,0-3.2-0.3-4.6-0.9c-1.2-0.5-2.3-1.3-3.2-2.2c-1-1-1.8-2.3-2.3-3.6c-0.5-1.3-0.7-2.7-0.7-4.1
		c0-1.5,0.3-3,0.8-4.5c0.5-1.2,1.2-2.3,2.2-3.3c1-1,2.3-1.8,3.6-2.4c1.4-0.5,2.8-0.7,4.2-0.7c1.6,0,3.2,0.3,4.7,0.9
		c1.2,0.5,2.3,1.2,3.2,2.2c0.9,1,1.6,2.1,2.1,3.3c0.6,1.4,0.9,2.9,0.9,4.5c0,1.5-0.3,3.1-0.9,4.5c-0.5,1.2-1.2,2.3-2.1,3.2
		c-0.9,0.9-2,1.7-3.2,2.2C377.1,237,375.5,237.3,373.9,237.3z M373.9,232.8c1.4,0.1,2.6-0.6,3.4-1.8c1.5-2.9,1.5-6.3,0-9.1
		c-0.7-1.1-2-1.8-3.4-1.8c-1.4-0.1-2.7,0.6-3.4,1.8c-1.5,2.9-1.5,6.3,0,9.1C371.3,232.2,372.6,232.8,373.9,232.8L373.9,232.8z"/>
	<path class="st0" d="M392.9,216.2v2.8h0.1c0.7-1.1,1.7-2,2.8-2.6c1.1-0.6,2.3-0.8,3.5-0.8c1,0,2.1,0.2,3,0.6c0.9,0.4,1.7,1,2.3,1.7
		c0.6,0.6,1,1.4,1.2,2.2c0.4,1,0.6,2.1,0.6,3.2v13.3h-6.2v-12.2c0-0.9-0.3-1.9-0.8-2.6c-0.6-0.7-1.5-1.1-2.5-1
		c-1.1,0-2.2,0.5-2.8,1.4c-0.6,0.9-1,1.9-0.9,3v11.4h-6.2v-20.4H392.9z"/>
	<path class="st0" d="M425.6,237.3c-1.6,0-3.1-0.3-4.6-0.9c-1.2-0.5-2.3-1.3-3.3-2.2c-1-1-1.7-2.2-2.2-3.6c-0.5-1.3-0.7-2.7-0.7-4.1
		c0-1.5,0.3-3,0.8-4.4c0.5-1.2,1.2-2.4,2.1-3.3c1-1,2.2-1.8,3.5-2.3c2.6-0.9,5.4-1,8-0.2c1.1,0.3,2.1,0.9,2.9,1.6
		c0.8,0.7,1.5,1.6,2,2.6c0.5,0.9,0.8,2,0.9,3h-6c-0.2-0.9-0.6-1.7-1.3-2.3c-0.6-0.5-1.4-0.8-2.2-0.8c-1.3-0.1-2.6,0.6-3.3,1.6
		c-0.8,1.4-1.2,2.9-1.1,4.5c-0.1,1.6,0.3,3.1,1.1,4.4c0.7,1.1,2,1.7,3.3,1.6c2.2,0,3.4-1.2,3.7-3.5h6c-0.1,1-0.3,2-0.7,3
		c-0.4,1-1.1,2-1.9,2.8c-0.9,0.8-1.9,1.4-3,1.8C428.3,237.1,427,237.3,425.6,237.3z"/>
	<path class="st0" d="M447.5,237.3c-1.6,0-3.2-0.3-4.6-0.9c-1.2-0.5-2.3-1.3-3.2-2.2c-1-1-1.8-2.3-2.3-3.6c-0.5-1.3-0.7-2.7-0.7-4.1
		c0-1.5,0.3-3,0.8-4.5c0.5-1.2,1.2-2.3,2.2-3.3c1-1,2.3-1.8,3.6-2.4c1.4-0.5,2.8-0.7,4.2-0.7c1.6,0,3.2,0.3,4.7,0.9
		c1.2,0.5,2.3,1.2,3.2,2.2c0.9,1,1.6,2.1,2.1,3.3c0.6,1.4,0.9,2.9,0.9,4.5c0,1.5-0.3,3.1-0.9,4.5c-0.5,1.2-1.2,2.3-2.1,3.2
		c-0.9,0.9-2,1.7-3.2,2.2C450.6,237,449.1,237.3,447.5,237.3z M447.5,232.8c1.4,0.1,2.6-0.6,3.4-1.8c1.5-2.9,1.5-6.3,0-9.1
		c-0.7-1.1-2-1.8-3.4-1.8c-1.4-0.1-2.7,0.6-3.4,1.8c-1.5,2.9-1.5,6.3,0,9.1C444.8,232.2,446.1,232.8,447.5,232.8L447.5,232.8z"/>
	<path class="st0" d="M460.4,236.6v-20.4h6v2.9h0.1c0.6-1.1,1.5-2,2.6-2.6c1.1-0.6,2.3-0.9,3.6-0.9c1.3,0,2.6,0.3,3.6,1.1
		c0.9,0.6,1.7,1.5,2.1,2.5h0.1c0.7-1.1,1.6-2.1,2.8-2.7c2-1,4.4-1.2,6.6-0.3c0.8,0.3,1.6,0.8,2.2,1.5c0.6,0.7,1.1,1.5,1.3,2.4
		c0.2,0.7,0.4,1.5,0.4,2.3c0,0.4,0,0.8,0,1.2v13.1h-6.2v-12.4c0.1-0.9-0.2-1.8-0.8-2.6c-0.5-0.6-1.4-1-2.2-0.9c-0.1,0-0.2,0-0.3,0.1
		c-0.9,0-1.7,0.5-2.2,1.2c-0.4,0.6-0.6,1.3-0.7,2.1c-0.1,0.4-0.1,0.8-0.1,1.2v11.2h-6.2v-12.3c0.1-0.9-0.2-1.8-0.7-2.6
		c-0.6-0.6-1.4-1-2.2-0.9c-0.9,0-1.8,0.4-2.3,1.1c-0.7,0.9-1.1,2-1,3.1v11.6L460.4,236.6z"/>
	<path class="st0" d="M494.5,243.4v-27.2h6v2.4h0.1c0.7-0.9,1.6-1.7,2.7-2.3c1.1-0.5,2.3-0.8,3.5-0.8c1.3,0,2.6,0.3,3.8,0.9
		c1,0.5,1.9,1.3,2.6,2.2c0.8,1.1,1.4,2.3,1.8,3.6c0.4,1.3,0.6,2.7,0.6,4.1c0,1.6-0.2,3.2-0.7,4.7c-0.3,1.2-0.9,2.3-1.7,3.2
		c-0.7,0.9-1.7,1.6-2.7,2.1c-1.2,0.6-2.5,0.9-3.8,0.8c-1.1,0-2.3-0.2-3.3-0.7c-1-0.5-1.8-1.2-2.5-2.1h-0.1v8.9L494.5,243.4z
		 M505.1,232.4c1.2,0,2.3-0.5,3-1.5c0.8-1.3,1.2-2.7,1.1-4.2c0.1-1.5-0.3-3-1-4.4c-0.7-1.1-1.9-1.7-3.2-1.6c-0.7,0-1.3,0.1-1.9,0.4
		c-0.6,0.3-1.1,0.8-1.4,1.3c-0.4,0.6-0.6,1.2-0.8,1.8c-0.2,0.8-0.3,1.6-0.3,2.5c-0.1,1.5,0.3,3,1.2,4.2
		C502.5,231.8,503.8,232.4,505.1,232.4L505.1,232.4z"/>
	<path class="st0" d="M530.7,236.6c-0.2-0.3-0.4-0.6-0.4-1c-0.1-0.4-0.2-0.8-0.2-1.3H530c-0.6,0.9-1.5,1.6-2.5,2.1
		c-1.1,0.5-2.4,0.7-3.6,0.7c-1,0-1.9-0.1-2.8-0.4c-0.8-0.2-1.6-0.6-2.2-1.2c-0.6-0.6-1.1-1.2-1.4-2c-0.4-0.9-0.5-1.8-0.5-2.7
		c0-1,0.2-1.9,0.6-2.8c0.4-0.7,1-1.4,1.6-1.9c0.8-0.5,1.6-0.9,2.5-1.2c1-0.3,2-0.5,3-0.6l1.1-0.2c1-0.1,2-0.3,3-0.6
		c0.7-0.2,1.3-0.8,1.3-1.6c0-0.6-0.2-1.2-0.7-1.6c-0.7-0.5-1.4-0.7-2.2-0.6c-0.9-0.1-1.7,0.2-2.4,0.6c-0.6,0.5-1,1.3-1.1,2.1h-5.7
		c0-0.9,0.2-1.8,0.6-2.6c0.4-0.9,1-1.7,1.8-2.3c0.8-0.7,1.7-1.2,2.7-1.5c1.3-0.4,2.7-0.6,4.1-0.6c1.2,0,2.5,0.1,3.7,0.4
		c1,0.2,2,0.7,2.8,1.3c0.8,0.6,1.5,1.5,1.9,2.4c0.4,1.1,0.7,2.2,0.6,3.4V234c0,0.5,0.1,0.9,0.2,1.4c0,0.4,0.2,0.8,0.6,1v0.3
		L530.7,236.6z M525.7,233.1c1.1,0.1,2.3-0.3,3.2-1c0.8-0.7,1.2-1.7,1.2-2.7v-2.6c-0.5,0.2-1,0.4-1.5,0.6c-0.3,0.1-0.6,0.2-0.9,0.3
		l-1,0.2c-1,0.2-1.9,0.5-2.8,1c-0.6,0.4-0.9,1.1-0.9,1.8c-0.1,0.7,0.2,1.4,0.8,1.8C524.3,232.9,525.1,233.1,525.7,233.1L525.7,233.1
		z"/>
	<path class="st0" d="M544.8,216.2v2.8h0.2c0.7-1.1,1.7-2,2.8-2.6c1.1-0.6,2.3-0.8,3.5-0.8c1,0,2.1,0.2,3,0.6c0.9,0.4,1.7,1,2.3,1.7
		c0.6,0.6,1,1.4,1.2,2.2c0.4,1,0.6,2.1,0.6,3.2v13.3h-6.2v-12.2c0-0.9-0.3-1.9-0.8-2.6c-0.6-0.7-1.5-1.1-2.5-1
		c-1.1,0-2.2,0.5-2.8,1.4c-0.6,0.9-1,1.9-0.9,3v11.4h-6.2v-20.4H544.8z"/>
	<path class="st0" d="M561,243.4v-4.9h2.2c0.8,0.1,1.5-0.2,2.1-0.6c0.4-0.4,0.7-1.1,0.6-1.7c0-0.6-0.1-1.1-0.3-1.6
		c-0.2-0.6-0.5-1.5-0.9-2.5l-0.5-1.4l-5.5-14.4h6.6l2.8,8.8c0.1,0.2,0.1,0.4,0.2,0.6c0.1,0.3,0.2,0.7,0.3,1l0.4,1.5l0.2,0.9
		c0.1,0.3,0.1,0.5,0.2,0.7h0.1l0.4-1.6c0.1-0.5,0.2-1,0.4-1.5s0.3-1.1,0.4-1.6l2.7-8.8h6.3l-7.1,20.8c-0.1,0.3-0.2,0.6-0.3,0.8
		c-0.3,0.7-0.6,1.5-1,2.2c-0.4,0.7-0.9,1.4-1.6,2c-0.6,0.5-1.3,0.9-2,1.1c-0.9,0.3-1.8,0.4-2.7,0.4L561,243.4z"/>
</g>
</svg>
