<?xml version="1.0" encoding="utf-8"?>
<!-- Generator: Adobe Illustrator 25.1.0, SVG Export Plug-In . SVG Version: 6.00 Build 0)  -->
<svg version="1.1" id="Layer_1" xmlns="http://www.w3.org/2000/svg" xmlns:xlink="http://www.w3.org/1999/xlink" x="0px" y="0px"
	 viewBox="0 0 658.2 146" style="enable-background:new 0 0 658.2 146;" xml:space="preserve">
<style type="text/css">
	.st0{fill:#FFFFFF;}
</style>
<g id="AgQ0rQ_1_">
	<g>
		<path class="st0" d="M499.7,117.8c-12.7,14.1-38.8,13-52.3,0.6c-7.3-6.7-11.4-15-12.5-24.7c-1.3-12.1,0.8-23.4,8.8-33
			c11.3-13.6,34-17.6,48.9-8.6c2.2,1.3,4.2,3.1,6.5,4.8c0.1-1,0.2-1.8,0.2-2.6c0-10.8,0.1-21.6-0.1-32.4c0-2.1,0.5-2.9,2.7-2.8
			c4.3,0.1,8.6,0.1,12.9,0c2.4-0.1,3.2,0.6,3.2,3.1c-0.1,14.1-0.1,28.2-0.1,42.3c0,19.7,0,39.5,0,59.2c0,3.4,0,3.4-3.3,3.4
			c-0.8,0-1.5,0-2.3,0C504.6,127,502.1,125.2,499.7,117.8z M476.4,111.8c13.6,0,23.1-9.7,23.1-23.9c0.1-14.4-9.3-24.5-22.9-24.5
			c-13.5,0-23,9.9-23.1,24C453.4,101.8,462.7,111.7,476.4,111.8z"/>
		<path class="st0" d="M315.6,56.2c2.8-7.2,5.2-8.8,12.7-8.8c6.3,0,6.3,0,6.3,6.3c0,23,0,46,0,69c0,3.3,0,3.3-3.4,3.3c-1,0-2,0-3,0
			c-6.6,0-9.3-1.9-11.4-8.1c-0.1-0.2-0.2-0.4-0.4-0.7c-0.3,0.2-0.6,0.3-0.8,0.6c-11.8,10.9-25.5,11.6-39.7,6.7
			c-14-4.9-21.7-15.5-24-30c-1.5-10-0.6-19.7,4.5-28.7c6.5-11.5,16.7-17.5,29.7-18.9C297.2,45.7,307.2,48.1,315.6,56.2z M270.3,86.8
			c0,11.6,6.2,20.6,16.1,23.3c14.7,3.9,27.4-4.6,29.6-19.7c2.5-17.8-11.4-31-28.7-27.2C276.9,65.5,270.3,74.8,270.3,86.8z"/>
		<path class="st0" d="M366.3,57.1c11-10.1,23.7-12.1,37.4-8.6c12.7,3.3,19.5,12.3,21.4,25.1c0.4,2.4,0.5,4.9,0.5,7.3
			c0.1,14.3,0,28.7,0.1,43c0,2.4-0.6,3.4-3.1,3.2c-1.8-0.2-3.5,0-5.3,0c-6.4-0.1-10.4-4-10.4-10.5c-0.1-10.4,0.1-20.8-0.1-31.1
			c0-3.2-0.2-6.4-1-9.5c-1.7-7.1-6.4-11.1-13.6-12.1c-14.4-2.1-24.8,6.4-25.2,20.9c-0.3,10.4-0.1,20.8-0.1,31.1
			c0,7.4-3.8,11.2-11.2,11.2c-1.7,0-3.4-0.1-5.1,0c-2.1,0.2-2.6-0.8-2.6-2.7c0-24.6,0-49.3,0-73.9c0-2.2,0.8-2.9,2.8-2.7
			c1,0.1,2,0,3,0C361.3,47.9,364.1,49.9,366.3,57.1z"/>
		<path class="st0" d="M255.5,48.1c-0.9,1.2-1.4,2-2,2.8c-8.5,11.3-17,22.7-25.6,33.9c-1.4,1.9-1.3,3,0.1,4.7
			c9,11.3,17.9,22.6,26.8,33.9c0.6,0.7,1.1,1.5,1.6,2.1c-0.2,0.3-0.3,0.5-0.4,0.5c-5.8,0-11.6,0.3-17.4-0.3
			c-2.2-0.2-4.5-2.2-6.1-4.1c-5.1-6.1-9.8-12.5-14.7-18.7c-0.6-0.8-1.3-1.5-2.1-2.5c-0.8,0.9-1.4,1.5-1.9,2.2
			c-4.8,6.1-9.6,12.2-14.3,18.4c-2.7,3.6-6.1,5.4-10.6,5.2c-3.5-0.1-7.1,0-10.6,0c-0.9,0-1.8-0.1-3.3-0.2c0.9-1.3,1.5-2.1,2.1-3
			c8.8-11.3,17.7-22.6,26.6-33.8c1.3-1.7,1.5-2.7,0.1-4.5c-8.5-11.2-16.9-22.5-25.4-33.8c-0.6-0.8-1.2-1.7-2.1-3
			c1.4-0.1,2.2-0.2,3-0.2c4,0,8.1,0,12.1,0c3.9-0.1,6.8,1.5,9,4.6c4.3,6,8.7,12,13.1,18c0.8,1.1,1.6,2.2,2.6,3.5
			c0.7-0.9,1.3-1.6,1.8-2.3c4.6-6.3,9.2-12.7,13.8-19.1c2.3-3.3,5.4-4.9,9.5-4.8c3.8,0.1,7.6,0,11.4,0
			C253.4,47.9,254.2,48,255.5,48.1z"/>
		<path class="st0" d="M578.3,64.8c-3.1,0-5.8-0.3-8.5,0c-9.9,1.1-16.6,7.8-18,17.7c-0.4,2.5-0.5,5-0.5,7.6c-0.1,8.9,0,17.7,0,26.6
			c0,6.4-4,10.4-10.4,10.5c-2.1,0-4.2,0-6.3,0c-1.5,0-2.2-0.6-2.1-2.1c0-0.5,0-1,0-1.5c0-24,0-48.1,0-72.1c0-3.6,0-3.6,3.7-3.6
			c3.7,0,7.4,0.1,11.1,0c2.4-0.1,3.4,0.6,3.2,3.1c-0.2,2.3,0,4.6,0,7.6c1.4-1.5,2.3-2.5,3.2-3.4c6.5-6.2,14.5-7.8,23.1-8.1
			c0.5,0,1.6,0.9,1.6,1.3C578.3,53.8,578.3,59.2,578.3,64.8z"/>
		<path class="st0" d="M125.5,82.7c-6.8-11.7-13.3-22.8-20-34.4c13.5,0,26.5,0,40,0C138.8,59.9,132.4,70.9,125.5,82.7z"/>
		<path class="st0" d="M101.1,124.2c-6.4-11.2-12.7-22.3-19.3-33.9c13.3,0,26.2,0,39.5,0c-6.5,11.5-12.9,22.7-19.3,33.9
			C101.7,124.1,101.4,124.2,101.1,124.2z"/>
		<path class="st0" d="M81.6,85.3c6.7-11.7,13.2-22.8,19.6-34c0.3,0,0.6,0.1,0.9,0.1c6.4,11.2,12.8,22.3,19.5,33.9
			C108.1,85.3,95.2,85.3,81.6,85.3z"/>
		<path class="st0" d="M169.3,90.2c-6.7,11.7-13,22.8-19.7,34.6c-6.7-11.8-13.1-23-19.7-34.6C143.2,90.2,155.9,90.2,169.3,90.2z"/>
		<path class="st0" d="M150,50.9c6.3,11.1,12.7,22.3,19.3,33.9c-13.3,0-26.1,0-39.5,0c6.5-11.4,12.8-22.6,19.1-33.7
			C149.3,51,149.6,50.9,150,50.9z"/>
		<path class="st0" d="M145.3,126.6c-13.4,0-26.1,0-39.4,0c6.7-11.5,13-22.4,19.7-33.9C132.2,104.2,138.6,115.1,145.3,126.6z"/>
	</g>
</g>
</svg>
