<?xml version="1.0" standalone="no"?>
<!DOCTYPE svg PUBLIC "-//W3C//DTD SVG 20010904//EN"
 "http://www.w3.org/TR/2001/REC-SVG-20010904/DTD/svg10.dtd">
<svg version="1.0" xmlns="http://www.w3.org/2000/svg"
 width="874.000000pt" height="1280.000000pt" viewBox="0 0 874.000000 1280.000000"
 preserveAspectRatio="xMidYMid meet">
<metadata>
Created by potrace 1.15, written by Peter Selinger 2001-2017
</metadata>
<g transform="translate(0.000000,1280.000000) scale(0.100000,-0.100000)"
fill="#" stroke="none">
<path d="M3370 12781 c-45 -24 -175 -60 -258 -72 -64 -9 -193 -69 -221 -103
-17 -21 -110 -64 -153 -71 -21 -3 -41 -11 -45 -18 -5 -7 -30 -18 -58 -25 -27
-7 -86 -36 -130 -64 -44 -29 -106 -65 -138 -80 -31 -16 -74 -43 -95 -62 -20
-18 -48 -37 -62 -41 -14 -4 -50 -26 -80 -50 -30 -23 -66 -48 -80 -55 -14 -7
-37 -25 -52 -39 -53 -50 -79 -71 -87 -71 -5 0 -41 -30 -80 -67 -53 -48 -69
-68 -59 -74 9 -6 7 -9 -9 -9 -25 0 -113 -93 -113 -120 0 -24 -45 -59 -69 -53
-12 3 -27 -6 -44 -27 -15 -17 -27 -35 -27 -38 0 -4 -14 -16 -30 -27 -17 -11
-35 -34 -41 -52 -13 -41 -65 -113 -82 -113 -6 0 -55 -39 -107 -86 -52 -48
-110 -93 -128 -101 -20 -8 -43 -31 -58 -56 -99 -165 -144 -248 -144 -267 0
-20 3 -22 37 -15 50 9 49 8 57 56 11 70 87 124 124 87 15 -15 44 9 37 32 -3 9
2 31 11 48 13 28 18 30 36 21 16 -8 18 -16 12 -37 -4 -15 -8 -47 -8 -72 -1
-42 1 -45 26 -48 15 -2 33 -11 40 -21 7 -10 25 -26 40 -35 15 -10 30 -26 33
-36 9 -27 -44 -100 -78 -107 -15 -3 -38 -19 -50 -35 -12 -16 -41 -51 -64 -78
-23 -27 -44 -58 -48 -70 -3 -11 -24 -29 -46 -40 -21 -11 -46 -34 -55 -51 l-16
-32 -70 6 -70 6 5 -26 c7 -36 -6 -66 -49 -119 -44 -54 -42 -91 6 -101 41 -8
47 -21 16 -33 -32 -12 -33 -31 -6 -131 32 -120 24 -279 -13 -279 -21 0 -45 32
-49 65 -2 22 -9 31 -25 33 -13 2 -23 -1 -23 -7 0 -6 -4 -11 -10 -11 -5 0 -10
13 -10 29 0 25 -4 30 -27 33 -28 3 -28 4 -24 68 5 90 12 104 60 119 47 14 51
25 16 57 -29 27 -31 47 -10 97 17 42 20 93 5 102 -5 3 -10 -1 -10 -9 0 -8 -7
-19 -16 -24 -18 -10 -43 -75 -44 -115 0 -18 -11 -38 -29 -55 -38 -36 -46 -52
-70 -155 -12 -49 -28 -98 -36 -110 -9 -12 -15 -43 -15 -73 0 -32 -5 -56 -14
-63 -31 -26 -47 -222 -21 -257 14 -19 15 -18 40 9 27 28 63 35 83 15 16 -16
15 -79 -3 -102 -13 -17 -11 -23 15 -56 36 -45 36 -49 9 -95 -20 -33 -21 -46
-16 -126 6 -89 6 -89 -18 -89 -46 0 -94 27 -95 52 0 4 15 11 33 16 28 7 32 12
28 38 -4 37 -29 85 -52 102 -13 9 -19 28 -21 69 -2 31 -8 58 -15 60 -15 5 -36
-61 -28 -87 5 -15 3 -18 -9 -14 -9 3 -16 2 -17 -2 0 -5 -4 -56 -8 -114 -10
-127 3 -595 17 -630 l10 -25 6 25 c3 14 7 43 8 65 2 28 8 40 18 40 12 0 16
-17 18 -85 3 -92 -2 -130 -19 -130 -6 0 -13 9 -16 20 -3 11 -9 20 -13 20 -39
0 0 -295 60 -459 25 -68 71 -227 129 -449 7 -25 6 -35 -5 -39 -15 -6 -39 5
-161 75 -114 66 -192 87 -270 72 -61 -11 -106 -36 -111 -64 -4 -19 37 -23 55
-5 6 6 41 11 77 11 104 -1 184 -55 266 -180 11 -18 33 -27 85 -38 110 -23 195
-85 195 -142 0 -24 16 -38 23 -20 10 29 25 -11 36 -97 15 -116 30 -321 31
-407 0 -59 -2 -68 -18 -68 -25 0 -82 -55 -82 -79 0 -11 -7 -39 -16 -62 -14
-34 -15 -47 -5 -80 7 -22 19 -43 27 -46 31 -12 6 -79 -62 -169 -36 -46 -38
-55 -44 -135 -3 -63 -10 -92 -23 -106 -22 -25 -21 -48 3 -102 11 -24 20 -64
20 -90 0 -66 17 -117 45 -135 27 -18 55 -21 55 -6 0 16 27 11 34 -6 3 -9 6
-31 6 -50 0 -33 1 -34 43 -34 59 0 85 9 92 31 10 32 -4 57 -49 88 -27 19 -49
44 -60 73 -11 24 -30 67 -43 96 -21 45 -24 62 -18 110 9 81 41 195 71 254 43
85 87 246 86 313 -2 110 -42 698 -59 865 -18 176 -18 193 -7 284 6 50 4 61
-10 72 -16 12 -16 14 0 45 22 44 13 161 -16 202 -18 24 -19 27 -4 27 16 0 16
2 -1 20 -16 18 -16 20 -2 20 13 0 17 9 17 38 0 48 26 136 45 156 8 8 15 18 15
21 0 4 14 24 30 45 34 43 36 50 15 50 -21 0 -19 47 3 59 9 5 38 12 65 16 60 9
71 25 17 25 -27 0 -43 5 -47 15 -8 23 5 31 28 17 26 -17 39 -7 39 29 0 22 7
32 25 41 19 9 25 19 25 44 0 20 10 44 26 63 20 24 24 37 19 65 -6 29 -2 41 32
84 21 28 45 51 53 52 19 0 40 44 33 69 -4 16 2 20 35 26 44 7 49 28 9 39 -20
5 -20 6 -3 25 10 11 61 41 113 67 89 45 115 66 99 81 -3 4 -12 1 -18 -5 -7 -7
-20 -12 -30 -12 -9 0 -34 -11 -54 -25 -53 -36 -70 -31 -40 10 12 17 12 21 -2
31 -15 11 -15 17 -3 49 11 32 11 39 -5 56 -17 19 -17 19 7 17 21 -3 24 1 27
35 4 41 -9 47 -42 22 -11 -8 -23 -15 -28 -15 -14 0 -8 30 7 36 14 6 22 44 10
44 -3 0 -19 -10 -35 -22 -16 -12 -32 -19 -35 -16 -7 6 82 82 107 91 10 3 31
28 48 56 17 27 42 56 56 66 19 12 23 21 18 38 -4 12 -14 27 -22 33 -13 10 -12
14 11 29 15 9 27 24 27 32 0 18 46 97 65 113 8 7 15 16 15 21 0 24 -30 2 -102
-73 -81 -85 -108 -98 -63 -29 15 22 24 44 21 49 -3 5 15 17 39 27 56 21 64 33
36 57 l-23 18 24 9 c12 5 40 30 61 55 36 43 37 46 17 56 -18 10 -19 13 -5 34
14 20 13 26 0 54 -17 33 -12 74 11 93 8 6 14 18 14 25 0 17 12 18 28 2 9 -9
12 -8 12 4 0 9 19 33 42 52 l42 36 -65 0 -64 1 24 19 c13 11 31 20 41 20 24 0
91 76 84 95 -5 12 2 15 30 15 32 0 38 4 57 43 12 23 28 46 35 50 18 10 18 31
-1 47 -23 19 -1 48 53 72 25 11 64 34 85 49 47 34 87 39 87 10 0 -26 37 -51
73 -51 32 0 62 14 94 43 19 17 25 18 38 7 14 -12 18 -11 26 1 5 8 9 17 9 22 0
16 16 5 32 -23 21 -37 48 -40 48 -5 0 14 -4 25 -10 25 -5 0 -10 4 -10 9 0 4
12 8 28 9 15 0 73 3 130 7 l103 8 -6 -25 c-10 -38 7 -41 51 -8 22 16 53 31 69
35 17 4 42 11 57 17 19 7 41 6 76 -3 48 -12 51 -11 96 19 53 36 62 38 70 17 3
-8 15 -15 26 -15 11 0 23 7 26 15 9 23 21 18 29 -12 10 -43 45 -93 64 -93 9 0
26 7 37 15 10 8 29 15 42 15 12 0 22 6 22 14 0 23 19 29 51 16 25 -11 32 -10
47 3 9 8 29 18 45 21 87 19 80 20 74 -13 -8 -37 8 -49 25 -21 16 26 32 25 67
-1 35 -26 61 -17 35 12 -20 23 -12 49 16 49 17 0 19 -3 12 -17 -12 -20 3 -59
25 -67 8 -3 23 -1 33 4 23 13 30 13 30 0 0 -5 -29 -23 -65 -39 -36 -16 -65
-32 -65 -35 0 -3 62 -4 138 -3 l137 2 3 -33 c3 -27 7 -32 20 -27 47 20 52 18
52 -13 0 -35 9 -43 73 -67 26 -10 46 -23 44 -28 -5 -17 31 -47 56 -47 39 0 67
12 67 28 0 13 3 13 19 -2 18 -16 20 -16 29 0 13 24 30 10 38 -31 5 -28 11 -35
30 -35 16 0 34 -14 59 -46 19 -26 35 -53 35 -60 0 -8 12 -16 28 -19 58 -13 78
-37 40 -51 -18 -6 -11 -8 32 -11 30 -2 59 -8 65 -14 5 -5 22 -9 39 -9 l30 0
-27 -28 -27 -28 22 -22 c19 -18 20 -22 6 -22 -10 0 -34 11 -54 25 -20 14 -45
25 -55 25 -17 0 -16 -3 6 -36 14 -20 25 -43 25 -50 0 -7 18 -27 39 -46 23 -18
43 -46 47 -63 l7 -30 -26 28 c-15 16 -37 27 -52 27 -31 0 -31 -1 0 -59 24 -43
76 -83 83 -63 8 25 29 43 44 37 21 -8 28 -36 28 -120 0 -38 5 -77 10 -85 7
-11 10 2 10 43 0 31 4 57 9 57 5 0 17 -21 27 -46 15 -39 16 -51 4 -82 -11 -32
-11 -37 6 -49 11 -8 36 -13 59 -11 34 3 40 7 43 28 2 14 10 30 18 36 16 13 35
69 26 78 -3 3 -14 6 -24 6 -26 0 -22 15 9 39 32 26 67 36 90 26 16 -6 16 -8
-4 -25 -17 -14 -19 -19 -9 -23 8 -3 17 -19 21 -36 8 -37 15 -38 44 -7 26 28
44 25 59 -10 7 -13 18 -24 25 -24 7 0 26 -13 42 -30 31 -32 65 -40 65 -15 0 8
5 15 10 15 6 0 10 -4 10 -9 0 -7 -8 -19 -47 -70 -6 -8 -63 52 -63 66 0 7 -7
13 -15 13 -12 0 -10 -11 10 -56 14 -31 25 -58 25 -60 0 -2 13 -4 28 -4 40 0
58 -25 71 -93 12 -68 5 -89 -39 -112 -38 -20 -39 -36 -1 -29 36 8 52 -13 25
-33 -16 -11 -16 -15 -5 -22 10 -6 2 -9 -22 -8 -48 1 -70 -19 -64 -57 2 -17 0
-41 -6 -53 l-10 -23 -11 23 c-13 24 -49 32 -103 22 -46 -8 -37 -25 21 -40 26
-7 55 -20 64 -29 15 -15 15 -16 -5 -16 -32 0 -38 -19 -13 -45 12 -12 28 -49
36 -80 14 -53 14 -62 -1 -101 -9 -24 -14 -53 -10 -64 4 -12 1 -27 -5 -35 -11
-13 -7 -15 24 -15 37 0 44 -8 25 -27 -17 -17 19 -87 37 -72 16 13 35 3 28 -15
-3 -8 6 -26 20 -41 20 -22 23 -31 15 -41 -6 -8 -19 -14 -28 -14 -9 -1 -29 -7
-46 -15 l-30 -15 40 6 c22 3 52 8 66 11 24 5 27 2 31 -31 2 -23 -1 -41 -9 -48
-18 -15 -17 -21 17 -71 18 -27 30 -58 30 -78 0 -37 -10 -32 -25 14 -12 38 -27
38 -38 0 -19 -64 -27 -76 -42 -63 -12 10 -16 7 -25 -14 -10 -29 -30 -35 -30
-10 0 8 5 25 11 36 17 31 -4 45 -30 19 -17 -17 -25 -19 -45 -10 -15 7 -35 8
-53 3 -27 -8 -26 -8 16 -13 39 -5 46 -10 55 -38 6 -18 20 -39 31 -48 20 -15
20 -15 1 -30 -27 -21 -33 -19 -48 12 -23 49 -43 40 -78 -32 -29 -60 -34 -65
-48 -51 -13 12 -13 18 -2 31 7 8 10 18 8 21 -3 3 -16 -9 -28 -25 -19 -28 -27
-31 -76 -31 -30 0 -54 -4 -54 -10 0 -14 44 -23 70 -15 19 6 20 4 12 -12 -22
-41 -84 -73 -142 -73 -37 0 -68 -34 -50 -55 7 -9 10 -19 6 -22 -4 -4 -11 -2
-15 5 -12 20 -79 -12 -83 -40 -2 -13 -10 -23 -18 -24 -8 -1 -26 -2 -40 -3 -21
-1 -28 -10 -40 -49 -11 -33 -23 -51 -42 -60 -15 -7 -29 -20 -32 -30 -7 -22
-86 -72 -114 -72 -11 0 -24 5 -28 11 -4 6 -20 9 -39 6 -20 -3 -41 0 -53 9 -19
13 -22 12 -32 -5 -15 -29 -13 -31 28 -31 47 0 81 -22 65 -41 -6 -8 -13 -37
-14 -65 -3 -41 0 -57 16 -73 19 -22 19 -22 -5 -67 -23 -41 -23 -46 -8 -55 25
-14 32 -79 14 -123 -11 -27 -13 -44 -6 -62 15 -40 12 -68 -10 -82 -13 -8 -20
-23 -20 -41 0 -42 -10 -61 -36 -72 -29 -11 -31 -25 -4 -39 11 -6 20 -20 20
-31 0 -26 -27 -79 -41 -79 -18 0 13 -168 37 -207 19 -30 36 -158 28 -209 -6
-41 6 -81 29 -95 6 -5 2 -43 -13 -105 -19 -82 -38 -234 -40 -318 0 -16 -3 -17
-12 -8 -12 12 -48 17 -48 6 0 -3 11 -19 25 -36 14 -16 25 -36 25 -44 0 -19 10
-18 26 3 19 27 26 10 9 -23 -21 -40 -19 -70 6 -95 21 -21 21 -28 3 -116 -5
-25 -1 -39 20 -66 19 -24 26 -46 26 -78 0 -24 4 -50 9 -57 9 -16 -3 -91 -21
-130 -8 -17 -23 -28 -38 -30 -34 -5 -50 -28 -43 -63 3 -15 2 -40 -1 -54 -5
-20 -11 -25 -26 -20 -15 5 -23 0 -32 -19 -7 -17 -19 -26 -35 -26 -12 0 -31 -8
-41 -18 -10 -9 -27 -22 -38 -28 -15 -9 -16 -15 -7 -24 9 -10 1 -19 -35 -44
-32 -21 -51 -42 -58 -65 -7 -22 -21 -38 -40 -46 l-29 -11 48 -28 c49 -29 66
-63 25 -50 -35 10 -101 44 -122 63 -10 9 -17 12 -14 6 2 -5 11 -25 18 -42 8
-18 20 -33 26 -33 7 0 22 -12 33 -26 25 -32 29 -94 6 -94 -9 0 -15 9 -15 23
-1 21 -1 22 -15 3 -8 -11 -15 -32 -15 -48 0 -22 5 -28 21 -28 17 0 19 -3 10
-13 -6 -8 -12 -39 -13 -71 -2 -44 -7 -60 -21 -67 -10 -6 -17 -18 -15 -27 1 -9
-1 -22 -5 -29 -5 -8 0 -17 13 -25 25 -16 26 -40 0 -63 -13 -12 -20 -33 -22
-69 -2 -37 -7 -51 -18 -52 -8 -1 -21 -2 -27 -3 -7 0 -13 -8 -13 -16 0 -9 -7
-26 -16 -40 -17 -25 -10 -45 30 -93 23 -26 12 -45 -27 -48 -12 -1 -33 -4 -47
-7 -14 -3 -74 -15 -135 -28 -60 -12 -119 -27 -130 -33 -30 -18 -94 -35 -147
-39 -28 -3 -81 -21 -131 -45 -45 -23 -105 -46 -133 -52 -27 -7 -81 -21 -121
-31 -90 -24 -110 -24 -123 1 -9 17 -23 20 -108 22 -92 3 -97 4 -100 26 -2 12
4 43 14 68 17 44 17 45 -5 67 -25 27 -26 44 -6 71 17 22 20 66 5 66 -12 0 -30
-33 -30 -56 0 -9 -6 -22 -14 -28 -23 -19 -55 -128 -62 -211 -3 -44 -12 -90
-20 -102 -10 -17 -12 -33 -5 -61 6 -30 5 -46 -7 -65 -9 -15 -13 -30 -8 -34 4
-4 34 -8 67 -8 32 1 59 -2 59 -5 0 -3 -7 -16 -16 -28 -18 -26 -17 -26 59 -7
44 10 67 23 97 53 21 22 43 50 50 61 13 25 33 27 50 6 9 -11 17 -12 30 -5 24
13 60 13 60 0 0 -5 6 -10 14 -10 8 0 27 -11 43 -24 36 -31 392 -208 407 -203
6 2 16 -3 23 -12 10 -13 12 -3 13 54 0 39 4 75 8 81 11 16 87 52 126 60 20 3
39 10 42 15 7 12 61 12 68 0 3 -4 33 -11 66 -15 39 -5 63 -12 67 -21 3 -8 9
-12 14 -9 17 10 31 -7 18 -22 -8 -10 -8 -14 0 -14 16 0 14 -25 -4 -40 -12 -10
-9 -17 22 -47 27 -28 37 -33 44 -22 5 8 2 20 -8 31 -16 18 -12 22 19 19 21 -2
33 18 19 32 -13 13 -15 47 -3 47 5 0 17 -9 27 -20 24 -27 28 -26 44 13 12 31
13 32 23 10 6 -13 17 -23 25 -23 20 0 16 -14 -12 -40 -22 -20 -23 -26 -11 -39
25 -29 36 -105 21 -148 -5 -17 -3 -23 7 -23 8 0 19 -14 24 -31 11 -36 27 -40
34 -8 9 37 28 33 36 -6 5 -26 2 -41 -10 -54 -16 -17 -86 -44 -94 -36 -2 2 0
18 6 34 9 25 8 31 -3 31 -8 0 -17 -5 -21 -11 -3 -6 -16 -8 -28 -5 -11 3 -27 1
-35 -3 -9 -6 -21 -5 -32 2 -13 8 -21 7 -34 -3 -15 -12 -15 -15 6 -25 24 -13
19 -19 -24 -29 -23 -5 -29 -3 -37 19 -9 23 -15 26 -52 23 -36 -3 -44 -7 -46
-26 -2 -13 7 -40 20 -60 13 -20 30 -50 38 -65 8 -16 27 -35 42 -43 15 -8 28
-19 28 -23 0 -5 14 -4 31 2 28 11 33 10 46 -10 10 -15 26 -23 44 -23 15 0 31
-4 34 -10 3 -5 19 -10 36 -10 16 0 29 -4 29 -10 0 -5 -18 -10 -40 -10 -22 0
-40 -4 -40 -10 0 -5 7 -10 15 -10 28 0 60 -22 83 -56 20 -30 25 -33 42 -22 11
7 25 25 31 40 13 32 27 36 35 10 3 -9 10 -25 15 -35 6 -10 7 -33 3 -50 l-6
-31 32 28 c39 32 63 22 38 -16 -8 -13 -18 -34 -21 -48 -4 -14 -16 -36 -27 -50
l-20 -25 0 23 c0 31 -13 28 -44 -13 -15 -19 -35 -35 -45 -35 -10 0 -31 -10
-46 -22 -28 -22 -28 -22 -97 7 -12 5 -26 -2 -45 -21 -32 -32 -17 -45 22 -20
33 22 48 20 40 -4 -10 -31 3 -42 28 -25 15 9 27 11 37 5 8 -5 27 -10 42 -10
45 0 60 -35 56 -126 l-3 -77 29 -8 c38 -10 42 -6 22 23 -22 31 -20 39 9 32 25
-6 26 -4 29 36 1 8 9 16 19 18 13 3 17 -3 17 -26 0 -17 6 -32 15 -36 22 -8 18
-31 -7 -44 -21 -10 -20 -11 12 -11 50 -1 82 9 76 25 -3 7 1 18 9 24 26 21 32
-10 38 -189 1 -36 -2 -56 -10 -58 -9 -3 -13 7 -13 31 0 20 -4 36 -10 36 -14 0
-12 -94 2 -108 7 -7 20 -12 29 -12 18 0 25 -28 31 -115 2 -32 -1 -40 -15 -43
-16 -3 -17 -1 -8 16 17 31 13 45 -9 39 -24 -6 -36 9 -21 27 8 10 6 17 -8 30
-24 22 -38 14 -60 -33 -10 -22 -24 -37 -36 -38 -47 -4 -81 -17 -103 -37 -22
-20 -25 -20 -52 -4 -33 19 -45 10 -36 -27 9 -36 -21 -104 -50 -111 -26 -7 -47
3 -39 17 4 5 15 9 25 9 23 0 32 13 24 34 -8 22 -29 20 -45 -4 -11 -16 -32 -24
-89 -32 -87 -12 -100 -23 -100 -87 0 -61 -11 -77 -39 -62 -18 10 -27 8 -50 -9
-40 -28 -69 -26 -81 6 -7 18 -15 24 -26 20 -9 -3 -23 -6 -31 -6 -11 0 -8 -6 8
-20 l24 -19 -62 -1 c-71 0 -113 13 -113 35 0 11 10 15 36 15 40 0 44 23 5 28
-30 5 -59 -23 -67 -64 -7 -37 -15 -42 -34 -19 -10 12 -16 13 -27 3 -12 -10
-12 -13 1 -20 9 -5 16 -13 16 -18 0 -13 -32 0 -53 22 -10 10 -22 18 -27 18 -6
0 -10 15 -10 34 0 30 -2 33 -25 28 -20 -3 -25 0 -25 17 0 15 -6 21 -22 21 -12
0 -30 8 -40 17 -15 14 -21 15 -27 4 -14 -22 -46 -9 -43 18 4 24 3 24 -62 18
-40 -4 -66 -2 -66 3 0 6 5 10 11 10 7 0 -1 10 -17 22 -16 13 -35 22 -43 20
-10 -3 -12 3 -7 22 7 29 -5 34 -24 11 -19 -23 -4 -49 83 -132 98 -94 272 -212
371 -252 142 -58 223 -99 254 -131 33 -33 34 -50 2 -50 -27 0 -34 -17 -11 -29
23 -13 71 -14 87 -3 6 4 13 14 16 23 6 16 56 29 116 29 25 0 41 -8 63 -32 28
-31 31 -32 44 -15 20 27 27 5 15 -50 -13 -58 -43 -103 -83 -126 -24 -14 -28
-22 -24 -44 4 -20 -4 -35 -34 -68 -42 -45 -54 -100 -24 -111 20 -8 19 -27 -5
-75 -25 -48 -19 -64 18 -45 38 19 81 28 94 20 8 -5 7 -9 -4 -13 -14 -5 -12
-12 13 -50 17 -24 29 -44 27 -45 -28 -12 -43 -27 -43 -42 0 -26 -87 -51 -123
-34 -16 7 -29 7 -35 1 -18 -18 4 -31 53 -31 56 0 74 -15 29 -24 -48 -9 -117
-7 -124 4 -8 13 -85 13 -85 0 0 -20 135 -100 170 -100 28 0 25 -26 -5 -46 -15
-9 -25 -26 -25 -39 0 -13 -10 -30 -25 -39 -30 -20 -32 -46 -4 -53 12 -3 18
-11 15 -19 -7 -18 89 -19 149 -3 52 14 196 98 365 214 74 50 180 120 235 154
55 35 256 171 446 302 191 131 418 283 506 338 416 259 699 490 1024 833 196
208 268 306 359 488 79 158 91 233 96 637 2 177 8 343 14 369 6 27 26 73 45
105 59 96 150 288 199 418 26 68 67 167 90 220 68 151 158 416 241 707 20 72
40 136 44 143 6 9 25 4 71 -21 56 -29 73 -33 139 -33 89 1 137 21 194 84 55
61 70 97 75 185 l5 79 -26 -7 c-22 -5 -29 -1 -42 25 -17 32 -38 34 -43 5 -5
-22 34 -64 62 -68 13 -2 22 -12 24 -26 3 -20 0 -23 -18 -17 -11 4 -27 1 -35
-5 -11 -9 -17 -5 -30 19 -16 31 -38 38 -64 22 -11 -7 -9 -11 8 -20 22 -12 30
-46 9 -39 -18 6 -108 168 -108 195 0 36 18 36 34 -1 29 -69 94 -107 81 -46 -9
41 6 62 48 67 36 3 51 -7 52 -37 0 -10 12 -16 40 -18 38 -2 41 0 66 45 15 27
64 98 109 158 45 61 93 129 107 153 51 87 114 247 163 414 28 95 87 281 130
413 109 331 114 352 114 475 0 170 -64 525 -119 671 -50 129 -127 186 -243
177 -47 -3 -87 -18 -206 -76 -82 -40 -152 -72 -157 -72 -13 0 -2 40 33 129 32
83 34 127 2 74 -19 -33 -38 -42 -49 -23 -4 6 -24 22 -46 36 -21 13 -39 31 -39
39 0 9 -12 20 -26 25 -16 7 -24 16 -21 24 3 8 9 31 13 50 6 37 24 60 24 32 0
-17 72 -76 93 -76 9 0 19 5 22 10 13 22 35 10 35 -19 0 -39 15 -47 34 -19 18
25 21 70 6 97 -6 12 -4 47 5 102 34 204 44 287 38 327 -3 23 -9 42 -13 42 -5
0 -17 -16 -29 -36 -15 -25 -21 -52 -21 -96 l0 -61 -21 19 c-11 10 -30 19 -42
19 -20 0 -22 4 -19 47 3 43 1 49 -21 57 -30 12 -37 29 -37 90 0 54 7 66 27 49
11 -9 20 -7 41 9 23 17 27 28 27 69 0 46 -1 49 -30 54 -26 4 -30 10 -33 43
l-3 39 -42 -4 c-35 -2 -42 0 -45 17 -1 11 -10 44 -20 74 -16 52 -16 54 2 65
65 38 97 92 66 111 -6 4 -7 23 -4 45 6 36 4 40 -20 46 -20 5 -27 14 -31 43 -3
20 -10 55 -15 79 -6 23 -10 64 -10 90 0 30 -9 64 -25 95 -13 27 -27 69 -30 95
-10 79 -14 89 -35 95 -12 3 -20 14 -20 26 0 12 -12 28 -27 38 -16 9 -46 32
-68 51 -22 18 -46 37 -52 43 -7 5 -13 20 -13 33 0 13 -7 29 -15 36 -9 8 -15
30 -15 60 0 51 -11 66 -49 72 -35 5 -66 50 -52 76 20 37 13 86 -19 128 -16 21
-30 45 -30 52 0 6 -8 12 -18 12 -11 0 -27 9 -37 20 -10 11 -27 20 -37 20 -23
0 -78 -52 -78 -74 0 -20 -31 -36 -70 -36 -30 0 -32 2 -24 28 16 49 4 274 -14
280 -7 2 -12 21 -12 43 0 33 -4 41 -24 49 -19 7 -26 19 -31 55 -8 49 -33 75
-71 75 -12 0 -24 6 -27 14 -7 17 -106 86 -124 86 -9 0 -13 -17 -13 -51 l0 -51
-66 61 c-37 34 -73 61 -80 61 -8 0 -39 -22 -69 -50 -30 -27 -58 -50 -61 -50
-3 0 -19 11 -35 25 -29 24 -86 45 -122 45 -38 0 -55 19 -62 69 -5 37 -13 54
-31 66 -14 9 -29 13 -34 10 -14 -8 -13 -68 1 -82 11 -11 5 -33 -9 -33 -4 0
-13 14 -19 30 -9 24 -17 30 -42 30 -16 0 -33 -5 -37 -11 -4 -7 -20 -8 -43 -4
-89 16 -130 16 -172 2 -41 -14 -47 -14 -83 5 -27 14 -50 18 -75 14 -41 -6 -82
-12 -197 -27 -75 -10 -83 -9 -115 10 -37 23 -69 27 -86 10 -6 -6 -26 -9 -44
-7 -33 3 -34 5 -40 53 -4 28 -9 61 -13 73 -10 30 -36 28 -36 -2 0 -27 -15 -42
-25 -26 -3 5 -22 10 -41 10 -33 0 -34 -1 -34 -40 0 -56 -29 -67 -105 -39 -30
11 -86 24 -125 28 -56 6 -74 12 -86 29 -16 23 -61 30 -79 13 -6 -5 -45 -14
-89 -20 -58 -8 -86 -18 -108 -36 -52 -44 -102 -29 -112 33 -7 49 -16 52 -152
52 -84 0 -105 3 -125 19 -14 10 -42 26 -63 35 -21 9 -60 36 -88 61 -38 34 -58
45 -83 45 -36 0 -45 13 -45 61 0 34 25 40 35 9 17 -52 82 -43 120 17 12 19 29
32 41 33 11 0 29 6 39 14 17 12 20 30 23 125 5 147 2 161 -44 161 -19 0 -64
-14 -100 -31 -49 -24 -64 -36 -64 -53 0 -11 -4 -28 -9 -36 -14 -21 -108 77
-113 116 -2 23 -9 30 -33 35 -47 10 -128 10 -145 -1 -20 -12 -28 -203 -10
-225 19 -23 4 -45 -29 -45 -41 0 -49 -19 -20 -44 13 -12 30 -34 37 -50 11 -25
11 -32 -2 -44 -18 -18 -36 -8 -36 22 0 51 -59 55 -75 5 -9 -29 -55 -22 -73 11
-15 29 -10 132 9 173 9 21 20 27 53 29 45 3 43 -2 30 91 -7 52 -25 68 -55 49
-29 -18 -45 -14 -57 13 -10 21 -16 24 -39 19 -51 -12 -62 -23 -69 -69 -3 -25
-10 -45 -14 -45 -23 0 -46 65 -35 99 5 16 15 21 40 21 47 0 70 32 50 69 -7 14
-16 33 -18 42 -4 12 -13 15 -32 11 -18 -3 -36 3 -55 17 -16 11 -34 21 -40 21
-6 0 -22 12 -36 27 -24 26 -26 26 -90 17 -51 -8 -69 -7 -84 3 -17 12 -23 12
-42 -1 -36 -25 -56 -20 -72 19 -8 19 -21 35 -28 35 -7 0 -22 12 -33 27 -28 35
-44 23 -38 -26 5 -35 3 -40 -18 -43 -38 -5 -53 -48 -38 -108 10 -41 10 -54 -1
-75 -18 -33 1 -70 42 -84 32 -11 32 -24 1 -84 -14 -27 -33 -29 -33 -3 0 14
-42 26 -91 26 -21 0 -31 -7 -41 -27 -12 -24 -19 -28 -57 -28 -27 0 -46 5 -48
13 -3 8 6 12 27 12 38 0 70 16 70 35 0 8 12 22 26 31 20 13 25 23 21 43 -3 14
2 38 10 52 23 39 11 75 -28 83 -67 13 -87 8 -94 -23 -3 -17 -24 -46 -45 -65
-51 -46 -62 -69 -54 -112 4 -22 2 -45 -6 -59 -17 -32 -6 -55 25 -55 14 0 25
-4 25 -10 0 -5 -4 -10 -9 -10 -5 0 -22 -10 -38 -23 -40 -33 -60 -39 -78 -21
-9 9 -23 13 -35 9 -35 -11 -44 6 -15 29 23 18 28 32 35 95 6 51 13 77 24 83
22 13 20 34 -6 52 -37 26 -66 20 -89 -19 -11 -19 -29 -37 -39 -40 -23 -7 -35
-59 -26 -112 12 -69 8 -83 -42 -151 -72 -95 -81 -104 -105 -100 -15 2 -23 12
-28 34 -8 42 -17 54 -40 54 -35 0 -19 20 22 26 44 7 114 64 107 86 -3 7 -22
23 -43 35 -21 12 -43 30 -49 40 -10 17 -13 172 -5 223 3 20 -1 26 -21 28 -58
8 -77 58 -39 106 26 33 43 33 81 1 32 -27 43 -30 53 -15 3 6 20 10 37 10 l31
0 -27 -21 c-14 -11 -26 -27 -26 -34 0 -18 31 -35 64 -35 27 0 143 81 153 106
3 8 12 14 19 14 8 0 17 14 21 31 7 36 49 66 106 75 41 7 48 25 21 55 -14 16
-14 19 10 34 25 17 50 17 118 0 63 -16 30 71 -38 100 -41 17 -43 38 -6 60 16
10 32 27 38 39 8 20 150 103 160 93 2 -2 -9 -22 -26 -45 -39 -54 -39 -72 -1
-72 17 0 33 5 36 10 3 6 18 10 32 10 25 0 25 1 18 59 l-7 60 53 15 c29 9 61
16 71 16 9 0 24 13 33 29 14 29 17 29 70 24 47 -5 61 -3 85 16 18 12 44 21 66
21 21 0 63 7 95 16 50 14 64 24 113 81 31 36 55 71 53 77 -6 18 -40 17 -77 -3z
m-932 -513 c18 -18 14 -36 -9 -43 -26 -9 -41 12 -28 37 11 21 20 23 37 6z
m-190 -152 c-2 -15 -11 -22 -30 -24 -32 -4 -38 17 -13 42 21 20 47 9 43 -18z
m-140 -87 c-2 -6 -8 -10 -13 -10 -5 0 -11 4 -13 10 -2 6 4 11 13 11 9 0 15 -5
13 -11z m750 -135 c2 -16 7 -33 12 -39 4 -5 10 -27 14 -48 4 -21 18 -47 32
-59 13 -12 24 -26 24 -32 0 -16 -76 -76 -96 -76 -14 0 -16 7 -11 37 5 29 0 47
-23 89 -37 63 -37 84 -5 112 14 12 25 29 25 38 0 28 25 9 28 -22z m150 -6 c8
-8 9 -15 1 -25 -14 -16 -49 0 -49 22 0 18 31 20 48 3z m152 -57 c0 -5 -9 -11
-20 -14 -16 -4 -20 -14 -20 -51 0 -45 0 -45 -30 -39 -23 4 -30 2 -30 -11 0
-22 -17 -20 -30 4 -8 15 -6 21 10 30 14 7 20 21 20 45 0 18 6 36 13 38 21 9
87 7 87 -2z m-1372 -144 c3 -20 -6 -38 -30 -66 -18 -20 -42 -50 -54 -66 l-21
-29 -17 26 c-13 21 -15 31 -7 47 6 11 11 32 11 48 0 47 33 75 85 70 25 -2 31
-7 33 -30z m37 -107 c-3 -5 -10 -10 -16 -10 -5 0 -9 5 -9 10 0 6 7 10 16 10 8
0 12 -4 9 -10z m1179 -9 c3 -5 -1 -14 -9 -21 -8 -7 -15 -19 -15 -26 0 -8 -10
-14 -25 -14 -30 0 -31 4 -4 41 20 29 43 37 53 20z m272 -31 c18 0 19 -57 2
-62 -12 -4 -43 -53 -73 -115 -8 -18 -20 -33 -25 -33 -15 0 -12 -21 6 -41 23
-26 10 -53 -37 -73 -29 -13 -55 -17 -88 -13 -39 4 -52 12 -83 49 -34 39 -40
42 -58 30 -25 -16 -34 -11 -50 28 -16 38 -7 60 23 60 13 0 28 5 34 11 8 8 19
7 40 -4 15 -9 36 -18 45 -21 27 -8 53 -55 39 -69 -16 -16 -14 -54 5 -61 9 -3
25 -6 36 -6 19 0 20 4 14 54 -7 53 -6 55 23 72 36 21 39 41 10 78 -28 36 -30
85 -4 100 11 6 33 21 49 33 30 21 30 21 54 2 14 -10 31 -19 38 -19z m50 3
c-11 -11 -17 4 -9 23 7 18 8 18 11 1 2 -10 1 -21 -2 -24z m-456 -29 c8 -14 14
-41 14 -60 0 -68 -46 -72 -64 -5 -19 71 20 122 50 65z m-1050 -14 c0 -5 -2
-10 -4 -10 -3 0 -8 5 -11 10 -3 6 -1 10 4 10 6 0 11 -4 11 -10z m-96 -170 c15
-5 34 -26 43 -46 17 -35 17 -36 -2 -50 -22 -16 -45 -18 -45 -4 0 5 -13 23 -30
40 -52 53 -34 86 34 60z m196 -19 c0 -9 5 -22 11 -28 7 -7 3 -17 -17 -32 -31
-24 -43 -23 -58 3 -8 14 -8 20 2 23 7 3 19 18 28 34 15 31 34 31 34 0z m811 8
c27 -27 23 -73 -8 -77 -14 -2 -27 5 -38 21 -8 13 -27 29 -41 36 -21 9 -24 14
-14 26 18 22 76 19 101 -6z m1053 -2 c16 -12 16 -14 -3 -31 -12 -11 -21 -31
-21 -48 0 -23 -4 -28 -24 -28 -29 0 -56 33 -49 60 7 27 41 60 61 60 10 0 26
-6 36 -13z m-2312 -39 c2 -28 8 -34 31 -36 44 -5 31 -18 -30 -31 -78 -15 -83
-15 -83 15 0 25 48 84 69 84 5 0 11 -15 13 -32z m-202 -34 c0 -8 -4 -14 -10
-14 -5 0 -10 9 -10 21 0 11 5 17 10 14 6 -3 10 -13 10 -21z m350 -11 c0 -14
-78 -98 -84 -92 -9 8 11 59 31 81 16 18 53 25 53 11z m-206 -132 c-13 -23 -15
-33 -6 -43 9 -11 4 -18 -22 -32 -47 -25 -70 -18 -74 20 -3 27 1 33 23 38 14 4
34 15 45 26 11 11 27 20 36 20 13 0 13 -4 -2 -29z m1413 -177 c-3 -3 -12 -4
-19 -1 -8 3 -5 6 6 6 11 1 17 -2 13 -5z m933 -2 c0 -11 -22 -32 -32 -32 -5 0
-4 9 2 20 11 20 30 28 30 12z m3145 -182 c3 -5 -5 -15 -19 -21 -20 -9 -29 -9
-41 1 -13 11 -13 15 -3 21 18 12 56 11 63 -1z m-2527 -148 c3 -9 -2 -13 -14
-10 -9 1 -19 9 -22 16 -3 9 2 13 14 10 9 -1 19 -9 22 -16z m-3237 -55 c-8 -8
-11 -7 -11 4 0 20 13 34 18 19 3 -7 -1 -17 -7 -23z m3419 -38 c0 -5 -7 -6 -15
-3 -8 4 -15 13 -15 21 0 13 3 13 15 3 8 -7 15 -16 15 -21z m-3482 -81 c26 -26
4 -122 -27 -116 -22 4 -31 60 -15 97 14 34 23 38 42 19z m3422 -8 c0 -5 -4
-10 -10 -10 -5 0 -10 5 -10 10 0 6 5 10 10 10 6 0 10 -4 10 -10z m170 -45
c-13 -16 -50 -21 -50 -7 0 15 13 22 38 22 21 0 22 -2 12 -15z m93 -89 c9 -7
17 -19 17 -25 0 -17 -39 -4 -65 20 -19 19 -19 19 5 19 14 0 33 -7 43 -14z
m227 -26 c0 -11 -4 -20 -10 -20 -5 0 -10 9 -10 20 0 11 5 20 10 20 6 0 10 -9
10 -20z m10 -114 c0 -15 -37 -32 -47 -22 -9 8 17 36 33 36 8 0 14 -6 14 -14z
m2270 -8 c0 -16 -3 -19 -11 -11 -6 6 -8 16 -5 22 11 17 16 13 16 -11z m-5723
-25 c5 -13 -32 -27 -47 -18 -8 5 -7 11 1 21 14 17 40 15 46 -3z m3193 -12 c5
-11 6 -22 2 -25 -14 -8 -46 20 -38 32 11 17 24 15 36 -7z m200 -22 c0 -5 -4
-9 -10 -9 -5 0 -10 7 -10 16 0 8 5 12 10 9 6 -3 10 -10 10 -16z m-155 -44 c0
-16 -6 -30 -12 -32 -9 -3 -13 7 -13 32 0 25 4 35 13 33 6 -3 12 -17 12 -33z
m215 -14 c0 -10 -7 -24 -16 -31 -12 -11 -18 -10 -31 3 -13 13 -14 19 -3 31 18
22 50 20 50 -3z m-110 -97 c0 -25 -25 -84 -36 -84 -3 0 -3 13 1 29 3 17 1 39
-5 51 -6 12 -9 28 -6 36 9 24 46 -2 46 -32z m238 17 c3 -8 -1 -12 -9 -9 -7 2
-15 10 -17 17 -3 8 1 12 9 9 7 -2 15 -10 17 -17z m-4198 -10 c0 -6 -4 -13 -10
-16 -5 -3 -10 1 -10 9 0 9 5 16 10 16 6 0 10 -4 10 -9z m-295 -18 c-4 -10 -9
-46 -12 -81 -5 -51 -3 -66 12 -82 17 -19 17 -21 2 -38 -10 -10 -17 -23 -17
-29 0 -6 -7 -16 -15 -23 -13 -10 -19 -10 -35 5 -24 21 -26 73 -6 113 7 15 17
45 20 67 4 22 14 50 22 63 17 26 39 30 29 5z m4561 -9 c8 -32 -8 -51 -25 -30
-13 16 -6 56 9 56 6 0 13 -12 16 -26z m-3866 -139 c0 -8 -7 -15 -15 -15 -16 0
-20 12 -8 23 11 12 23 8 23 -8z m100 -49 c0 -17 -24 -38 -33 -29 -15 15 -6 43
13 43 11 0 20 -6 20 -14z m3910 -17 c0 -10 -4 -19 -10 -19 -5 0 -10 12 -10 26
0 14 4 23 10 19 6 -3 10 -15 10 -26z m-3950 -64 c0 -4 -8 -20 -17 -38 -13 -24
-18 -28 -21 -15 -4 20 14 58 28 58 6 0 10 -2 10 -5z m-415 -84 c-3 -6 -11 -11
-17 -11 -6 0 -6 6 2 15 14 17 26 13 15 -4z m115 -51 c0 -5 -7 -10 -16 -10 -8
0 -12 5 -9 10 3 6 10 10 16 10 5 0 9 -4 9 -10z m-119 -133 c-8 -8 -11 -5 -11
9 0 27 14 41 18 19 2 -9 -1 -22 -7 -28z m4284 -57 c-5 -8 -11 -8 -17 -2 -6 6
-7 16 -3 22 5 8 11 8 17 2 6 -6 7 -16 3 -22z m-3989 5 c-11 -8 -22 -12 -25 -9
-6 6 19 24 34 24 6 -1 1 -7 -9 -15z m-339 -26 c1 -13 -1 -16 -3 -7 -3 10 -11
15 -20 11 -10 -4 -12 0 -8 11 9 24 29 14 31 -15z m173 -19 c0 -11 -7 -20 -15
-20 -8 0 -15 9 -15 20 0 11 7 20 15 20 8 0 15 -9 15 -20z m220 11 c0 -14 -31
-42 -40 -36 -15 9 2 45 21 45 11 0 19 -4 19 -9z m-105 -21 c3 -5 -1 -10 -10
-10 -9 0 -13 5 -10 10 3 6 8 10 10 10 2 0 7 -4 10 -10z m-235 -60 c0 -5 -5
-10 -11 -10 -5 0 -7 5 -4 10 3 6 8 10 11 10 2 0 4 -4 4 -10z m335 -10 c-3 -5
-11 -10 -16 -10 -6 0 -7 5 -4 10 3 6 11 10 16 10 6 0 7 -4 4 -10z m-91 -13
c-2 -7 -13 -18 -24 -25 -17 -10 -20 -10 -20 2 0 8 8 20 18 25 23 14 32 13 26
-2z m4043 -39 c34 -32 28 -39 -17 -17 -23 11 -38 24 -35 29 10 16 27 12 52
-12z m-4367 -97 c0 -36 -18 -58 -54 -67 -32 -8 -32 -7 9 58 31 50 45 53 45 9z
m4345 19 c3 -5 -1 -10 -9 -10 -9 0 -16 5 -16 10 0 6 4 10 9 10 6 0 13 -4 16
-10z m66 -82 c10 -18 9 -20 -6 -15 -9 4 -19 7 -21 7 -2 0 -4 7 -4 15 0 22 18
18 31 -7z m19 -48 c0 -5 -7 -10 -16 -10 -8 0 -12 5 -9 10 3 6 10 10 16 10 5 0
9 -4 9 -10z m-4402 -55 c3 -32 1 -37 -13 -31 -9 3 -21 6 -26 6 -13 0 -11 27 3
50 18 29 33 19 36 -25z m4457 -25 c3 -6 -1 -7 -9 -4 -18 7 -21 14 -7 14 6 0
13 -4 16 -10z m-4375 -40 c0 -24 -35 -48 -81 -55 -34 -6 -34 -6 -9 9 14 8 35
28 48 45 24 33 42 33 42 1z m-125 10 c3 -6 -1 -13 -10 -16 -19 -8 -30 0 -20
15 8 14 22 14 30 1z m-75 -15 c0 -9 -9 -15 -22 -15 -22 1 -23 1 -4 15 25 19
26 19 26 0z m-222 -127 c-5 -32 -28 -35 -28 -4 0 17 5 26 16 26 10 0 14 -7 12
-22z m450 0 c5 -24 -44 -36 -65 -15 -22 21 -7 39 30 35 21 -2 33 -9 35 -20z
m4398 -34 c-3 -9 1 -25 9 -37 20 -29 19 -37 -5 -37 -20 0 -60 33 -60 49 0 15
30 41 47 41 10 0 13 -6 9 -16z m74 -108 c0 -3 -4 -8 -10 -11 -5 -3 -10 -1 -10
4 0 6 5 11 10 11 6 0 10 -2 10 -4z m-4911 -124 c6 -10 19 -65 31 -121 l21
-103 -21 -39 c-11 -22 -20 -46 -20 -55 0 -21 -27 -29 -46 -13 -27 22 -33 52
-17 83 17 32 10 76 -12 76 -18 0 -19 5 -3 30 10 15 10 26 0 53 -15 43 -15 80
0 95 18 18 56 14 67 -6z m5731 -377 c119 -32 253 -87 305 -124 22 -15 50 -31
62 -35 29 -9 91 -79 114 -130 20 -43 25 -131 10 -155 -8 -13 -21 -11 -91 7
-45 12 -114 35 -154 51 -39 15 -110 40 -157 54 -47 15 -94 36 -104 47 -20 22
-52 25 -104 10 -44 -12 -109 2 -128 29 -20 29 -58 27 -145 -8 -64 -25 -92 -29
-221 -36 -135 -6 -155 -5 -232 16 -68 18 -90 20 -110 11 -19 -9 -41 -7 -101 8
-43 11 -80 22 -82 25 -3 3 2 11 11 18 8 6 17 25 19 42 3 26 8 31 39 36 20 3
58 20 84 37 26 17 64 34 84 38 20 3 47 10 61 15 14 4 75 13 135 19 61 6 132
18 158 26 126 41 392 40 547 -1z m2204 -231 c9 -3 16 -10 16 -16 0 -14 -53 -5
-58 10 -4 13 16 16 42 6z m-568 -41 c-10 -10 -19 5 -10 18 6 11 8 11 12 0 2
-7 1 -15 -2 -18z m-256 -124 c0 -5 -9 -9 -20 -9 -22 0 -27 16 -7 23 15 5 27
-1 27 -14z m37 -77 c-9 -15 -26 -47 -38 -71 -20 -41 -23 -43 -35 -27 -20 28 1
71 43 87 16 6 23 17 23 36 0 21 3 24 12 15 10 -10 9 -18 -5 -40z m608 -140
c-5 -20 -8 -22 -21 -11 -12 10 -15 24 -10 57 3 24 9 49 13 55 10 16 25 -71 18
-101z m-2681 -14 c24 -34 20 -73 -10 -97 -34 -27 -40 -26 -70 4 -17 17 -24 34
-22 53 2 23 7 27 31 25 21 -1 27 3 27 18 0 26 25 24 44 -3z m-174 -51 c6 -29
24 -82 40 -116 17 -35 28 -66 26 -70 -3 -4 -63 3 -134 15 -95 16 -138 28 -161
45 -36 26 -40 49 -10 49 12 0 43 23 73 53 49 49 93 73 138 76 12 1 19 -13 28
-52z m763 -3 c48 -32 47 -47 -2 -29 -60 21 -81 34 -81 51 0 20 31 11 83 -22z
m-303 -9 c0 -8 -4 -15 -10 -15 -5 0 -10 7 -10 15 0 8 5 15 10 15 6 0 10 -7 10
-15z m2400 11 c0 -77 38 -404 57 -496 28 -132 35 -308 15 -360 -14 -35 -17
-20 -36 160 -9 86 -25 191 -36 235 -33 128 -40 465 -9 465 5 0 9 -2 9 -4z
m-2790 -76 c14 -35 8 -49 -15 -30 -16 13 -22 75 -6 66 4 -3 14 -19 21 -36z
m968 -72 c14 -12 16 -44 2 -53 -12 -7 -56 21 -64 42 -13 33 25 40 62 11z
m-1067 -122 c10 -21 7 -28 -22 -55 -41 -37 -49 -37 -99 -9 -36 21 -39 22 -57
5 -19 -16 -21 -16 -43 8 -17 19 -20 25 -8 25 8 0 37 11 64 25 34 17 65 25 102
25 46 0 54 -3 63 -24z m99 -26 c0 -10 -52 -40 -70 -40 -22 0 -8 28 22 43 32
15 48 14 48 -3z m54 -21 c-10 -11 -28 -26 -39 -31 -14 -8 -12 -2 9 21 33 34
61 44 30 10z m2063 -16 c-3 -10 -5 -4 -5 12 0 17 2 24 5 18 2 -7 2 -21 0 -30z
m-2177 -62 c0 -12 -20 -25 -27 -18 -7 7 6 27 18 27 5 0 9 -4 9 -9z m2187 -53
c-2 -13 -4 -5 -4 17 -1 22 1 32 4 23 2 -10 2 -28 0 -40z m0 -70 c-3 -7 -5 -2
-5 12 0 14 2 19 5 13 2 -7 2 -19 0 -25z m-1467 -558 c0 -11 -4 -20 -10 -20 -5
0 -10 9 -10 20 0 11 5 20 10 20 6 0 10 -9 10 -20z m-30 -50 l5 -34 12 27 c18
38 57 37 78 -3 11 -21 23 -30 40 -30 30 0 39 -14 24 -38 -10 -16 -8 -24 11
-50 14 -19 28 -60 36 -108 7 -42 16 -79 19 -82 3 -3 14 3 25 13 30 27 24 8
-11 -36 -34 -43 -49 -43 -49 1 0 36 -48 96 -64 80 -8 -8 -6 -15 7 -24 16 -13
16 -14 1 -20 -9 -3 -22 -2 -28 3 -6 5 -27 12 -46 14 -19 3 -36 6 -38 6 -1 1 5
12 13 25 15 23 15 26 -4 45 -17 17 -29 20 -62 15 -33 -6 -44 -3 -64 16 -34 32
-38 62 -16 120 18 46 18 51 3 59 -15 8 -14 11 8 19 14 5 32 12 40 15 35 14 55
3 60 -33z m-140 -30 c0 -5 -2 -10 -4 -10 -3 0 -8 5 -11 10 -3 6 -1 10 4 10 6
0 11 -4 11 -10z m360 -58 c0 -13 -12 -22 -22 -16 -10 6 -1 24 13 24 5 0 9 -4
9 -8z m10 -352 c0 -5 -4 -10 -10 -10 -5 0 -10 5 -10 10 0 6 5 10 10 10 6 0 10
-4 10 -10z m1540 -60 c0 -5 -4 -10 -10 -10 -5 0 -10 5 -10 10 0 6 5 10 10 10
6 0 10 -4 10 -10z m-2160 -489 c0 -12 -20 -25 -27 -18 -7 7 6 27 18 27 5 0 9
-4 9 -9z m83 -73 c16 -33 23 -38 53 -38 28 0 36 -5 45 -26 11 -30 -10 -74 -36
-74 -26 0 -16 -22 30 -67 l45 -43 -7 -67 c-7 -67 -8 -69 -65 -122 l-58 -54 0
31 c0 24 -5 31 -22 34 -17 2 -36 28 -76 101 -43 80 -55 114 -64 177 -15 99 -6
131 39 144 25 7 38 5 57 -8 41 -26 50 -19 27 20 -19 32 -20 35 -4 32 10 -2 26
-20 36 -40z m-1213 -111 c0 -23 -34 -47 -58 -40 -31 8 -27 22 11 38 41 18 47
18 47 2z m-553 -323 c43 -30 59 -35 85 -30 102 19 109 19 168 -5 56 -22 60
-26 60 -56 0 -17 5 -44 11 -59 7 -20 7 -42 -1 -75 -8 -34 -9 -58 -1 -85 7 -26
7 -40 1 -42 -15 -6 -12 -65 5 -90 15 -20 14 -24 -5 -50 -24 -32 -38 -126 -21
-136 16 -10 14 -23 -9 -46 -23 -23 -40 -26 -40 -7 0 18 -40 41 -52 29 -13 -13
-2 -32 17 -32 26 0 4 -29 -30 -40 -18 -6 -41 -20 -50 -30 -21 -24 -38 -25 -54
-6 -10 12 -6 22 22 53 19 21 32 45 30 53 -3 8 -30 53 -62 99 -53 78 -56 87
-56 142 1 32 -3 59 -7 59 -4 0 -2 14 4 30 10 31 3 100 -10 100 -4 0 -12 19
-18 43 -6 23 -19 74 -29 112 -10 39 -25 78 -33 88 -28 32 18 20 75 -19z m1908
-24 c3 -5 -1 -10 -10 -10 -9 0 -13 5 -10 10 3 6 8 10 10 10 2 0 7 -4 10 -10z
m-25 -55 c0 -16 -42 -30 -65 -21 -22 8 -18 28 4 21 11 -3 22 -1 26 5 9 15 35
12 35 -5z m-2180 -583 c0 -15 -2 -15 -10 -2 -13 20 -13 33 0 25 6 -3 10 -14
10 -23z m84 -119 c-28 -20 -34 -16 -34 24 l0 36 26 -24 c23 -22 24 -24 8 -36z
m221 7 c14 -5 28 -17 32 -25 6 -17 -32 -65 -52 -65 -19 0 -98 78 -90 89 8 14
75 14 110 1z m1549 -131 c80 -37 -2 -99 -89 -68 -34 13 -40 12 -87 -15 -62
-35 -141 -39 -185 -11 l-27 18 23 8 c12 5 68 16 124 25 56 9 120 24 142 34 48
22 66 24 99 9z m634 -88 c4 -23 -18 -81 -30 -81 -5 0 -8 -12 -8 -26 0 -19 -5
-25 -17 -22 -30 5 -28 62 2 114 28 47 48 53 53 15z m-1384 -22 c-7 -12 -44
-12 -44 0 0 5 6 11 13 14 17 6 38 -3 31 -14z m-2059 -119 c-3 -5 -11 -10 -16
-10 -6 0 -7 5 -4 10 3 6 11 10 16 10 6 0 7 -4 4 -10z m455 -54 c0 -3 -4 -8
-10 -11 -5 -3 -10 -1 -10 4 0 6 5 11 10 11 6 0 10 -2 10 -4z m90 0 c0 -3 -4
-8 -10 -11 -5 -3 -10 -1 -10 4 0 6 5 11 10 11 6 0 10 -2 10 -4z m773 -136 c4
-50 12 -100 17 -111 6 -11 7 -25 3 -32 -4 -6 -8 -25 -8 -42 0 -20 -5 -30 -15
-30 -12 0 -17 20 -23 85 -9 89 -1 233 12 225 5 -2 11 -45 14 -95z m87 -62 l-1
-83 -29 35 c-20 24 -29 46 -29 70 l0 35 14 -25 c14 -24 14 -24 15 -3 0 28 10
53 21 53 5 0 9 -37 9 -82z m69 -5 c-1 -60 -4 -80 -9 -63 -16 49 -11 150 7 150
2 0 3 -39 2 -87z m-229 -33 c6 -27 10 -55 8 -62 -7 -21 -25 21 -33 76 -10 64
9 54 25 -14z m250 -84 c0 -8 -4 -17 -9 -20 -10 -7 -23 19 -14 28 11 11 23 6
23 -8z m-146 -101 c8 -30 1 -45 -20 -45 -9 0 -14 10 -14 28 0 47 24 58 34 17z
m-194 -56 c0 -5 -7 -9 -15 -9 -15 0 -20 12 -9 23 8 8 24 -1 24 -14z m-136 -75
c8 -21 -1 -34 -24 -34 -22 0 -34 15 -26 35 7 20 42 19 50 -1z m396 -588 c0
-16 -26 -46 -39 -46 -15 0 -33 30 -27 45 7 20 66 21 66 1z m-50 -86 c0 -5 -4
-10 -10 -10 -5 0 -10 5 -10 10 0 6 5 10 10 10 6 0 10 -4 10 -10z m274 -134
c-9 -22 -44 -42 -44 -24 0 23 31 61 41 51 6 -6 7 -17 3 -27z m1 -195 c10 -17
-12 -21 -25 -6 -10 12 -10 15 3 15 9 0 18 -4 22 -9z m-95 -215 c0 -3 -4 -8
-10 -11 -5 -3 -10 -1 -10 4 0 6 5 11 10 11 6 0 10 -2 10 -4z m-180 -35 c0 -6
-4 -13 -10 -16 -5 -3 -10 1 -10 9 0 9 5 16 10 16 6 0 10 -4 10 -9z m47 -43
c-3 -8 -6 -5 -6 6 -1 11 2 17 5 13 3 -3 4 -12 1 -19z m23 -943 c-7 -8 -20 -15
-28 -15 -13 0 -12 3 4 15 25 19 40 19 24 0z m-12 -55 c25 -23 27 -31 11 -47
-18 -18 -1 -33 36 -33 39 0 53 14 28 28 -14 9 -15 13 -4 26 7 9 24 16 37 16
22 0 23 -3 17 -46 -5 -37 -15 -55 -51 -91 -41 -41 -47 -44 -81 -38 -20 4 -42
12 -49 17 -9 8 -17 6 -30 -6 -22 -19 -56 -21 -71 -3 -9 11 1 17 48 30 60 17
88 38 76 57 -5 9 -10 9 -18 1 -13 -13 -77 -15 -77 -2 0 5 9 12 19 16 30 9 71
45 71 62 0 13 -3 13 -15 3 -16 -14 -18 -10 -9 14 8 22 36 20 62 -4z m-163 -90
c3 -5 2 -17 -3 -27 -9 -15 -11 -14 -20 4 -15 27 7 49 23 23z m-57 -82 c-5 -15
-48 -24 -48 -10 0 14 12 22 33 22 10 0 17 -5 15 -12z m302 -28 c0 -5 -4 -10
-10 -10 -5 0 -10 5 -10 10 0 6 5 10 10 10 6 0 10 -4 10 -10z m-119 -32 c19 -9
41 -24 49 -32 11 -14 9 -16 -15 -16 -15 0 -34 -8 -40 -17 -12 -17 -14 -17 -34
1 -14 13 -18 23 -11 31 5 6 6 22 3 34 -3 13 -2 22 3 19 5 -2 25 -11 45 -20z
m-132 -21 c8 -11 0 -18 -41 -36 -69 -30 -93 -20 -42 18 43 33 66 38 83 18z
m38 -54 c5 -13 -44 -49 -53 -40 -3 3 2 17 12 32 17 26 34 29 41 8z m-232 -213
c3 -6 -4 -14 -17 -20 -13 -5 -34 -18 -47 -27 -24 -17 -24 -17 -12 4 11 22 49
53 63 53 4 0 10 -5 13 -10z"/>
<path d="M5385 7030 c-3 -5 -1 -10 4 -10 6 0 11 5 11 10 0 6 -2 10 -4 10 -3 0
-8 -4 -11 -10z"/>
<path d="M5802 5098 c5 -15 28 -18 29 -3 0 6 -7 12 -17 13 -10 3 -15 -1 -12
-10z"/>
<path d="M5915 5080 c-18 -20 -15 -38 4 -25 15 9 33 45 23 45 -5 0 -17 -9 -27
-20z"/>
<path d="M5842 5040 c1 -13 9 -25 16 -28 17 -5 15 23 -4 39 -14 11 -15 10 -12
-11z"/>
<path d="M5875 4951 c-6 -11 9 -23 19 -14 9 9 7 23 -3 23 -6 0 -12 -4 -16 -9z"/>
<path d="M5940 4925 c0 -8 4 -15 9 -15 5 0 14 7 21 15 10 13 9 15 -9 15 -12 0
-21 -6 -21 -15z"/>
<path d="M5920 4880 c0 -3 7 -14 15 -24 8 -10 12 -23 9 -27 -3 -5 -2 -14 1
-19 6 -10 55 52 55 70 0 5 -18 8 -40 7 -22 -1 -40 -4 -40 -7z"/>
<path d="M3120 10870 c0 -5 5 -10 11 -10 5 0 7 5 4 10 -3 6 -8 10 -11 10 -2 0
-4 -4 -4 -10z"/>
<path d="M3415 10860 c-3 -5 0 -13 8 -16 23 -8 82 0 82 11 0 14 -82 19 -90 5z"/>
<path d="M2575 10815 c20 -16 37 -16 36 0 0 6 -13 11 -28 13 -27 2 -27 2 -8
-13z"/>
<path d="M3610 10819 c0 -5 5 -7 10 -4 6 3 10 8 10 11 0 2 -4 4 -10 4 -5 0
-10 -5 -10 -11z"/>
<path d="M3840 10715 c-10 -12 -10 -15 3 -15 8 0 20 7 27 15 10 12 10 15 -3
15 -8 0 -20 -7 -27 -15z"/>
<path d="M3931 10635 c1 -40 1 -40 10 -10 5 18 5 33 -1 39 -7 7 -10 -4 -9 -29z"/>
<path d="M3920 10517 c0 -28 23 -57 46 -57 8 0 14 -4 14 -10 0 -20 47 -10 70
15 22 23 22 27 8 41 -8 8 -35 17 -59 18 -24 2 -52 7 -61 11 -15 6 -18 2 -18
-18z"/>
<path d="M4140 10527 c0 -23 36 -50 58 -43 24 8 46 32 35 39 -4 3 -27 8 -50
12 -34 5 -43 4 -43 -8z"/>
<path d="M3870 10490 c0 -5 9 -10 20 -10 11 0 20 5 20 10 0 6 -9 10 -20 10
-11 0 -20 -4 -20 -10z"/>
<path d="M4300 10455 c0 -8 9 -15 20 -15 11 0 20 7 20 15 0 8 -9 15 -20 15
-11 0 -20 -7 -20 -15z"/>
<path d="M4125 10420 c3 -5 8 -10 11 -10 2 0 4 5 4 10 0 6 -5 10 -11 10 -5 0
-7 -4 -4 -10z"/>
<path d="M4325 10371 c-3 -5 -1 -12 5 -16 5 -3 10 1 10 9 0 18 -6 21 -15 7z"/>
<path d="M4384 10333 c-4 -14 -2 -34 5 -44 6 -10 11 -25 11 -33 0 -28 21 -27
49 3 21 22 24 31 15 35 -8 3 -14 14 -14 25 0 19 -26 41 -49 41 -6 0 -14 -12
-17 -27z"/>
<path d="M4450 10230 c0 -5 5 -10 10 -10 6 0 10 5 10 10 0 6 -4 10 -10 10 -5
0 -10 -4 -10 -10z"/>
<path d="M4440 10172 c0 -38 78 -80 95 -51 5 6 12 4 20 -8 13 -17 14 -17 20
-1 4 10 -1 27 -12 40 -14 18 -26 22 -56 20 -21 -2 -45 2 -53 9 -11 9 -14 8
-14 -9z"/>
<path d="M4551 9954 c0 -11 3 -14 6 -6 3 7 2 16 -1 19 -3 4 -6 -2 -5 -13z"/>
<path d="M4520 9872 c0 -4 10 -13 21 -20 16 -10 24 -11 33 -2 8 8 7 13 -4 20
-18 12 -50 13 -50 2z"/>
<path d="M4599 9783 c-16 -41 -8 -77 18 -81 12 -2 27 -10 33 -18 23 -26 33
-16 26 27 -14 88 -56 127 -77 72z"/>
<path d="M5105 9760 c3 -5 8 -10 11 -10 2 0 4 5 4 10 0 6 -5 10 -11 10 -5 0
-7 -4 -4 -10z"/>
<path d="M1520 9620 c0 -5 5 -10 10 -10 6 0 10 5 10 10 0 6 -4 10 -10 10 -5 0
-10 -4 -10 -10z"/>
<path d="M4980 9593 c0 -13 29 -38 35 -31 3 3 -4 13 -15 23 -11 10 -20 13 -20
8z"/>
<path d="M1443 9573 c-13 -8 -23 -20 -23 -24 0 -11 56 16 65 31 9 15 -17 11
-42 -7z"/>
<path d="M4760 9580 c0 -5 5 -10 10 -10 6 0 10 5 10 10 0 6 -4 10 -10 10 -5 0
-10 -4 -10 -10z"/>
<path d="M4622 9573 c-28 -5 -36 -24 -28 -58 8 -30 22 -31 55 -6 19 14 22 24
17 45 -3 14 -10 25 -14 25 -4 -1 -17 -4 -30 -6z"/>
<path d="M4795 9558 c-16 -10 -40 -18 -53 -18 -15 0 -22 -5 -19 -12 2 -7 16
-12 31 -10 17 2 29 -3 32 -13 9 -23 -11 -41 -29 -26 -15 12 -47 5 -47 -9 0 -5
4 -20 10 -35 8 -22 12 -24 29 -13 26 16 36 6 21 -21 -11 -22 -30 -28 -30 -10
0 5 -4 8 -9 4 -12 -7 4 -64 23 -83 18 -18 33 -9 49 31 18 43 27 22 13 -33 -9
-39 -15 -45 -40 -48 -20 -3 -36 4 -56 23 l-27 26 -27 -23 c-27 -22 -27 -24
-15 -71 l13 -47 52 0 c66 0 83 7 95 37 11 29 29 26 46 -7 11 -23 12 -22 18 13
4 21 11 37 15 37 10 0 20 -36 20 -71 0 -36 43 -46 58 -15 10 20 11 19 11 -6 1
-18 6 -28 16 -28 11 0 13 -8 9 -30 -4 -19 -2 -30 5 -30 11 0 17 61 13 135 -2
22 -12 59 -23 83 -18 35 -24 41 -36 31 -11 -10 -17 -9 -31 5 -14 13 -14 20 -4
36 6 11 12 25 12 32 -1 13 -49 74 -53 67 -20 -36 -27 -44 -43 -44 -27 0 -29
37 -4 60 18 16 18 20 6 34 -8 9 -16 28 -18 42 l-3 26 -30 -19z m-40 -338 c3
-5 -3 -10 -14 -10 -12 0 -21 5 -21 10 0 6 6 10 14 10 8 0 18 -4 21 -10z"/>
<path d="M1478 9520 c-53 -35 -74 -57 -64 -68 4 -4 15 3 24 15 9 11 26 24 38
27 23 7 73 56 57 56 -5 0 -30 -14 -55 -30z"/>
<path d="M1347 9514 c-16 -16 -5 -25 26 -22 17 2 31 8 30 13 -3 12 -46 19 -56
9z"/>
<path d="M4920 9482 c0 -10 22 -32 32 -32 4 0 8 9 8 20 0 13 -7 20 -20 20 -11
0 -20 -4 -20 -8z"/>
<path d="M5070 9471 c0 -16 41 -61 57 -61 8 0 13 -6 11 -12 -3 -8 -22 -13 -46
-14 -35 -1 -41 2 -47 23 -5 20 -8 23 -20 13 -24 -20 -17 -40 20 -56 45 -18 99
-18 115 1 10 12 9 20 -5 42 -30 46 -85 87 -85 64z"/>
<path d="M4970 9375 c0 -8 5 -15 10 -15 6 0 10 7 10 15 0 8 -4 15 -10 15 -5 0
-10 -7 -10 -15z"/>
<path d="M1452 9370 c-50 -12 -50 -20 -1 -20 52 0 89 9 89 21 0 11 -42 10 -88
-1z"/>
<path d="M4530 9240 c0 -5 4 -10 9 -10 6 0 13 5 16 10 3 6 -1 10 -9 10 -9 0
-16 -4 -16 -10z"/>
<path d="M1545 9220 c-3 -5 1 -10 9 -10 9 0 16 5 16 10 0 6 -4 10 -9 10 -6 0
-13 -4 -16 -10z"/>
<path d="M5060 9175 c-7 -9 -10 -18 -7 -21 7 -8 47 14 47 26 0 15 -26 12 -40
-5z"/>
<path d="M4713 9138 c-15 -19 -33 -77 -33 -104 0 -13 -4 -24 -10 -24 -14 0
-13 -33 2 -48 22 -22 38 -13 38 21 0 18 6 41 13 52 13 16 15 14 21 -24 3 -23
4 -46 1 -52 -4 -5 -2 -9 3 -9 11 0 32 53 32 81 0 11 -4 19 -10 19 -15 0 -12
44 5 66 8 10 15 22 15 27 0 12 -67 8 -77 -5z"/>
<path d="M4840 9110 c0 -5 5 -10 10 -10 6 0 10 5 10 10 0 6 -4 10 -10 10 -5 0
-10 -4 -10 -10z"/>
<path d="M1420 9060 c-12 -12 -19 -24 -16 -28 4 -3 16 4 28 16 12 12 19 24 16
28 -4 3 -16 -4 -28 -16z"/>
<path d="M4862 9056 c2 -15 8 -26 13 -26 15 0 12 43 -3 48 -10 3 -13 -4 -10
-22z"/>
<path d="M1371 8978 c-18 -20 -43 -38 -54 -40 -15 -2 -28 -18 -41 -50 -11 -26
-17 -51 -13 -54 12 -12 55 25 88 73 17 27 38 53 46 60 8 6 13 20 11 30 -3 15
-9 11 -37 -19z"/>
<path d="M5040 8980 c0 -5 4 -10 9 -10 6 0 13 5 16 10 3 6 -1 10 -9 10 -9 0
-16 -4 -16 -10z"/>
<path d="M4860 8936 c0 -31 10 -57 19 -52 10 7 1 76 -10 76 -5 0 -9 -11 -9
-24z"/>
<path d="M4947 8954 c-12 -12 -8 -41 7 -53 22 -18 58 4 54 32 -3 22 -45 36
-61 21z"/>
<path d="M4800 8891 c0 -5 5 -13 10 -16 6 -3 10 -2 10 4 0 5 -4 13 -10 16 -5
3 -10 2 -10 -4z"/>
<path d="M5070 8875 c0 -8 5 -15 10 -15 6 0 10 7 10 15 0 8 -4 15 -10 15 -5 0
-10 -7 -10 -15z"/>
<path d="M1200 8822 c0 -12 19 -26 26 -19 2 2 -2 10 -11 17 -9 8 -15 8 -15 2z"/>
<path d="M5051 8821 c-40 -11 -39 -33 0 -29 23 2 35 9 37 21 4 18 1 19 -37 8z"/>
<path d="M4995 8730 c-3 -5 -1 -10 4 -10 6 0 11 5 11 10 0 6 -2 10 -4 10 -3 0
-8 -4 -11 -10z"/>
<path d="M5065 8730 c-3 -5 1 -10 9 -10 9 0 16 5 16 10 0 6 -4 10 -9 10 -6 0
-13 -4 -16 -10z"/>
<path d="M5206 8668 c-18 -25 -8 -42 20 -36 12 2 19 12 19 27 0 33 -20 37 -39
9z"/>
<path d="M5060 8575 c-15 -18 -6 -45 14 -45 14 0 46 36 46 52 0 14 -47 8 -60
-7z"/>
<path d="M5190 8561 c0 -12 39 -25 48 -16 7 7 -17 25 -35 25 -7 0 -13 -4 -13
-9z"/>
<path d="M4995 8520 c-11 -17 5 -32 21 -19 7 6 11 15 8 20 -7 12 -21 11 -29
-1z"/>
<path d="M5191 8499 c-17 -7 -21 -13 -14 -20 14 -14 53 -2 53 17 0 16 -5 17
-39 3z"/>
<path d="M5140 8455 c0 -15 4 -24 10 -20 6 3 10 12 10 20 0 8 -4 17 -10 20 -6
4 -10 -5 -10 -20z"/>
<path d="M5002 8339 c2 -7 10 -15 17 -17 8 -3 12 1 9 9 -2 7 -10 15 -17 17 -8
3 -12 -1 -9 -9z"/>
<path d="M5140 8310 c0 -5 5 -10 10 -10 6 0 10 5 10 10 0 6 -4 10 -10 10 -5 0
-10 -4 -10 -10z"/>
<path d="M5025 8280 c-4 -6 -1 -17 5 -26 15 -18 42 0 33 22 -6 16 -29 19 -38
4z"/>
<path d="M890 8221 c-7 -15 -7 -21 0 -21 12 0 25 28 17 36 -3 3 -10 -4 -17
-15z"/>
<path d="M4810 8095 c0 -9 5 -15 11 -13 6 2 11 8 11 13 0 5 -5 11 -11 13 -6 2
-11 -4 -11 -13z"/>
<path d="M1954 7974 c-18 -14 -18 -15 6 -8 31 8 50 24 29 24 -8 0 -24 -7 -35
-16z"/>
<path d="M2618 7966 c-10 -7 -18 -16 -18 -19 0 -10 54 9 58 21 5 16 -19 15
-40 -2z"/>
<path d="M3108 7973 c7 -3 16 -2 19 1 4 3 -2 6 -13 5 -11 0 -14 -3 -6 -6z"/>
<path d="M2488 7958 c-9 -9 -58 -14 -148 -17 -113 -2 -145 -7 -195 -27 l-60
-24 28 25 c15 13 27 26 27 28 0 12 -270 -49 -283 -63 -12 -13 -7 -12 38 6 8 3
15 2 15 -2 -1 -16 -260 -183 -260 -168 0 34 -21 9 -36 -41 -10 -36 -24 -61
-39 -71 -36 -24 -62 -89 -80 -199 -9 -55 -27 -124 -40 -154 -24 -52 -31 -81
-19 -81 3 0 38 28 77 61 40 34 87 68 105 75 17 8 32 19 32 25 0 8 18 9 56 4
30 -3 74 -3 97 1 l42 7 -65 11 c-98 16 -72 31 50 29 l105 -3 -38 25 c-44 31
-47 45 -9 45 35 0 45 9 31 27 -9 11 0 13 52 12 35 0 101 -4 146 -7 111 -10
133 0 53 22 -82 23 -64 36 51 36 65 0 103 -6 159 -25 40 -14 76 -25 78 -25 12
0 -45 53 -71 67 -16 8 -27 17 -24 19 3 3 27 -6 54 -20 38 -19 59 -23 90 -19
27 3 43 1 48 -7 6 -10 2 -12 -13 -8 -36 10 -28 -29 9 -48 43 -22 23 -34 -56
-34 -33 0 -78 -5 -100 -12 l-40 -12 35 -5 c30 -5 20 -9 -62 -24 -53 -10 -118
-26 -145 -36 -26 -10 -75 -29 -108 -41 -69 -27 -305 -178 -305 -196 0 -17 -50
-57 -133 -107 l-72 -42 39 -3 c36 -3 97 7 140 24 9 3 16 1 16 -6 0 -9 -123
-73 -184 -94 -15 -5 -16 -9 -6 -21 11 -13 10 -18 -6 -30 -15 -11 -16 -16 -7
-26 17 -17 79 1 75 23 -1 9 9 20 25 26 118 43 126 45 202 39 52 -4 85 -2 106
7 21 9 35 10 47 2 13 -8 25 -3 57 22 22 18 47 32 56 32 8 0 18 7 21 15 4 8 11
12 18 7 6 -4 45 -7 86 -8 41 -1 143 -6 225 -11 83 -6 174 -10 202 -9 52 1 70
-8 36 -18 -10 -2 -43 -7 -73 -11 -74 -9 -155 -32 -169 -49 -15 -18 39 -24 192
-21 l119 3 -6 -23 c-3 -13 -1 -25 5 -27 6 -2 13 -21 16 -43 l5 -40 -58 -26
c-33 -15 -77 -32 -99 -39 -71 -23 -106 -40 -100 -50 9 -15 56 -12 147 10 46
11 112 23 148 26 71 6 145 29 173 52 9 9 18 13 20 11 1 -2 7 -13 13 -24 17
-30 52 -19 102 32 32 34 47 42 55 34 19 -19 47 -13 47 11 0 21 1 21 29 -6 28
-27 28 -27 24 -4 -2 13 2 38 10 57 l14 34 7 -37 c10 -51 26 -45 26 9 0 34 4
45 16 45 11 0 14 9 12 35 -3 37 -24 50 -22 14 0 -11 -4 -18 -10 -16 -10 3 -22
87 -13 87 3 0 29 -11 59 -25 29 -14 61 -25 71 -25 16 0 16 2 3 23 -8 12 -17
33 -21 47 -4 14 -17 38 -27 53 -31 43 -68 117 -60 117 39 0 118 -111 153 -217
29 -85 43 -113 60 -113 5 0 9 14 9 31 0 17 4 39 10 49 7 14 6 20 -6 24 -14 5
-15 17 -10 69 8 71 2 97 -24 97 -26 0 -43 25 -32 47 12 23 32 81 39 109 7 29
-39 122 -88 177 l-40 46 39 25 c22 13 57 29 79 35 46 13 123 65 123 84 0 7 -5
18 -12 25 -9 9 -4 14 21 23 l33 12 -31 13 c-17 7 -31 19 -31 27 0 8 -13 31
-30 52 -16 21 -30 46 -30 56 0 15 -8 19 -40 19 -29 0 -40 -4 -40 -15 0 -20
-49 -2 -70 26 -9 11 -40 26 -70 34 -50 14 -234 35 -302 35 -21 0 -26 4 -21 17
6 14 0 15 -48 10 -30 -4 -82 -16 -114 -27 -60 -21 -165 -38 -165 -27 0 12 60
37 89 37 16 0 33 5 36 10 11 18 -109 11 -170 -10 -54 -19 -175 -28 -175 -14 0
4 8 13 18 20 16 12 15 13 -5 14 -12 0 -28 -6 -35 -12z m922 -78 c0 -13 -40
-13 -60 0 -11 7 -5 10 23 10 20 0 37 -4 37 -10z m-1480 -60 c-6 -11 -17 -20
-26 -20 -8 0 -33 -9 -54 -20 -22 -11 -40 -16 -40 -10 0 9 105 68 123 70 4 0 3
-9 -3 -20z m1153 -19 c33 -8 76 -43 77 -64 0 -4 -8 -10 -17 -13 -10 -3 -27
-10 -38 -14 -37 -16 -100 -24 -185 -26 -47 -1 -100 -2 -119 -2 -40 -1 -143 37
-149 56 -2 6 4 12 13 12 8 0 33 9 53 19 32 16 44 18 78 9 34 -9 45 -8 79 10
44 23 139 29 208 13z m-485 -79 c6 -18 -15 -14 -22 4 -4 10 -1 14 6 12 6 -2
14 -10 16 -16z m39 -228 c-3 -3 -12 -4 -19 -1 -8 3 -5 6 6 6 11 1 17 -2 13 -5z
m-7 -250 c0 -31 -37 -74 -65 -74 -12 0 -33 8 -45 18 l-23 19 28 19 c15 10 39
30 54 44 23 23 28 24 39 11 6 -8 12 -25 12 -37z m-100 12 c0 -3 -4 -8 -10 -11
-5 -3 -10 -1 -10 4 0 6 5 11 10 11 6 0 10 -2 10 -4z m-148 -63 c9 -10 27 -40
41 -68 25 -50 54 -82 92 -103 30 -17 -75 -15 -168 2 -79 15 -125 34 -146 60
-20 24 6 56 75 94 68 36 85 39 106 15z m943 -63 c9 -10 15 -26 11 -35 -6 -17
-53 -38 -67 -29 -10 6 -12 67 -2 77 12 13 40 7 58 -13z m-284 -23 c-13 -13
-26 -3 -16 12 3 6 11 8 17 5 6 -4 6 -10 -1 -17z m-911 -106 c0 -12 -29 -35
-36 -28 -11 10 5 37 21 37 8 0 15 -4 15 -9z m1135 -61 c-3 -5 -11 -10 -16 -10
-6 0 -7 5 -4 10 3 6 11 10 16 10 6 0 7 -4 4 -10z m-1430 -10 c-3 -5 -10 -10
-16 -10 -5 0 -9 5 -9 10 0 6 7 10 16 10 8 0 12 -4 9 -10z m1140 -69 c7 -12
-12 -24 -25 -16 -11 7 -4 25 10 25 5 0 11 -4 15 -9z m-80 -61 c9 -14 -57 -40
-73 -27 -9 7 -9 13 -1 23 13 16 65 19 74 4z m212 -86 c-3 -3 -12 -4 -19 -1 -8
3 -5 6 6 6 11 1 17 -2 13 -5z"/>
<path d="M4320 7921 c-9 -17 -8 -21 6 -21 9 0 23 -8 30 -17 9 -13 13 -14 14
-5 0 8 -9 25 -19 38 -20 25 -20 25 -31 5z"/>
<path d="M4340 7828 c-12 -22 -12 -22 6 -6 10 10 15 20 12 24 -4 3 -12 -5 -18
-18z"/>
<path d="M4203 7830 c-41 -17 -24 -27 27 -16 28 5 50 14 50 18 0 11 -49 9 -77
-2z"/>
<path d="M4304 7776 c-7 -19 3 -36 22 -36 10 0 14 8 12 22 -4 26 -26 36 -34
14z"/>
<path d="M4373 7769 c-6 -6 -9 -18 -6 -25 11 -28 63 -9 63 23 0 16 -42 17 -57
2z"/>
<path d="M1482 7638 c-19 -19 -14 -29 8 -16 20 13 27 28 12 28 -4 0 -13 -5
-20 -12z"/>
<path d="M90 7598 c-43 -52 -71 -95 -76 -117 -3 -14 -8 -32 -10 -39 -2 -7 3
-58 11 -113 19 -127 19 -233 -1 -357 -8 -55 -14 -117 -12 -138 3 -34 8 -42 46
-62 23 -13 42 -29 42 -36 0 -7 9 -21 20 -31 11 -10 20 -26 20 -36 0 -23 21
-69 31 -69 10 0 1 49 -18 104 -9 26 -15 122 -19 300 -8 298 -3 330 67 470 22
44 37 86 34 93 -6 17 -66 43 -99 43 -14 0 -30 -6 -36 -12z"/>
<path d="M1998 7443 c7 -3 16 -2 19 1 4 3 -2 6 -13 5 -11 0 -14 -3 -6 -6z"/>
<path d="M1940 7420 c0 -5 9 -10 20 -10 11 0 20 5 20 10 0 6 -9 10 -20 10 -11
0 -20 -4 -20 -10z"/>
<path d="M1407 7396 c-10 -8 -14 -17 -9 -20 15 -9 42 4 42 20 0 17 -10 17 -33
0z"/>
<path d="M1370 7280 c0 -5 5 -10 10 -10 6 0 10 5 10 10 0 6 -4 10 -10 10 -5 0
-10 -4 -10 -10z"/>
<path d="M1316 7174 c-4 -9 -4 -19 -1 -22 2 -3 7 3 11 12 4 9 4 19 1 22 -2 3
-7 -3 -11 -12z"/>
<path d="M3610 7075 c0 -8 4 -15 10 -15 5 0 7 7 4 15 -4 8 -8 15 -10 15 -2 0
-4 -7 -4 -15z"/>
<path d="M3625 6991 c-7 -12 12 -24 25 -16 11 7 4 25 -10 25 -5 0 -11 -4 -15
-9z"/>
<path d="M2440 6911 c0 -6 5 -13 10 -16 6 -3 10 1 10 9 0 9 -4 16 -10 16 -5 0
-10 -4 -10 -9z"/>
<path d="M3180 6715 c0 -8 5 -15 10 -15 6 0 10 7 10 15 0 8 -4 15 -10 15 -5 0
-10 -7 -10 -15z"/>
<path d="M4170 6040 c0 -5 5 -10 11 -10 5 0 7 5 4 10 -3 6 -8 10 -11 10 -2 0
-4 -4 -4 -10z"/>
<path d="M3010 5323 c-29 -33 -31 -37 -14 -46 13 -8 22 -5 36 13 15 19 26 70
14 70 -2 0 -18 -16 -36 -37z"/>
<path d="M2933 5195 c-8 -22 6 -33 17 -15 13 20 12 30 0 30 -6 0 -13 -7 -17
-15z"/>
<path d="M1111 5096 c-6 -8 -22 -41 -35 -74 -13 -34 -36 -76 -50 -95 -14 -19
-26 -37 -26 -41 0 -11 43 15 78 48 45 41 62 77 62 125 0 44 -11 58 -29 37z"/>
<path d="M2850 5102 c-45 -4 -52 -12 -59 -64 -5 -35 -10 -44 -29 -46 -13 -2
-27 -13 -32 -25 -4 -12 -22 -35 -38 -51 -20 -18 -35 -46 -42 -77 -7 -27 -16
-52 -21 -55 -5 -3 -9 -20 -9 -38 0 -19 -7 -39 -14 -46 -8 -6 -20 -27 -26 -46
-6 -18 -24 -43 -40 -54 -16 -11 -32 -31 -35 -43 -17 -57 -58 -127 -90 -156
-20 -17 -39 -31 -43 -31 -4 0 -15 -21 -26 -46 -10 -25 -40 -67 -66 -94 -28
-28 -44 -53 -38 -56 6 -4 7 -20 4 -38 -30 -139 -25 -366 9 -491 31 -115 35
-134 35 -159 0 -14 9 -34 20 -43 11 -10 20 -28 20 -41 0 -30 36 -111 62 -139
15 -16 19 -30 15 -53 -8 -38 18 -42 34 -6 10 21 7 30 -15 59 -17 22 -23 38
-17 42 16 9 13 37 -9 87 -49 113 -75 333 -60 517 16 199 39 260 179 473 170
260 194 296 251 378 49 69 59 90 55 114 -3 16 0 36 7 44 11 13 9 14 -14 8 -40
-9 -36 17 7 51 40 31 84 109 69 121 -5 4 -25 6 -44 4z m-70 -208 c11 -29 13
-74 4 -74 -4 0 -12 8 -19 17 -12 15 -15 15 -46 -11 -44 -38 -48 -19 -7 43 37
56 54 63 68 25z"/>
<path d="M3484 5035 c-158 -24 -254 -54 -284 -90 -11 -13 -11 -20 0 -40 20
-37 64 -51 117 -37 24 7 48 10 53 7 5 -3 34 1 63 10 46 13 76 14 192 6 75 -5
143 -7 151 -4 38 14 -18 98 -88 131 -61 28 -101 32 -204 17z"/>
<path d="M3390 4750 c0 -5 5 -10 10 -10 6 0 10 5 10 10 0 6 -4 10 -10 10 -5 0
-10 -4 -10 -10z"/>
<path d="M3445 4740 c3 -5 10 -10 16 -10 5 0 9 5 9 10 0 6 -7 10 -16 10 -8 0
-12 -4 -9 -10z"/>
<path d="M3855 4709 c-4 -6 -5 -13 -2 -16 7 -7 27 6 27 18 0 12 -17 12 -25 -2z"/>
<path d="M2735 3850 c-3 -5 1 -10 10 -10 9 0 13 5 10 10 -3 6 -8 10 -10 10 -2
0 -7 -4 -10 -10z"/>
<path d="M3548 3477 c-15 -7 -43 -31 -63 -54 -39 -45 -38 -59 3 -96 20 -18 20
-18 27 15 6 28 30 84 41 97 2 2 10 -4 19 -12 18 -19 51 -12 35 8 -7 9 -3 15
15 23 14 6 25 16 25 22 0 14 -69 12 -102 -3z"/>
<path d="M2535 3421 c-7 -12 12 -24 25 -16 11 7 4 25 -10 25 -5 0 -11 -4 -15
-9z"/>
<path d="M3570 3375 c0 -8 5 -15 10 -15 6 0 10 7 10 15 0 8 -4 15 -10 15 -5 0
-10 -7 -10 -15z"/>
<path d="M3952 3340 c-22 -18 -22 -19 -3 -29 32 -17 41 -13 41 19 0 35 -6 37
-38 10z"/>
<path d="M3560 3330 c0 -5 5 -10 11 -10 5 0 7 5 4 10 -3 6 -8 10 -11 10 -2 0
-4 -4 -4 -10z"/>
<path d="M3555 3270 c3 -5 8 -10 11 -10 2 0 4 5 4 10 0 6 -5 10 -11 10 -5 0
-7 -4 -4 -10z"/>
<path d="M3973 3259 c4 -13 7 -31 7 -38 0 -11 3 -12 11 -4 14 14 8 55 -10 61
-10 4 -12 -1 -8 -19z"/>
<path d="M3982 3160 c0 -14 2 -19 5 -12 2 6 2 18 0 25 -3 6 -5 1 -5 -13z"/>
<path d="M2440 3145 c0 -8 5 -15 10 -15 6 0 10 7 10 15 0 8 -4 15 -10 15 -5 0
-10 -7 -10 -15z"/>
<path d="M3680 3090 c0 -5 9 -10 20 -10 11 0 20 5 20 10 0 6 -9 10 -20 10 -11
0 -20 -4 -20 -10z"/>
<path d="M2270 3061 c0 -6 5 -13 10 -16 6 -3 10 1 10 9 0 9 -4 16 -10 16 -5 0
-10 -4 -10 -9z"/>
<path d="M7040 3033 c0 -25 23 -74 34 -70 19 6 12 49 -11 65 -13 8 -23 10 -23
5z"/>
<path d="M1915 3010 c3 -5 8 -10 11 -10 2 0 4 5 4 10 0 6 -5 10 -11 10 -5 0
-7 -4 -4 -10z"/>
<path d="M2310 3012 c0 -22 117 -148 128 -138 8 8 -100 146 -114 146 -8 0 -14
-4 -14 -8z"/>
<path d="M2045 2927 c3 -15 1 -35 -4 -45 -12 -22 13 -79 38 -87 16 -6 74 -77
99 -123 8 -13 29 -37 47 -54 19 -16 37 -38 40 -49 4 -10 11 -19 16 -19 12 0
12 37 -1 45 -5 3 -10 14 -10 23 0 10 -10 22 -22 27 -12 6 -33 32 -47 60 -13
27 -35 58 -48 69 -14 10 -29 29 -33 42 -9 24 -30 33 -30 14 0 -5 -7 -10 -16
-10 -14 0 -16 9 -12 50 4 35 1 56 -9 68 -13 15 -14 14 -8 -11z"/>
<path d="M2500 2934 c0 -8 5 -12 10 -9 6 4 8 11 5 16 -9 14 -15 11 -15 -7z"/>
<path d="M3720 2915 c-7 -8 -8 -15 -2 -15 5 0 15 7 22 15 7 8 8 15 2 15 -5 0
-15 -7 -22 -15z"/>
<path d="M3963 2795 c-9 -25 2 -27 22 -5 17 18 17 20 1 20 -9 0 -19 -7 -23
-15z"/>
<path d="M4075 2710 c3 -5 8 -10 11 -10 2 0 4 5 4 10 0 6 -5 10 -11 10 -5 0
-7 -4 -4 -10z"/>
<path d="M4105 2639 c-4 -6 -5 -13 -2 -16 7 -7 27 6 27 18 0 12 -17 12 -25 -2z"/>
<path d="M4040 2611 c0 -10 30 -24 37 -17 3 3 2 9 -2 15 -8 13 -35 15 -35 2z"/>
<path d="M2320 2511 c0 -15 38 -56 45 -49 9 9 -21 58 -35 58 -6 0 -10 -4 -10
-9z"/>
<path d="M3881 2484 c-11 -14 -17 -32 -14 -40 7 -20 10 -18 28 16 9 17 22 30
31 30 8 0 12 5 9 10 -11 17 -33 11 -54 -16z"/>
<path d="M3750 2475 c0 -8 5 -15 10 -15 6 0 10 7 10 15 0 8 -4 15 -10 15 -5 0
-10 -7 -10 -15z"/>
<path d="M2430 2385 c0 -31 98 -170 164 -234 31 -29 56 -58 56 -65 0 -7 25
-41 55 -76 30 -36 69 -89 87 -119 47 -78 91 -121 122 -121 18 0 24 4 20 15 -4
8 -14 15 -24 15 -24 0 -42 23 -83 106 -20 39 -46 84 -59 100 -14 16 -36 49
-50 74 -31 53 -85 107 -113 112 -17 3 -20 10 -17 56 3 46 1 52 -17 52 -11 0
-37 18 -58 39 -34 35 -83 62 -83 46z"/>
<path d="M4040 2224 c0 -24 4 -34 13 -31 6 2 12 9 11 15 -1 7 -2 21 -2 32 -3
35 -22 21 -22 -16z"/>
<path d="M3665 2220 c-7 -12 2 -30 16 -30 5 0 9 9 9 20 0 21 -15 27 -25 10z"/>
<path d="M4130 2193 c0 -20 28 -45 46 -41 16 3 14 6 -14 26 -17 13 -32 19 -32
15z"/>
<path d="M4060 2171 c0 -5 6 -14 14 -20 11 -9 16 -9 21 0 4 6 1 15 -6 20 -18
11 -29 11 -29 0z"/>
<path d="M4242 2168 c3 -7 13 -15 24 -17 16 -3 17 -1 5 13 -16 19 -34 21 -29
4z"/>
<path d="M4313 2123 c-19 -7 -15 -31 5 -29 14 1 17 -7 15 -54 -2 -40 0 -49 6
-35 5 11 10 44 10 73 1 52 -4 58 -36 45z"/>
<path d="M2740 2100 c0 -5 5 -10 11 -10 5 0 7 5 4 10 -3 6 -8 10 -11 10 -2 0
-4 -4 -4 -10z"/>
<path d="M4390 2100 c0 -5 7 -10 15 -10 8 0 15 5 15 10 0 6 -7 10 -15 10 -8 0
-15 -4 -15 -10z"/>
<path d="M4150 2080 c0 -5 7 -10 16 -10 8 0 12 5 9 10 -3 6 -10 10 -16 10 -5
0 -9 -4 -9 -10z"/>
<path d="M4260 1961 c-6 -12 -20 -21 -30 -21 -11 0 -20 -4 -20 -10 0 -16 -27
-12 -34 5 -7 20 -26 19 -26 -1 0 -20 66 -87 78 -80 5 3 7 17 4 31 -5 29 5 33
23 8 20 -27 47 1 43 45 -3 41 -22 52 -38 23z"/>
<path d="M4356 1954 c-23 -22 -8 -39 15 -18 10 9 19 21 19 26 0 13 -17 9 -34
-8z"/>
<path d="M4140 1849 c0 -5 5 -7 10 -4 6 3 10 8 10 11 0 2 -4 4 -10 4 -5 0 -10
-5 -10 -11z"/>
<path d="M4192 1817 c-17 -20 -12 -40 6 -28 8 5 12 16 10 26 -3 17 -4 17 -16
2z"/>
<path d="M3032 1742 c-7 -2 -12 -10 -12 -18 0 -15 44 -48 58 -42 13 5 -32 65
-46 60z"/>
<path d="M3965 1719 c-4 -6 -5 -13 -2 -16 7 -7 27 6 27 18 0 12 -17 12 -25 -2z"/>
<path d="M2179 1600 c33 -100 109 -287 147 -362 92 -183 381 -623 550 -834 93
-118 210 -241 317 -336 l78 -69 144 3 c88 2 145 7 146 13 0 6 -21 17 -48 25
-90 28 -188 95 -288 195 -136 136 -550 576 -612 651 -100 119 -166 228 -301
499 -149 297 -175 339 -133 215z"/>
<path d="M3607 1606 c-4 -10 -5 -21 -2 -24 9 -9 17 6 13 25 -3 17 -4 17 -11
-1z"/>
<path d="M3740 1595 c0 -15 4 -24 10 -20 6 3 10 12 10 20 0 8 -4 17 -10 20 -6
4 -10 -5 -10 -20z"/>
<path d="M3650 1603 c0 -5 4 -15 10 -23 11 -18 25 -7 17 15 -6 15 -27 21 -27
8z"/>
<path d="M3375 1530 c3 -5 13 -10 21 -10 8 0 14 5 14 10 0 6 -9 10 -21 10 -11
0 -17 -4 -14 -10z"/>
<path d="M3720 1525 c0 -8 5 -15 10 -15 6 0 10 7 10 15 0 8 -4 15 -10 15 -5 0
-10 -7 -10 -15z"/>
<path d="M3610 1039 c0 -5 5 -7 10 -4 6 3 10 8 10 11 0 2 -4 4 -10 4 -5 0 -10
-5 -10 -11z"/>
</g>
</svg>
