<svg width="348" height="171" viewBox="0 0 348 171" fill="none" xmlns="http://www.w3.org/2000/svg">
<g clip-path="url(#clip0)">
<path d="M87.547 35.8127L87.2124 35.9415C87.2124 35.9415 87.3411 35.9673 87.547 35.8127Z" fill="black"/>
<path d="M74.6248 40.5007L74.6505 40.475L74.702 40.3977L74.6248 40.5007Z" fill="black"/>
<path d="M87.4183 29.9143C84.2006 32.8507 82.9135 33.134 79.6958 36.2765C77.9711 37.5643 76.3237 39.1871 74.5475 40.475C74.0327 41.4795 72.3337 42.1492 71.613 43.1795H71.0724C70.8348 43.5652 70.4709 43.8565 70.0427 44.0037C69.6566 44.5446 69.0131 44.828 68.8329 45.0856L68.2408 45.5492V45.3689C67.4921 46.1263 66.622 46.7532 65.6667 47.2234L65.9241 47.481C63.9677 48.3053 63.7103 49.3356 61.8569 50.0568C60.3124 52.1174 58.3303 51.525 56.7086 53.534C56.9145 53.2765 56.5027 53.534 56.4769 53.3537C55.5502 54.0234 54.5463 54.6931 54.881 55.2856C54.1602 55.6977 54.1859 55.4401 53.9543 55.2856C54.1087 55.5431 53.5424 56.0068 53.0018 56.3674L53.2078 56.1098L51.6633 57.1401L52.2553 57.4492C51.3286 57.8098 51.689 56.9856 50.9425 57.4492L51.1742 57.8613C50.0013 58.2267 48.7935 58.4684 47.5704 58.5825C42.7052 61.1583 38.1232 65.0219 33.2323 66.7992L32.8977 66.3613C32.563 65.9492 32.0225 67.675 31.6106 67.3659L31.1987 67.8553C31.0186 67.8553 30.6582 67.8553 30.8641 67.7007C30.375 67.9325 30.4008 68.0098 30.1176 68.3447H29.4483C27.4147 69.1431 26.0762 70.534 24.0168 71.5128C20.6378 72.8581 17.4591 74.6608 14.5697 76.8704C12.7481 78.133 10.7423 79.1061 8.6234 79.7553C6.12124 80.4295 3.92932 81.9493 2.41969 84.0568C2.26524 84.0568 2.08505 84.5977 2.13653 84.6234C1.61497 85.2623 1.17405 85.963 0.823714 86.7098C0.443419 87.5247 0.191597 88.3935 0.0772095 89.2856C0.0772095 89.2856 0.0772095 89.6977 0.0772095 90.3416C0.0942161 91.2152 0.232838 92.0821 0.489074 92.9174C1.126 94.8073 2.29744 96.4716 3.86122 97.7083C5.17404 98.7386 6.25518 99.0992 6.43537 98.481C6.47298 97.8807 6.33905 97.2822 6.04925 96.7553C5.55013 95.5771 5.17068 94.3518 4.91662 93.0977H5.04533C4.45327 91.4234 4.47901 90.7022 4.06715 89.5431C4.42753 89.5431 4.5305 89.234 4.55624 88.8992C4.58198 88.5644 4.71069 88.178 4.91662 88.075C4.91662 86.8901 6.5126 86.6841 6.97594 85.6795C6.97594 85.6795 6.97594 85.9113 6.97594 86.0659C7.49078 85.4992 8.34025 84.7522 8.6234 85.0613C10.5528 84.0728 12.3659 82.8719 14.0291 81.481V81.6356C14.544 80.8628 14.9301 81.0947 15.6251 80.4765H15.7538C16.3201 79.678 17.9933 79.2143 18.5339 78.725L18.6883 78.931L20.0269 78.081L19.4349 78.3386C19.2804 77.5916 20.8249 78.1325 21.7001 77.1022C22.7813 76.6386 23.1159 74.5265 24.2743 74.3719C24.6346 73.8053 24.0941 75.0931 24.7376 74.3719C24.9435 74.7068 24.4802 74.784 24.7376 74.9386C25.4069 74.3719 26.1791 74.6295 26.9771 73.9083L27.1573 74.1401C28.1098 73.0068 29.7315 73.2643 30.2206 72.3628C31.3532 71.4871 31.4819 72.6977 32.5373 71.4871H33.2323C33.8244 71.2553 33.3868 70.8431 34.1075 70.6886C34.1075 70.9204 34.9827 70.4568 34.7511 70.8431C36.3728 70.4568 37.3252 68.7825 39.4618 68.2674C39.6162 67.6234 40.6716 67.3659 40.8003 66.8765C40.9548 67.031 42.6795 65.8719 41.8557 66.8765C41.8557 66.8765 41.6241 67.031 41.5983 66.8765V67.2113C42.9111 67.2113 43.3488 65.8977 44.4299 65.3825C44.0695 65.3825 43.6834 65.7174 43.8636 65.3825L44.8418 64.8674V65.2022L46.3348 64.5325L46.0001 64.378C46.7724 64.1204 47.2872 64.378 47.8535 63.6053C48.0852 63.1931 46.9783 63.6053 47.6733 63.1159C48.9812 62.7071 50.2622 62.2168 51.5088 61.6477C51.2257 61.4159 51.5088 61.2356 51.8435 61.0037L52.0237 61.2356C53.0791 60.1537 52.8216 61.5447 53.9028 60.5401V60.4113C54.7265 59.2522 54.8295 60.5916 55.679 59.1492C55.2156 59.484 55.1126 58.7113 55.679 58.4795V58.8143C55.9879 58.5568 56.0393 58.4022 56.2968 58.325C56.5542 58.2477 56.2967 58.7371 56.8631 58.325L56.7086 58.8401L57.3779 57.8356C58.2531 57.6553 59.2055 56.6507 59.6946 56.8053C59.6946 56.8053 61.3421 56.0325 61.4708 55.4401C61.3164 55.8522 62.2173 55.4401 62.1401 55.8522C62.346 55.4869 62.6229 55.1665 62.9544 54.9099C63.286 54.6533 63.6655 54.4658 64.0707 54.3583C66.0013 53.5598 66.7993 52.0916 68.5497 51.4219C68.2923 51.1901 69.219 50.8037 68.7557 50.5719C70.12 49.181 72.1535 49.3613 71.9476 47.8416C72.6169 47.275 72.9773 47.5068 73.3891 47.3265V47.5068C74.6762 46.4765 75.0366 46.1931 75.9633 45.4977C76.3752 45.034 75.9633 44.4674 77.0187 43.9265C77.0187 44.3386 77.2246 43.9265 77.5335 43.7977C77.3533 43.978 77.3533 44.1068 77.8682 43.7977C77.888 43.6865 77.9319 43.581 77.9969 43.4886C78.486 43.025 78.3315 43.025 77.9969 43.1795C77.6622 43.334 77.9969 43.1795 77.8167 43.1795C78.5889 43.025 79.3354 41.9431 79.6701 42.2522C80.9275 41.0429 82.1136 39.7614 83.2224 38.4143C83.5056 38.4143 83.2224 38.878 83.0165 39.2643L83.866 38.4143C84.0719 38.6719 83.4541 39.0068 83.2224 39.2901C84.6382 38.7234 85.1273 36.9719 86.6718 36.1992V35.7613C86.6718 35.7613 86.6718 35.2719 86.8777 35.0659C87.0836 34.8598 87.3153 35.5553 87.9074 35.0659C88.4994 34.5765 89.1687 33.675 89.6835 32.9537C89.3232 33.2371 89.3232 32.9537 89.3746 32.825C89.4261 32.6962 90.0182 32.5416 90.1469 32.2325L90.4558 32.4643C90.0954 32.3356 90.9191 31.4083 90.9191 31.1765C90.9191 30.9447 90.6617 31.8204 90.7389 32.0265L92.4121 30.1462C92.824 29.2962 92.026 30.1462 92.0775 29.5022C92.489 28.7967 93.0006 28.1547 93.5963 27.5962H93.1586C93.6369 26.5445 94.4049 25.651 95.3724 25.0204C97.5605 19.8689 96.9941 18.8643 96.0932 19.1734C95.21 19.6171 94.416 20.2196 93.7507 20.9507C91.2795 23.9386 90.636 26.128 87.4183 29.9143Z" fill="black"/>
<path d="M93.3646 37.2295L93.1072 37.4613C93.1072 37.4613 93.2616 37.2295 93.3646 37.2295Z" fill="black"/>
<path d="M91.0221 31.8977C89.2994 34.6445 87.8097 37.5308 86.5688 40.5265C85.6936 42.4068 84.9729 44.519 84.2779 46.4508C84.2779 47.5326 83.2739 49.0265 83.2739 50.1599L82.8363 50.469C82.8525 50.8973 82.7156 51.3173 82.4502 51.6538C82.362 52.1674 82.2416 52.675 82.0898 53.1735L81.8067 53.7144V53.5599C81.65 54.5557 81.3373 55.5206 80.88 56.419H81.2403C80.1849 58.1447 80.6226 58.9947 79.5672 60.6174C79.5672 63.0644 77.7652 63.7856 77.8425 66.2841C77.8425 65.975 77.6365 66.2841 77.5593 66.2841C77.3019 67.3402 76.993 68.4477 77.5593 68.6796C77.3019 69.4265 77.1474 69.2205 76.8643 69.2205C77.1474 69.2205 77.0445 69.9932 76.8643 70.5856V70.2765L76.4009 71.9765L77.0445 71.822C76.6069 72.6462 76.3237 71.822 76.1693 72.7235L76.6069 72.8523C76.1178 74.0371 75.2168 74.5523 74.5218 75.6341C72.7456 80.528 72.411 86.2205 70.5833 90.7796L70.1972 90.9083C69.6824 90.9083 70.6348 92.3765 70.1972 92.4538V93.0462C70.1972 93.175 69.9141 93.4841 69.8626 93.2008C69.7586 93.5099 69.7586 93.8446 69.8626 94.1538L69.4507 94.6432C69.0848 96.6258 68.8526 98.6309 68.7557 100.645C67.9107 104.068 67.788 107.629 68.3953 111.102C68.6009 112.137 68.7044 113.19 68.7042 114.245C68.7042 115.327 68.7042 116.434 68.7042 117.567C68.7152 118.687 68.7926 119.805 68.9359 120.916C69.1591 122.006 69.5225 123.062 70.017 124.058C70.017 124.213 70.2487 124.522 70.3002 124.496C70.3517 124.47 71.51 128.154 71.51 128.154L71.8189 128.875C72.1315 129.46 72.4752 130.027 72.8486 130.575C73.2862 131.245 73.7496 131.966 74.2644 132.661C74.8148 133.278 75.4084 133.855 76.0406 134.387C77.1732 135.366 78.0741 135.855 78.3316 135.263C78.589 134.67 78.0999 133.048 77.1474 129.905H77.2762C76.7824 128.529 76.0014 127.273 74.9852 126.222C75.5257 125.758 74.4446 124.78 74.4961 124.264C73.4921 123.389 74.2387 121.869 73.4407 120.942C73.4407 120.942 73.6981 120.942 73.7753 121.199C73.4664 120.452 73.0288 119.422 73.4407 119.267L72.8486 116.125C72.7478 115.236 72.5135 114.368 72.1536 113.549C71.6645 112.854 72.1536 112.622 71.7675 111.823C71.3041 111.051 71.7675 109.505 71.5358 108.861H71.7932V107.29V107.883C71.0467 107.651 72.2823 106.698 71.9219 105.539C72.1021 104.483 70.5576 103.195 71.0467 102.113C70.7893 101.546 71.5358 102.654 71.3813 101.83C71.7675 101.83 71.5615 102.242 71.8962 102.061C71.8962 101.263 72.4625 100.825 72.3338 99.8205H72.6427C72.2566 98.4811 73.3892 97.528 73.0288 96.6008C73.0288 95.2614 74.0585 95.9053 73.7238 94.4629L74.2129 94.025C74.3931 93.4583 73.8268 93.5099 74.2129 92.9174C74.4446 92.9174 74.599 92.1705 74.7535 92.5826C75.4742 91.2432 74.7535 89.5432 75.9891 87.8432C75.603 87.328 76.1435 86.4523 75.9891 86.0402C76.195 86.0402 76.5039 84.1599 76.6841 85.3447C76.6841 85.3447 76.6841 85.6023 76.6841 85.5765L76.9415 85.7826C77.7395 84.8553 77.1989 83.7735 77.5593 82.7432C77.3791 83.0265 77.2762 83.4387 77.1732 83.1296L77.4821 82.1508L77.6623 82.4341L78.2029 81.0174H77.8425C78.2028 80.3477 78.7692 80.2447 78.6147 79.3174C78.6147 78.8796 78.0227 79.8583 78.1514 79.0856C78.779 77.984 79.3461 76.849 79.8503 75.6856C79.4899 75.6856 79.5929 75.3765 79.6444 75.0159H79.9533C79.9533 73.5993 80.7255 74.7584 80.8285 73.3674L80.9829 73.5477L80.4939 73.0068C80.3137 71.6674 81.2918 72.569 80.9315 71.0493C80.9315 71.5644 80.2364 71.0493 80.5711 70.5084L80.8027 70.7659C80.8027 70.4053 80.8027 70.2508 80.8027 70.0447C80.8027 70.3023 81.1631 70.2765 81.2918 69.7614L81.5235 70.225L81.3433 69.0917C81.8839 68.4477 81.9096 67.1599 82.3987 67.0053C82.3987 67.0053 83.1195 65.4856 82.8363 64.9962C82.9908 65.4084 83.3769 64.5584 83.6086 64.9962C83.5274 64.62 83.5315 64.2304 83.6206 63.8559C83.7097 63.4815 83.8815 63.1318 84.1234 62.8326C85.0758 61.1841 84.7669 59.6387 85.7709 58.1962C85.4105 58.1962 85.8996 57.372 85.4105 57.4235C85.6164 55.6205 87.3926 54.8477 86.3372 53.6629C86.5688 52.8902 86.9807 52.8902 87.1867 52.5296V52.6841C87.46 51.7073 87.8041 50.7517 88.2163 49.825C88.2163 49.2583 87.753 48.9493 88.2163 48.0735C88.2163 48.4599 88.448 48.0735 88.5767 47.7387C88.5767 47.9705 88.5767 48.0735 88.9113 47.7387C88.889 47.6368 88.889 47.5314 88.9113 47.4296C89.0658 46.8114 88.9113 46.8887 88.9113 47.1462C88.9113 47.4038 88.9113 47.1462 88.7311 47.1462C89.2717 46.6826 89.4004 45.472 89.838 45.575C90.4558 43.8235 90.5845 42.4068 91.0479 40.9129C91.331 40.9129 91.3568 41.2477 91.2538 41.7114L91.6142 40.6811C91.8974 40.8099 91.6142 41.325 91.4597 41.6599C92.4637 40.6553 92.0518 39.0841 93.133 37.7705V37.3841C93.133 37.3841 92.9785 36.9462 93.133 36.7144C93.2874 36.4826 93.725 36.9977 94.0082 36.3023C94.2913 35.6068 94.6002 34.7053 94.8061 33.9068C94.5745 34.2674 94.4973 34.0871 94.4973 33.9068C94.4973 33.7265 94.9863 33.469 95.0121 33.1599H95.3725C94.9863 33.1599 95.3725 32.1038 95.3725 31.8977C95.7071 31.8977 95.3725 32.5417 95.3725 32.722L96.2992 30.6356C96.2992 29.7856 95.913 30.6356 95.7843 30.1205C95.9287 29.3719 96.2268 28.6615 96.6595 28.0341H96.2477C96.45 27.0041 96.9619 26.0604 97.7149 25.3296C98.7703 20.178 98.2298 19.3023 97.3546 19.6629C96.5594 20.2145 95.8777 20.9141 95.3467 21.7235C92.8755 25.1493 92.8241 27.4417 91.0221 31.8977Z" fill="black"/>
<path d="M52.9503 93.4066L52.8989 93.3809L52.9503 93.4066Z" fill="black"/>
<path d="M50.9168 85.7826C51.0755 87.3885 51.4211 88.9704 51.9464 90.4962C52.257 91.4926 52.6179 92.4727 53.0276 93.4326C53.6454 93.7417 53.4137 94.6947 53.9543 95.1326L53.7226 95.4159C53.9028 95.5704 54.0572 95.7508 53.9543 95.9826C54.2374 96.2144 54.1859 96.5492 54.3404 96.678V97.0129H54.2117C54.5251 97.409 54.6972 97.8986 54.7008 98.4038H55.0354C54.9067 99.4341 55.679 99.6401 55.4215 100.593C56.5799 101.495 55.1641 102.448 56.2453 103.401C56.1166 103.401 56.0908 103.401 55.9879 103.401C56.168 103.89 56.3225 104.457 56.9918 104.354C56.9918 104.74 56.8373 104.689 56.5799 104.792C56.8631 104.792 57.0433 105.049 57.1205 105.358H56.9918L57.2234 106.208L57.764 105.951C57.764 106.44 57.0947 106.157 57.3007 106.569H57.764C57.764 107.213 57.1205 107.677 56.8116 108.295C56.8116 110.87 58.1759 113.446 57.1462 115.713H56.7858C56.271 115.713 57.4809 116.408 56.9918 116.434L57.1977 116.717C57.1977 116.717 56.9918 116.923 56.8888 116.717C56.7858 116.511 56.8888 116.975 57.069 117.155L56.7086 117.361C56.2968 118.211 56.7086 119.139 56.3482 119.937C55.4215 120.839 55.1899 122.899 54.675 124.033C54.5127 124.456 54.2416 124.829 53.889 125.114C53.5365 125.399 53.115 125.586 52.6672 125.655C51.8001 125.771 50.9857 126.138 50.3247 126.711C50.3247 126.711 50.1703 126.866 50.3247 126.917C49.6788 127.13 49.0156 127.285 48.3426 127.381H48.0337L47.2357 127.51C46.6179 127.664 45.7942 127.819 45.1507 128.051C43.9408 128.54 43.0399 129.596 46.7981 131.631C47.9307 131.631 48.703 131.811 49.3723 131.013C49.6554 131.657 50.299 130.858 50.6336 131.013C51.1484 130.343 52.1781 131.013 52.6672 130.214C52.6672 130.214 52.6672 130.446 52.6672 130.523C53.1305 130.292 53.6454 129.725 53.877 130.086C54.9324 129.416 56.4512 128.386 56.4512 127.33C56.4512 126.711 56.7858 126.866 56.966 126.351C56.966 125.707 57.7125 125.192 57.7898 124.78H58.0214C58.1737 124.504 58.3112 124.22 58.4333 123.93L58.2274 124.213C57.6353 123.749 58.9481 123.801 58.8452 122.977C59.1798 122.41 57.867 121.251 58.4333 120.839C58.2016 120.452 58.8966 121.251 58.7679 120.839C59.1283 120.839 58.9481 121.122 59.257 121.096C59.257 120.633 59.8233 120.504 59.7204 119.911H60.0035C59.6946 119.113 60.6728 118.675 60.2609 118.108C59.8491 117.542 61.2391 117.773 60.75 116.923L61.1876 116.692C61.1876 116.383 60.7243 116.408 60.956 116.073C61.1876 115.739 61.2134 115.636 61.4193 115.867C61.9084 115.069 60.956 114.193 61.6767 113.137C61.1876 112.905 61.4708 112.364 61.1104 112.21C61.3164 112.21 61.1104 111.154 61.5995 111.746C61.5995 111.746 61.5995 111.901 61.5995 111.875H61.8827C62.449 111.257 61.5738 110.767 61.6253 110.175C61.6253 110.355 61.6253 110.587 61.3678 110.433V109.892H61.6253V109.067L61.3164 109.196C61.4451 108.784 61.9599 108.604 61.4708 108.192C60.9817 107.78 61.0847 108.604 60.956 108.192C61.1787 107.525 61.3171 106.832 61.3678 106.131C61.0332 106.131 61.0332 106.131 60.9302 105.873H61.2134C60.6986 105.204 61.8312 105.539 61.4193 104.869H61.6253H60.9817C60.3124 104.328 61.548 104.431 60.6471 103.839C60.6471 104.096 60.0293 104.07 60.0808 103.839H60.3897C60.3897 103.658 60.158 103.607 60.2095 103.478C60.261 103.349 60.6213 103.478 60.5441 103.195H60.9302L60.3124 102.757C60.5441 102.293 60.055 101.727 60.3124 101.495C60.5698 101.263 60.3124 100.593 59.8748 100.49C60.1837 100.49 60.1837 100.104 60.5441 100.181C60.2095 100.027 59.7976 99.4083 60.0808 99.0735C60.0808 98.0174 59.257 97.5023 59.4372 96.4977C59.1026 96.4977 59.1798 96.1114 58.7679 96.3432C58.1244 95.5704 59.2313 94.4886 57.8155 94.5144C57.6353 94.128 57.9957 93.9477 58.0214 93.7159C57.7957 93.2383 57.623 92.7373 57.5066 92.222C57.3007 91.9901 56.6829 92.222 56.6829 91.578C56.966 91.578 56.8631 91.578 56.8116 91.2947C56.7601 91.0114 56.9918 91.2947 57.069 91.1144C57.0013 91.1308 56.9307 91.1308 56.8631 91.1144C56.6829 90.831 56.6314 90.9083 56.6314 91.1144C56.5893 91.1022 56.5447 91.1022 56.5027 91.1144C56.7086 90.7023 56.2195 90.2386 56.5027 90.0583C56.0786 89.3092 55.5966 88.5944 55.0612 87.9204C55.2414 87.7659 55.4988 87.9204 55.6532 88.075L55.3958 87.5598C55.7047 87.5598 55.679 87.8174 55.7819 87.972C56.0651 87.1477 54.8552 86.8129 55.0354 85.8856H54.7523C54.816 85.9115 54.8739 85.9499 54.9225 85.9986C54.9711 86.0473 55.0095 86.1052 55.0354 86.1689C55.2671 85.9629 55.6532 85.9629 55.4988 85.6023C55.3443 85.2417 55.0612 84.8038 54.8037 84.4689C54.8037 84.7007 54.675 84.675 54.5463 84.6235C54.4176 84.572 54.7008 84.2371 54.5463 84.1341L54.9067 83.9795C54.5978 84.1856 54.3661 83.6189 54.1859 83.6189C54.4176 83.4129 54.5206 83.825 54.7265 83.7992L54.2632 82.7174C53.8513 82.4341 53.9543 82.9235 53.5681 82.7174C53.182 82.5114 53.0018 82.1507 53.0533 81.6871L52.7959 81.9447C52.5836 81.7606 52.4275 81.5204 52.3456 81.2516C52.2636 80.9828 52.2591 80.6963 52.3326 80.425C50.093 78.5447 49.1149 78.6992 48.7287 79.2659C48.3945 79.7846 48.2575 80.4061 48.3426 81.0174C48.4971 83.0523 49.7584 83.5932 50.9168 85.7826Z" fill="black"/>
<path d="M63.7876 101.031L63.0411 102.036C63.0411 102.036 63.35 101.778 63.7876 101.031Z" fill="black"/>
<path d="M160.653 91.3203L160.473 91.5779L160.653 91.3203Z" fill="black"/>
<path d="M71.7932 86.3493C64.7915 92.1447 60.4154 96.6523 57.6868 102.602C56.0893 106.434 55.7985 110.686 56.8595 114.699C57.9205 118.713 60.274 122.265 63.5559 124.805C67.392 127.931 71.8635 130.181 76.6583 131.399C81.1605 132.569 85.7629 133.31 90.4043 133.614C94.6517 133.614 102.039 134.078 106.905 133.614L108.81 133.846C110.516 133.62 112.241 133.568 113.958 133.692C116.532 133.486 119.286 133.692 120.573 133.486L123.688 133.357L123.148 133.511C125.387 133.305 127.704 133.048 129.969 132.636C132.3 132.346 134.584 131.757 136.765 130.884H136.224C137.572 130.379 138.737 129.482 139.571 128.308C139.988 127.708 140.273 127.025 140.406 126.305C140.539 125.586 140.518 124.846 140.343 124.136C140.183 123.497 139.922 122.889 139.571 122.333C139.314 121.913 139.021 121.517 138.695 121.148C138.148 120.528 137.555 119.951 136.919 119.422C135.735 118.417 134.577 117.593 133.315 116.717L131.411 115.327C130.792 114.891 130.215 114.399 129.686 113.858C126.749 111.19 124.46 107.887 122.993 104.199C121.397 100.851 120.11 97.3735 118.179 92.8917C118.669 93.9993 118.179 92.3508 118.179 92.4023C116.712 88.178 115.605 83.4902 114.936 83.5674C114.241 80.3477 114.601 80.9917 114.756 80.4508C114.014 78.8302 113.594 77.0804 113.52 75.2993L113.778 76.4326C113.778 76.4326 113.494 74.6296 113.34 72.8265C113.186 71.0235 113.134 69.1947 113.134 69.1947L112.696 70.7144C112.696 66.825 113.314 69.7099 113.263 66.0265H112.696C113.084 61.5556 114.279 57.192 116.223 53.1477C117.915 48.2105 120.725 43.732 124.435 40.0629C128.426 36.4889 133.078 33.7323 138.129 31.9493C148.126 28.4171 158.792 27.1932 169.328 28.3689L170.126 28.8068C170.409 29.2705 175.532 28.8068 176.098 29.7083C176.098 29.7083 176.664 29.7083 177.205 29.9144L178.286 30.172C178.852 30.4296 179.985 31.0993 178.955 30.7386C180.809 31.5629 180.834 31.5371 182.199 32.1038L182.997 32.825L183.769 33.5462C186.58 35.7223 188.473 38.8753 189.072 42.3811C189.598 46.2148 188.905 50.1171 187.09 53.5341C183.652 59.5464 179.643 65.2135 175.12 70.4568C169.971 76.4068 164.154 82.1765 160.138 86.6326C157.332 89.878 154.424 92.9689 151.335 96.3432C147.978 99.7808 145.266 103.794 143.329 108.192C142.755 109.568 142.498 111.057 142.578 112.546C142.658 114.036 143.073 115.488 143.792 116.795C144.748 118.173 146.147 119.182 147.756 119.654C149.058 120.055 150.41 120.272 151.772 120.298C154.147 120.314 156.518 120.099 158.851 119.654C161.082 119.277 163.285 118.743 165.441 118.057C166.113 117.926 166.763 117.701 167.372 117.387C167.372 117.387 168.324 117.181 169.946 116.64C170.641 116.408 171.439 116.125 172.211 115.919C172.583 115.811 172.961 115.725 173.344 115.661H173.858C173.858 115.867 173.987 115.12 174.013 114.992C174.425 113.858 174.708 114.631 172.957 114.477C172.957 114.477 172.957 114.477 172.957 114.657L172.726 115.455C172.531 116.037 172.426 116.645 172.417 117.258C172.365 117.855 172.417 118.457 172.571 119.036C172.814 120.243 173.405 121.354 174.27 122.23L175.223 122.977C176.077 123.513 177.005 123.921 177.977 124.187C181.079 125.014 184.375 124.675 187.244 123.234C187.706 122.967 188.153 122.675 188.583 122.358C188.972 122.037 189.341 121.693 189.689 121.328C190.442 120.533 191.044 119.608 191.466 118.598C191.893 117.53 192.091 116.384 192.047 115.235C192.003 114.085 191.717 112.958 191.208 111.927C190.25 109.949 188.602 108.392 186.575 107.548C184.934 106.874 183.196 106.465 181.426 106.337C180.012 106.235 178.593 106.235 177.179 106.337L175.377 106.492C175.067 106.549 174.764 106.645 174.476 106.775L173.781 107.11C173.399 107.306 173.037 107.539 172.7 107.805L172.417 108.089L172.211 108.346C172.042 108.614 171.969 108.933 172.005 109.248C172.043 109.435 172.123 109.611 172.239 109.763C172.355 109.914 172.504 110.038 172.674 110.123H172.957C173.068 110.149 173.182 110.149 173.292 110.123C173.807 110.123 173.755 109.866 173.55 109.737L173.215 109.608H173.06C172.945 109.561 172.846 109.481 172.777 109.377C172.729 109.299 172.704 109.21 172.704 109.119C172.704 109.028 172.729 108.939 172.777 108.861C172.777 108.707 172.777 108.861 172.957 108.681C173.339 108.492 173.747 108.361 174.167 108.295C174.711 108.143 175.277 108.082 175.841 108.114L178.106 108.398C180.193 108.626 182.243 109.12 184.207 109.866C185.354 110.313 186.378 111.029 187.193 111.952C187.991 112.958 188.386 114.225 188.299 115.507V115.249C188.294 115.935 188.133 116.611 187.83 117.227C187.527 117.842 187.089 118.381 186.549 118.804C185.556 119.597 184.361 120.096 183.1 120.246C182.01 120.5 180.876 120.504 179.785 120.259C178.693 120.014 177.67 119.525 176.793 118.83C176.783 117.964 176.869 117.1 177.05 116.254C177.329 115.479 177.426 114.651 177.334 113.833C177.252 113.481 177.122 113.143 176.947 112.828C176.613 112.455 176.211 112.15 175.763 111.927C175.316 111.658 174.815 111.49 174.296 111.437C173.345 111.399 172.393 111.485 171.464 111.695H171.67C170.255 112.184 168.968 112.725 167.783 113.086C166.599 113.446 165.209 113.73 163.999 113.987C161.425 114.528 158.98 114.863 156.509 115.43C156.922 115.152 157.402 114.992 157.899 114.966C156.108 115.33 154.292 115.554 152.467 115.636C150.871 115.636 149.893 115.378 149.893 115.146C149.212 115.062 148.569 114.785 148.04 114.348C147.94 114.274 147.861 114.177 147.808 114.064C147.711 113.937 147.649 113.786 147.628 113.627C147.465 113.27 147.378 112.885 147.37 112.493C147.289 110.498 147.761 108.519 148.735 106.775C150.729 103.44 152.939 100.239 155.35 97.1932L155.17 97.5538C156.972 94.978 157.95 94.4886 160.318 91.7068C160.499 91.7068 160.679 91.4235 160.679 91.475C162.712 88.6417 167.732 84.1599 169.611 82.022H169.92L172.365 79.4462L174.785 76.8705L172.932 78.725C172.932 77.5659 176.999 75.2735 179.985 70.9977C183.177 67.3144 184.721 62.3947 187.553 58.3765C188.454 56.1614 186.987 60.4629 188.531 57.2432C188.917 57.2432 187.913 58.8144 188.531 58.1705C190.352 55.2998 191.691 52.15 192.495 48.8462H192.83C193.249 46.0543 193.249 43.2154 192.83 40.4235C192.549 38.0124 191.534 35.7461 189.921 33.9326C187.888 31.5371 187.09 30.8674 186.395 29.9917C185.102 28.7092 183.509 27.7706 181.761 27.2614L180.706 26.5659C180.165 26.2311 179.625 25.9477 179.625 25.9477C178.895 25.619 178.108 25.4352 177.308 25.4068C176.432 25.3227 175.569 25.1413 174.734 24.8659C174.965 24.6083 171.078 23.9902 172.829 24.0417C169.44 23.3757 165.977 23.1678 162.532 23.4235C158.954 23.578 155.144 23.8356 150.794 24.1189C149.528 24.5543 148.228 24.8817 146.907 25.0977C145.711 25.3228 144.539 25.6591 143.406 26.1023C142.136 26.3017 140.88 26.5856 139.648 26.9523C138.155 27.3902 137.254 27.5962 139.648 26.6174C140.034 26.4371 140.781 26.2568 140.729 26.3599L141.218 25.922C136.641 26.9742 132.285 28.8224 128.347 31.3826C129.686 30.7129 131.436 29.8114 130.355 30.5841L128.322 31.6917C127.634 32.0498 126.972 32.4543 126.34 32.9023L127.009 32.1553C127.009 32.1553 125.516 33.0568 124.074 34.0614L122.144 35.5553C121.843 35.7738 121.559 36.0149 121.294 36.2765L122.221 35.8644C119.786 37.4549 117.773 39.6112 116.352 42.1493C115.58 43.7462 118.488 39.5735 116.558 42.7417C113.197 47.4141 110.879 52.755 109.762 58.4023C110.2 57.9386 109.762 59.4583 109.762 60.978L109.427 61.1326C109.488 62.5322 109.323 63.9324 108.938 65.2796C108.513 66.6103 108.416 68.0243 108.655 69.4008L108.449 68.8599L108.758 69.6583L109.093 70.4568C110.019 75.8144 108.552 73.4705 110.174 79.3174C109.762 76.9993 110.637 78.1326 110.998 80.9917L110.586 80.322C110.946 81.8932 111.178 82.3826 111.332 83.4386C110.972 82.5371 110.817 83.0523 111.332 85.3189L110.637 83.8765L111.384 85.9629L112.182 88.0492C112.696 91.4492 114.756 96.4977 114.91 97.9659C114.91 97.9659 115.502 99.7174 116.326 101.649C116.986 103.289 117.851 104.838 118.9 106.26C117.948 105.049 119.801 108.836 118.9 107.883C119.518 108.655 120.625 110.278 121.809 111.875C122.993 113.472 124.383 115.095 124.975 116.073L124.641 115.764C125.352 116.692 126.145 117.554 127.009 118.34C127.91 119.061 128.656 119.577 129.403 120.092C130.896 121.096 132.26 121.998 133.444 122.951C133.995 123.373 134.511 123.838 134.989 124.342C135.171 124.541 135.335 124.756 135.478 124.986C135.538 125.052 135.582 125.131 135.606 125.217C135.606 125.552 135.606 125.758 134.345 126.299C134.525 126.299 133.985 126.711 133.341 126.943C132.698 127.175 132.08 127.381 132.543 127.51C125.542 129.57 119.338 127.845 116.609 129.287C114.639 129.264 112.671 129.135 110.714 128.901H111.538C105.026 129.158 103.224 129.236 98.4872 129.158C96.1945 129.57 93.8571 129.674 91.5369 129.467C92.927 129.313 91.2023 129.261 89.6321 129.081C90.636 129.081 90.9449 129.081 88.9113 128.695C88.526 128.73 88.1383 128.73 87.7529 128.695C85.1788 128.437 85.5906 128.695 86.7748 128.695C86.7748 128.695 86.7748 128.695 87.1609 128.901C84.5299 128.55 81.942 127.928 79.4384 127.046C76.0966 126.307 72.8618 125.147 69.8111 123.595C67.0839 122.235 64.7457 120.206 63.0153 117.696C62.8609 116.975 63.6846 118.16 64.9202 119.448L64.4826 118.933C64.1471 118.566 63.8456 118.169 63.5816 117.748C63.1703 117.161 62.8086 116.54 62.5005 115.893C62.6292 115.893 62.9123 116.383 63.3499 117.027L63.9935 118.057L64.7142 118.933C63.1286 116.765 61.943 114.331 61.2134 111.746C60.5765 108.966 61.0182 106.048 62.449 103.581C62.449 103.581 62.7579 102.319 62.7836 102.319L63.0153 102.01C63.1633 101.23 63.4796 100.491 63.942 99.8462C64.6885 99.2796 64.3796 100.233 66.3102 97.7856C68.0349 96.0341 71.0724 92.6341 73.5693 90.2644C72.1536 91.3977 72.5139 90.9083 73.0288 90.2644C74.2644 89.2083 75.1653 88.822 76.0663 87.9462L76.4266 88.1523C75.6801 88.1523 79.4899 85.1902 79.876 84.7008C80.777 84.3402 78.0484 86.4523 77.8424 86.8902C82.9907 82.8462 80.4166 84.8296 85.5649 80.9144C88.1391 78.6477 84.8441 80.9144 86.0025 79.7553C88.5026 77.7325 91.1435 75.8905 93.9052 74.2432L92.7725 74.578C96.3037 71.9413 100.1 69.6796 104.099 67.8296C113.211 61.9568 118.514 59.0205 120.934 57.372C123.354 55.7235 123.019 55.4917 121.474 55.8523C119.185 56.5148 116.941 57.3235 114.756 58.2735C112.388 59.278 110.431 60.2053 110.431 60.2053C103.678 63.2816 97.2159 66.9627 91.1251 71.2038C84.4245 75.9155 77.9719 80.9707 71.7932 86.3493Z" fill="black"/>
<path d="M230.258 91.7325L228.739 90.7021C228.739 90.7021 229.125 91.037 230.258 91.7325Z" fill="black"/>
<path d="M321.203 119.216L321.589 119.035L321.203 119.216Z" fill="black"/>
<path d="M172.057 51.9111L172.365 52.2202L172.057 51.9111Z" fill="black"/>
<path d="M251.572 100.645C247.412 97.2079 242.997 94.091 238.367 91.3204C234.557 88.7446 231.133 86.7355 227.658 84.7264C220.708 80.7082 213.449 76.9991 201.917 71.384C196.537 68.6022 190.951 65.6401 185.597 62.5749C180.46 59.8819 175.854 56.2774 172.005 51.937C169.855 49.6428 168.501 46.7164 168.144 43.5916C167.876 40.1988 168.35 36.7883 169.534 33.5976L170.152 32.6188L170.564 31.9491L170.795 31.6658C171.761 29.6948 173.119 27.9418 174.785 26.5143V26.6688C176.741 24.6744 178.947 22.9427 181.349 21.5173V21.6719C181.898 21.3079 182.465 20.9726 183.048 20.6673L184.773 19.5598L184.232 19.9976C189.278 17.2505 194.649 15.1477 200.218 13.7385L199.703 13.5325C205.289 12.1158 209.099 11.137 212.805 10.287C216.922 9.29238 221.102 8.57811 225.316 8.14915H225.187C238.058 5.44461 246.012 6.44915 259.629 5.10976C257.93 5.2643 260.376 5.2643 260.221 5.36733C266.528 5.05824 273.092 5.084 273.324 4.4143C277.906 4.4143 277.031 4.72339 277.623 5.00673C280.117 4.66465 282.645 4.66465 285.139 5.00673H283.492C283.492 5.00673 286.066 5.16127 288.64 5.41885C291.214 5.67642 293.788 6.03703 293.788 6.03703L291.883 5.18703C297.212 6.16582 293.145 6.01127 298.242 6.80976V6.32036C301.373 6.99729 304.439 7.9453 307.406 9.1537C310.066 10.0883 312.465 11.6421 314.407 13.687C314.813 14.1125 315.109 14.6302 315.27 15.1955C315.432 15.7608 315.454 16.3569 315.334 16.9325C314.888 18.3918 314.103 19.7247 313.043 20.8219C310.404 23.5457 307.62 26.1252 304.703 28.5492C298.834 33.5204 292.553 38.1567 286.272 42.7158C273.684 51.7825 261.071 60.7461 250.903 71.0491L249.77 71.7446C248.972 71.7446 245.085 78.287 244.159 79.034L243.283 80.5279L242.46 82.0734C241.893 82.8719 240.812 84.6492 241.559 83.0522C240.592 84.698 239.872 86.4771 239.422 88.3325C239.422 88.3325 239.062 89.131 238.753 89.981C238.444 90.831 238.187 91.7067 238.187 91.7067C237.419 94.9241 237.419 98.2772 238.187 101.495C238.996 104.566 240.453 107.429 242.46 109.892C246.592 114.639 251.751 118.383 257.544 120.839C261.737 122.902 266.149 124.484 270.698 125.552C276.097 126.815 281.606 127.548 287.147 127.742C292.745 127.951 298.35 127.693 303.905 126.969C308.716 126.295 313.473 125.279 318.14 123.929C324.015 122.213 329.706 119.918 335.129 117.078L339.248 114.502C340.669 113.569 341.989 112.49 343.186 111.282C345.858 108.764 347.546 105.377 347.949 101.726C348.084 99.759 347.684 97.7916 346.79 96.034C345.954 94.3018 344.74 92.7792 343.238 91.5779C341.662 90.3051 339.746 89.5256 337.729 89.337C335.896 89.1281 334.04 89.2414 332.246 89.6719C328.971 90.4575 325.848 91.7804 323.005 93.587C321.622 94.4613 320.298 95.425 319.041 96.4719C317.803 97.4846 316.657 98.6052 315.617 99.8204C314.94 100.472 314.328 101.188 313.79 101.958L311.396 104.534L306.427 110.252L301.768 116.228L299.76 119.036C296.762 123.227 294.02 127.597 291.549 132.12C287.05 140.256 283.385 148.825 280.609 157.698C278.189 165.631 277.365 171.298 278.215 170.087C279.426 167.708 280.466 165.246 281.329 162.72C283.967 155.912 287.019 149.271 290.468 142.836L290.339 143.351C295.667 132.867 299.709 126.686 303.931 119.757C305.296 118.445 306.521 116.995 307.586 115.429C308.879 113.614 310.298 111.893 311.833 110.278V110.51C314.042 107.608 316.506 104.91 319.195 102.448C321.698 100.175 324.433 98.1716 327.355 96.4719C326.922 96.9566 326.397 97.3505 325.811 97.631C327.899 96.3045 330.159 95.273 332.529 94.5658C333.741 94.0845 335.07 93.9856 336.339 94.2825C337.577 94.2425 338.801 94.5523 339.871 95.1764C340.941 95.8005 341.813 96.7137 342.388 97.8113C343.064 98.9445 343.421 100.239 343.421 101.559C343.421 102.879 343.064 104.174 342.388 105.307C341.039 107.75 339.134 109.841 336.828 111.411L333.585 113.549L330.83 115.223L331.242 114.889C328.242 116.671 325.057 118.122 321.744 119.216C321.486 119.216 321.152 119.216 321.177 119.216C320.07 119.654 318.603 120.143 317.187 120.632C315.772 121.122 313.995 121.457 312.374 121.843L307.637 122.693C306.17 122.899 304.909 123.079 303.956 123.26L303.673 123.028L302.206 123.182L298.962 123.492L294.226 123.749H297.778C296.568 124.522 290.596 123.749 283.749 123.569C277.417 122.925 270.518 123.234 264.16 120.71C261.019 119.963 266.991 121.148 262.409 119.757C262.409 119.345 264.572 120.298 263.542 119.602C259.356 118.036 255.379 115.96 251.701 113.42V113.034C248.789 111.302 246.348 108.878 244.596 105.976C243.258 103.657 242.31 101.134 241.79 98.5067C241.398 96.4934 241.595 94.4096 242.357 92.5052C242.82 91.3204 243.129 90.1098 244.493 86.5037C244.493 86.5037 244.905 85.8598 245.368 85.2673C245.832 84.6749 246.295 84.0567 246.295 84.0567C248.149 81.3007 247.145 81.7385 249.59 78.9052C249.59 79.2401 252.885 75.3764 251.624 77.231C257.971 69.9032 265.199 63.3886 273.144 57.8355C274.817 55.9037 279.708 52.684 281.021 51.3446C281.381 51.3446 290.596 44.5961 285.5 48.7688C285.062 49.1295 284.238 49.6961 284.238 49.5931L283.775 50.2885C289.49 46.9143 293.454 43.1022 298.808 39.2385C297.16 40.3204 295.075 41.8143 296.363 40.681L298.937 38.8779L301.511 37.0234L300.636 38.0022L304.317 35.2461L307.946 32.4128L306.762 32.9795L310.906 29.7855C312.486 28.6121 313.935 27.2738 315.231 25.7931C316.776 23.9385 311.73 28.6007 315.231 25.0719C316.602 23.8203 317.79 22.3807 318.758 20.7961C319.38 19.767 319.808 18.6319 320.019 17.4476C320.233 16.082 320.11 14.6846 319.659 13.3779C318.677 10.9818 316.918 8.98592 314.665 7.71127C312.805 6.629 310.827 5.76472 308.77 5.13551C309.362 5.67642 307.328 5.13551 305.243 4.51733L305.089 4.15673C303.209 3.91478 301.368 3.43888 299.606 2.74006C297.866 2.01354 296.008 1.61197 294.123 1.55521H294.869L292.63 1.83854C285.268 1.55521 288.743 0.679454 280.557 0.911272C283.775 1.06582 282.024 1.63248 277.983 1.32339L278.987 1.06582C276.799 1.06582 276.078 1.06582 274.637 1.06582C275.949 1.06582 275.332 0.653696 272.062 0.653696L274.225 0.318848L271.187 0.550666L268.15 0.808242C263.465 0.499151 256.128 1.14309 254.198 0.808242C254.198 0.808242 251.624 0.808242 248.895 1.0143C246.546 1.08959 244.206 1.33927 241.893 1.76127C243.875 1.32339 238.367 1.76127 239.911 1.22036C237.337 1.70976 229.615 2.79157 226.629 2.8946H227.195C217.448 4.11955 207.803 6.05654 198.339 8.69006C198.879 8.87036 193.628 10.287 195.044 10.3385C190.529 11.8702 186.096 13.6326 181.761 15.6188C178.831 16.7917 176.251 18.6987 174.27 21.1567C172.012 22.9405 169.927 24.9326 168.041 27.1067L168.736 26.1022C166.593 28.9886 165.045 32.2717 164.18 35.7613C163.467 38.6933 163.292 41.7305 163.665 44.7249C163.955 46.1327 164.458 47.4877 165.158 48.7431C165.514 49.493 165.909 50.2238 166.342 50.9325L167.166 52.4007L168.324 54.1522C166.96 52.6067 168.324 54.7704 169.971 56.5219C168.993 55.3885 168.556 55.1567 170.512 57.5264C170.872 57.784 171.387 58.2219 171.851 58.634C174.811 61.2098 174.425 60.5916 173.035 59.4067C173.035 59.4067 173.035 59.4067 172.674 58.8916C175.377 61.9052 181.529 65.4082 181.735 65.9492C191.491 71.5901 198.828 74.7325 207.168 78.8279C207.992 79.4976 205.984 78.8279 203.538 77.5658L209.433 80.4507C207.594 79.8209 205.819 79.0189 204.131 78.0552C210.875 82.0476 218.803 84.7779 226.526 89.6461L228.302 90.3416L228.739 90.6507C229.821 90.9896 230.858 91.4566 231.828 92.0416C232.781 92.9688 231.442 92.531 235.252 94.8749C238.187 97.1158 244.107 100.026 247.659 102.757C245.755 101.211 246.475 101.572 247.376 102.139C248.657 103.24 249.861 104.428 250.98 105.693L250.826 106.079C250.697 105.642 251.727 106.595 252.499 107.831C253.066 108.717 253.377 109.742 253.4 110.793C253.4 110.999 253.245 110.948 253.245 110.793C253.219 110.485 253.219 110.174 253.245 109.866C253.132 109.451 252.986 109.046 252.808 108.655C252.671 108.398 252.507 108.156 252.319 107.934C252.653 108.387 252.88 108.909 252.983 109.463C253.085 110.016 253.061 110.586 252.911 111.128C252.774 111.621 252.547 112.084 252.241 112.493C251.049 114.059 249.376 115.19 247.479 115.713C243.232 117.336 248.406 115.713 246.398 116.795C242.157 118.003 237.781 118.677 233.373 118.804L234.943 119.01C228.897 119.847 222.782 120.063 216.692 119.654C201.711 120.092 193.371 119.654 189.329 119.654C185.288 119.654 185.545 120.143 187.682 120.658C189.818 121.173 193.86 121.766 197.36 122.152C200.861 122.539 203.847 122.796 203.847 122.796C214.067 123.819 224.363 123.819 234.583 122.796C237.028 122.513 239.396 122.255 241.996 121.817C244.847 121.405 247.633 120.626 250.285 119.499C251.876 118.786 253.331 117.801 254.584 116.589C255.287 115.898 255.886 115.108 256.36 114.245C256.655 113.773 256.88 113.261 257.029 112.725C257.248 112.166 257.37 111.573 257.39 110.973C257.497 108.765 256.813 106.591 255.459 104.843C254.347 103.284 253.041 101.874 251.572 100.645Z" fill="black"/>
<path d="M309.336 81.4294C305.655 81.8673 303.081 84.7521 304.548 85.6279C306.916 87.0188 313.609 85.6279 313.789 83.3612C313.918 82.0733 312.811 81.0173 309.336 81.4294Z" fill="black"/>
</g>
<defs>
<clipPath id="clip0">
<rect width="348" height="170" fill="white" transform="translate(0 0.112793)"/>
</clipPath>
</defs>
</svg>
